
<svg width="520px" height="574px" viewBox="0 0 520 574" version="1.1" xmlns="http://www.w3.org/2000/svg" xmlns:xlink="http://www.w3.org/1999/xlink">
    <defs>
        <polygon id="path-02vwvxskij-1" points="0.0011697771 0.991381933 519.785 0.991381933 519.785 512 0.0011697771 512"></polygon>
        <polygon id="path-02vwvxskij-3" points="1.75 3.8195 365.438487 3.8195 365.438487 495 1.75 495"></polygon>
        <polygon id="path-02vwvxskij-5" points="0 573.31 519.785 573.31 519.785 0 0 0"></polygon>
    </defs>
    <g id="Page-1" stroke="none" stroke-width="1" fill="none" fill-rule="evenodd">
        <g id="01-Productly" transform="translate(-735.000000, -1397.000000)">
            <g id="04-Effortless-Validation" transform="translate(145.000000, 1397.000000)">
                <g id="Image" transform="translate(590.000000, 0.000000)">
                    <g id="Group-3" transform="translate(0.000000, 61.310000)">
                        <mask id="mask-02vwvxskij-2" fill="white">
                            <use xlink:href="#path-02vwvxskij-1"></use>
                        </mask>
                        <g id="Clip-2"></g>
                        <path d="M456.451,488.87 C443.001,496.97 427.351,502.82 410.101,506.62 C398.651,509.12 386.451,510.77 373.751,511.47 C327.051,514.32 273.351,505.57 221.601,488.07 C210.001,484.17 198.501,479.82 187.201,475.02 C103.051,439.62 29.901,381.82 9.401,314.82 C-28.049,192.52 52.351,104.57 145.451,23.87 C183.201,-8.88 232.401,-4.18 283.301,23.47 C295.201,29.92 307.151,37.62 319.101,46.37 C363.951,79.32 408.351,127.27 445.851,180.57 C519.451,285.22 562.051,425.42 456.451,488.87" id="Fill-1" fill="#FDE6D6" mask="url(#mask-02vwvxskij-2)"></path>
                    </g>
                    <path d="M417.2175,155.9345 C408.5325,138.4245 405.3525,116.2645 422.7675,109.1295 C442.2175,101.1645 473.2075,114.0445 482.2275,143.2695 C487.9925,161.9445 486.0125,188.0145 470.0825,198.0345 C456.4525,206.6145 427.8725,177.4095 417.2175,155.9345" id="Fill-4" fill="#E8E5EA"></path>
                    <path d="M141.485,66.8425 C141.47,66.8425 141.455,66.8425 141.44,66.8425 C138.095,66.6125 134.74,66.4875 131.48,66.4675 C131.13,66.4675 130.855,66.1875 130.855,65.8425 C130.86,65.4975 131.135,65.2175 131.48,65.2175 L131.485,65.2175 C134.775,65.2375 138.155,65.3625 141.53,65.5925 C141.875,65.6175 142.13,65.9175 142.11,66.2625 C142.085,66.5925 141.81,66.8425 141.485,66.8425 L141.485,66.8425 Z M111.515,67.8025 C111.21,67.8025 110.94,67.5775 110.895,67.2675 C110.845,66.9275 111.08,66.6075 111.425,66.5575 C114.655,66.0875 118.025,65.7375 121.43,65.5125 C121.82,65.4475 122.075,65.7525 122.095,66.0975 C122.12,66.4375 121.86,66.7375 121.515,66.7575 C118.14,66.9825 114.805,67.3325 111.605,67.7925 C111.575,67.7975 111.545,67.8025 111.515,67.8025 L111.515,67.8025 Z M161.355,69.3175 C161.315,69.3175 161.28,69.3125 161.245,69.3075 C157.96,68.7175 154.64,68.2175 151.375,67.8075 C151.03,67.7625 150.785,67.4525 150.83,67.1075 C150.875,66.7675 151.16,66.5375 151.53,66.5675 C154.82,66.9775 158.16,67.4875 161.465,68.0775 C161.8,68.1375 162.03,68.4625 161.97,68.8025 C161.915,69.1025 161.65,69.3175 161.355,69.3175 L161.355,69.3175 Z M92.025,72.3175 C91.76,72.3175 91.515,72.1475 91.43,71.8775 C91.325,71.5475 91.51,71.1975 91.84,71.0975 C95.005,70.0975 98.265,69.2075 101.535,68.4425 C101.865,68.3625 102.21,68.5725 102.285,68.9075 C102.365,69.2425 102.155,69.5775 101.82,69.6575 C98.58,70.4175 95.345,71.3025 92.215,72.2875 C92.15,72.3075 92.09,72.3175 92.025,72.3175 L92.025,72.3175 Z M180.895,73.6975 C180.84,73.6975 180.785,73.6925 180.73,73.6775 C177.48,72.7975 174.22,71.9925 171.035,71.2775 C170.695,71.2025 170.485,70.8675 170.56,70.5275 C170.635,70.1925 170.95,69.9775 171.305,70.0575 C174.51,70.7775 177.79,71.5875 181.06,72.4675 C181.39,72.5625 181.59,72.9025 181.495,73.2375 C181.42,73.5125 181.17,73.6975 180.895,73.6975 L180.895,73.6975 Z M200.03,79.6475 C199.96,79.6475 199.89,79.6375 199.82,79.6125 C196.69,78.5075 193.495,77.4525 190.335,76.4675 C190.005,76.3625 189.82,76.0125 189.925,75.6875 C190.025,75.3575 190.38,75.1675 190.705,75.2775 C193.88,76.2625 197.09,77.3275 200.235,78.4325 C200.56,78.5475 200.735,78.9075 200.62,79.2325 C200.53,79.4875 200.29,79.6475 200.03,79.6475 L200.03,79.6475 Z M73.51,79.8425 C73.285,79.8425 73.065,79.7175 72.955,79.4975 C72.8,79.1925 72.92,78.8175 73.23,78.6575 C76.175,77.1575 79.255,75.7525 82.38,74.4875 C82.69,74.3475 83.06,74.5125 83.19,74.8325 C83.32,75.1525 83.165,75.5175 82.845,75.6475 C79.755,76.8975 76.71,78.2875 73.795,79.7725 C73.705,79.8175 73.605,79.8425 73.51,79.8425 L73.51,79.8425 Z M218.71,86.8925 C218.63,86.8925 218.55,86.8775 218.465,86.8425 C215.405,85.5425 212.29,84.2725 209.2,83.0775 C208.88,82.9525 208.72,82.5875 208.845,82.2675 C208.975,81.9475 209.335,81.7975 209.655,81.9125 C212.755,83.1125 215.885,84.3875 218.955,85.6925 C219.275,85.8275 219.42,86.1925 219.29,86.5125 C219.185,86.7475 218.955,86.8925 218.71,86.8925 L218.71,86.8925 Z M56.61,90.4975 C56.42,90.4975 56.24,90.4175 56.115,90.2575 C55.905,89.9825 55.955,89.5875 56.23,89.3775 C58.855,87.3575 61.63,85.4175 64.475,83.6225 C64.77,83.4425 65.155,83.5275 65.34,83.8175 C65.525,84.1125 65.435,84.4975 65.145,84.6775 C62.33,86.4575 59.59,88.3725 56.99,90.3725 C56.88,90.4575 56.745,90.4975 56.61,90.4975 L56.61,90.4975 Z M236.92,95.2525 C236.83,95.2525 236.735,95.2325 236.645,95.1875 C233.635,93.7025 230.6,92.2575 227.615,90.8875 C227.305,90.7425 227.165,90.3675 227.31,90.0575 C227.455,89.7425 227.825,89.6025 228.14,89.7475 C231.13,91.1225 234.18,92.5775 237.2,94.0625 C237.51,94.2175 237.635,94.5925 237.485,94.9025 C237.375,95.1225 237.15,95.2525 236.92,95.2525 L236.92,95.2525 Z M42.005,104.1325 C41.855,104.1325 41.71,104.0825 41.59,103.9725 C41.33,103.7475 41.31,103.3525 41.54,103.0925 C43.755,100.5975 46.115,98.1725 48.56,95.8925 C48.81,95.6525 49.205,95.6675 49.44,95.9175 C49.68,96.1725 49.665,96.5675 49.41,96.8025 C47,99.0625 44.665,101.4575 42.47,103.9225 C42.35,104.0625 42.18,104.1325 42.005,104.1325 L42.005,104.1325 Z M254.655,104.5825 C254.55,104.5825 254.45,104.5575 254.35,104.5025 C251.445,102.8775 248.485,101.2725 245.56,99.7325 C245.255,99.5725 245.135,99.1925 245.295,98.8875 C245.46,98.5825 245.84,98.4625 246.14,98.6225 C249.08,100.1725 252.045,101.7825 254.96,103.4125 C255.26,103.5825 255.37,103.9625 255.2,104.2625 C255.085,104.4675 254.875,104.5825 254.655,104.5825 L254.655,104.5825 Z M271.905,114.7925 C271.795,114.7925 271.68,114.7625 271.575,114.6975 C268.725,112.9175 265.85,111.1725 263.03,109.5025 C262.73,109.3275 262.63,108.9425 262.81,108.6475 C262.98,108.3425 263.365,108.2475 263.665,108.4275 C266.49,110.0975 269.38,111.8525 272.24,113.6375 C272.53,113.8225 272.62,114.2075 272.435,114.5025 C272.32,114.6875 272.115,114.7925 271.905,114.7925 L271.905,114.7925 Z M30.12,120.2125 C30.005,120.2125 29.895,120.1825 29.79,120.1175 C29.5,119.9375 29.405,119.5525 29.585,119.2575 C31.345,116.3925 33.24,113.5825 35.205,110.9125 C35.415,110.6375 35.805,110.5825 36.08,110.7825 C36.36,110.9875 36.415,111.3775 36.21,111.6525 C34.265,114.2975 32.395,117.0725 30.65,119.9125 C30.535,120.1075 30.33,120.2125 30.12,120.2125 L30.12,120.2125 Z M288.655,125.8025 C288.53,125.8025 288.405,125.7625 288.3,125.6925 C285.53,123.7775 282.735,121.8975 280,120.0975 C279.71,119.9075 279.63,119.5225 279.82,119.2325 C280.01,118.9525 280.395,118.8675 280.685,119.0525 C283.43,120.8575 286.23,122.7425 289.005,124.6575 C289.295,124.8575 289.365,125.2475 289.17,125.5275 C289.045,125.7025 288.85,125.8025 288.655,125.8025 L288.655,125.8025 Z M304.86,137.5275 C304.73,137.5275 304.6,137.4875 304.485,137.4025 C301.805,135.3775 299.105,133.3725 296.455,131.4525 C296.175,131.2475 296.115,130.8575 296.315,130.5825 C296.52,130.2975 296.91,130.2375 297.19,130.4425 C299.845,132.3625 302.555,134.3725 305.24,136.4075 C305.515,136.6125 305.565,137.0075 305.36,137.2825 C305.235,137.4425 305.05,137.5275 304.86,137.5275 L304.86,137.5275 Z M21.015,138.0225 C20.935,138.0225 20.855,138.0075 20.775,137.9775 C20.455,137.8425 20.305,137.4725 20.44,137.1575 C21.75,134.0375 23.175,130.9675 24.67,128.0375 C24.825,127.7275 25.2,127.6025 25.51,127.7625 C25.82,127.9175 25.94,128.2975 25.785,128.6025 C24.3,131.5125 22.89,134.5525 21.59,137.6425 C21.49,137.8825 21.26,138.0225 21.015,138.0225 L21.015,138.0225 Z M320.565,149.9875 C320.425,149.9875 320.285,149.9425 320.165,149.8475 C317.645,147.7525 315.03,145.6275 312.39,143.5325 C312.12,143.3175 312.075,142.9275 312.29,142.6575 C312.51,142.3875 312.9,142.3475 313.165,142.5525 C315.815,144.6525 318.44,146.7825 320.965,148.8825 C321.23,149.1025 321.27,149.4975 321.05,149.7625 C320.925,149.9125 320.745,149.9875 320.565,149.9875 L320.565,149.9875 Z M14.48,156.9375 C14.42,156.9375 14.365,156.9325 14.31,156.9175 C13.98,156.8225 13.78,156.4775 13.875,156.1425 C14.785,152.8875 15.785,149.6575 16.855,146.5475 C16.97,146.2225 17.33,146.0375 17.65,146.1575 C17.975,146.2725 18.15,146.6275 18.04,146.9525 C16.975,150.0425 15.98,153.2475 15.08,156.4825 C15.005,156.7575 14.75,156.9375 14.48,156.9375 L14.48,156.9375 Z M335.735,163.1675 C335.58,163.1675 335.435,163.1125 335.315,163.0025 C332.85,160.7625 330.325,158.5175 327.81,156.3325 C327.55,156.1125 327.525,155.7125 327.75,155.4525 C327.975,155.1875 328.37,155.1725 328.63,155.3925 C331.155,157.5825 333.68,159.8325 336.155,162.0775 C336.41,162.3125 336.43,162.7075 336.195,162.9625 C336.07,163.0975 335.905,163.1675 335.735,163.1675 L335.735,163.1675 Z M10.17,176.4925 C10.135,176.4925 10.1,176.4875 10.065,176.4825 C9.725,176.4275 9.495,176.1025 9.555,175.7625 C10.11,172.4375 10.75,169.1225 11.455,165.9025 C11.53,165.5675 11.86,165.3575 12.2,165.4225 C12.535,165.4975 12.75,165.8325 12.675,166.1675 C11.975,169.3675 11.34,172.6675 10.785,175.9675 C10.735,176.2725 10.47,176.4925 10.17,176.4925 L10.17,176.4925 Z M350.25,176.9875 C350.09,176.9875 349.93,176.9275 349.81,176.8025 C347.445,174.4475 345.03,172.0975 342.64,169.8225 C342.39,169.5825 342.38,169.1875 342.62,168.9375 C342.855,168.6925 343.255,168.6775 343.5,168.9175 C345.9,171.2025 348.32,173.5575 350.69,175.9175 C350.935,176.1625 350.935,176.5575 350.69,176.8025 C350.57,176.9275 350.41,176.9875 350.25,176.9875 L350.25,176.9875 Z M364.09,191.4775 C363.92,191.4775 363.755,191.4075 363.63,191.2725 C361.385,188.8075 359.09,186.3425 356.805,183.9525 C356.57,183.7075 356.58,183.3075 356.825,183.0725 C357.08,182.8375 357.47,182.8375 357.71,183.0925 C360.005,185.4875 362.305,187.9575 364.555,190.4325 C364.79,190.6875 364.77,191.0825 364.51,191.3125 C364.395,191.4225 364.245,191.4775 364.09,191.4775 L364.09,191.4775 Z M7.755,196.3675 C7.74,196.3675 7.725,196.3675 7.705,196.3675 C7.36,196.3375 7.105,196.0375 7.13,195.6975 C7.395,192.3275 7.73,188.9625 8.125,185.7025 C8.165,185.3625 8.445,185.1325 8.82,185.1575 C9.165,185.1975 9.405,185.5075 9.365,185.8525 C8.975,189.0975 8.64,192.4425 8.375,195.7925 C8.355,196.1175 8.08,196.3675 7.755,196.3675 L7.755,196.3675 Z M377.19,206.6425 C377.01,206.6425 376.83,206.5625 376.705,206.4125 C374.625,203.8725 372.46,201.2975 370.265,198.7575 C370.04,198.4975 370.07,198.1025 370.335,197.8775 C370.595,197.6475 370.99,197.6825 371.215,197.9425 C373.415,200.4875 375.59,203.0725 377.675,205.6225 C377.895,205.8875 377.855,206.2825 377.585,206.5025 C377.47,206.5975 377.33,206.6425 377.19,206.6425 L377.19,206.6425 Z M6.945,216.3825 L6.945,216.3825 C6.6,216.3775 6.32,216.0975 6.32,215.7525 C6.335,212.3975 6.41,209.0225 6.54,205.7175 C6.555,205.3775 6.82,205.0925 7.19,205.1175 C7.535,205.1325 7.805,205.4225 7.79,205.7675 C7.66,209.0575 7.585,212.4175 7.57,215.7575 C7.57,216.1025 7.29,216.3825 6.945,216.3825 L6.945,216.3825 Z M389.445,222.4975 C389.25,222.4975 389.06,222.4125 388.94,222.2425 C386.975,219.5475 384.955,216.8525 382.935,214.2425 C382.725,213.9675 382.775,213.5775 383.05,213.3625 C383.32,213.1525 383.71,213.1975 383.925,213.4775 C385.955,216.0975 387.98,218.8025 389.95,221.5075 C390.15,221.7875 390.09,222.1775 389.815,222.3775 C389.7,222.4625 389.57,222.4975 389.445,222.4975 L389.445,222.4975 Z M7.51,236.4125 C7.18,236.4125 6.905,236.1525 6.885,235.8225 C6.685,232.4325 6.535,229.0525 6.445,225.7925 C6.435,225.4475 6.705,225.1575 7.05,225.1475 L7.07,225.1475 C7.405,225.1475 7.685,225.4175 7.695,225.7575 C7.785,229.0075 7.935,232.3675 8.135,235.7475 C8.155,236.0925 7.89,236.3875 7.545,236.4125 L7.51,236.4125 Z M400.72,239.0575 C400.515,239.0575 400.31,238.9575 400.19,238.7675 C398.43,235.9925 396.58,233.1825 394.695,230.4175 C394.505,230.1325 394.575,229.7425 394.86,229.5475 C395.14,229.3525 395.535,229.4275 395.73,229.7125 C397.62,232.4875 399.48,235.3125 401.245,238.0975 C401.43,238.3925 401.345,238.7775 401.055,238.9625 C400.95,239.0275 400.835,239.0575 400.72,239.0575 L400.72,239.0575 Z M410.84,256.3475 C410.62,256.3475 410.405,256.2275 410.29,256.0175 C408.73,253.1175 407.085,250.1875 405.395,247.3025 C405.225,247.0075 405.325,246.6275 405.62,246.4475 C405.91,246.2675 406.3,246.3725 406.475,246.6725 C408.17,249.5675 409.825,252.5125 411.39,255.4275 C411.555,255.7275 411.44,256.1125 411.135,256.2725 C411.045,256.3225 410.94,256.3475 410.84,256.3475 L410.84,256.3475 Z M9.275,256.3725 C8.96,256.3725 8.69,256.1375 8.655,255.8175 C8.26,252.4525 7.92,249.0875 7.63,245.8375 C7.6,245.4925 7.855,245.1875 8.195,245.1575 C8.6,245.1225 8.845,245.3825 8.875,245.7225 C9.16,248.9675 9.505,252.3175 9.895,255.6775 C9.935,256.0175 9.69,256.3275 9.345,256.3675 C9.32,256.3725 9.3,256.3725 9.275,256.3725 L9.275,256.3725 Z M419.585,274.3625 C419.345,274.3625 419.115,274.2225 419.01,273.9875 C417.69,270.9425 416.285,267.8875 414.84,264.9125 C414.69,264.6025 414.82,264.2275 415.13,264.0775 C415.435,263.9225 415.81,264.0525 415.965,264.3625 C417.42,267.3625 418.83,270.4275 420.16,273.4875 C420.295,273.8075 420.15,274.1725 419.835,274.3125 C419.755,274.3425 419.67,274.3625 419.585,274.3625 L419.585,274.3625 Z M12.09,276.2125 C11.79,276.2125 11.525,275.9925 11.475,275.6875 C10.91,272.3425 10.395,269.0075 9.94,265.7725 C9.89,265.4325 10.13,265.1125 10.47,265.0675 C10.79,265.0125 11.125,265.2525 11.175,265.5975 C11.63,268.8225 12.145,272.1475 12.705,275.4825 C12.765,275.8225 12.535,276.1425 12.195,276.2025 C12.16,276.2075 12.125,276.2125 12.09,276.2125 L12.09,276.2125 Z M426.645,293.0925 C426.38,293.0925 426.135,292.9275 426.05,292.6625 C425.055,289.5525 423.95,286.3875 422.76,283.2425 C422.64,282.9175 422.8,282.5575 423.125,282.4375 C423.445,282.2975 423.805,282.4725 423.93,282.7975 C425.13,285.9625 426.24,289.1525 427.24,292.2775 C427.345,292.6075 427.165,292.9625 426.835,293.0675 C426.77,293.0875 426.705,293.0925 426.645,293.0925 L426.645,293.0925 Z M15.865,295.8875 C15.575,295.8875 15.32,295.6875 15.255,295.3925 C14.555,292.1525 13.88,288.8425 13.255,285.5625 C13.185,285.2225 13.41,284.8975 13.75,284.8325 C14.08,284.7425 14.415,284.9875 14.48,285.3275 C15.105,288.5975 15.775,291.8975 16.475,295.1325 C16.55,295.4675 16.335,295.8025 15.995,295.8725 C15.955,295.8825 15.91,295.8875 15.865,295.8875 L15.865,295.8875 Z M431.645,312.4675 C431.355,312.4675 431.09,312.2575 431.035,311.9575 C430.415,308.7725 429.675,305.5025 428.83,302.2375 C428.745,301.9025 428.945,301.5625 429.28,301.4775 C429.605,301.3925 429.95,301.5925 430.04,301.9275 C430.89,305.2125 431.64,308.5075 432.26,311.7225 C432.325,312.0575 432.105,312.3875 431.765,312.4525 C431.725,312.4625 431.685,312.4675 431.645,312.4675 L431.645,312.4675 Z M20.52,315.3725 C20.24,315.3725 19.99,315.1825 19.915,314.9025 C19.07,311.6725 18.255,308.4275 17.48,305.1775 C17.4,304.8375 17.605,304.5025 17.94,304.4225 C18.27,304.3425 18.615,304.5475 18.695,304.8825 C19.475,308.1275 20.28,311.3625 21.125,314.5875 C21.21,314.9225 21.015,315.2625 20.68,315.3525 C20.625,315.3625 20.57,315.3725 20.52,315.3725 L20.52,315.3725 Z M434.12,332.3075 C433.79,332.3075 433.515,332.0475 433.495,331.7125 C433.325,328.4475 433.03,325.1075 432.61,321.7925 C432.565,321.4525 432.81,321.1375 433.15,321.0975 C433.525,321.0675 433.805,321.2975 433.85,321.6375 C434.27,324.9825 434.575,328.3525 434.745,331.6475 C434.765,331.9925 434.5,332.2875 434.155,332.3075 L434.12,332.3075 Z M26.145,335.1075 C25.88,335.1075 25.635,334.9375 25.55,334.6675 L25.4,334.1825 C24.425,331.0075 23.465,327.7725 22.56,324.5725 C22.465,324.2425 22.655,323.8975 22.99,323.8025 C23.335,323.7125 23.67,323.9025 23.76,324.2325 C24.67,327.4225 25.625,330.6525 26.6,333.8225 L26.74,334.2975 C26.845,334.6275 26.66,334.9725 26.33,335.0775 C26.27,335.0975 26.205,335.1075 26.145,335.1075 L26.145,335.1075 Z M433.795,352.3075 C433.78,352.3075 433.77,352.3075 433.755,352.3075 C433.41,352.2825 433.15,351.9825 433.175,351.6375 C433.405,348.3675 433.565,345.0175 433.64,341.6775 C433.645,341.3325 433.89,341.0825 434.28,341.0675 C434.62,341.0725 434.895,341.3575 434.89,341.7075 C434.815,345.0675 434.655,348.4375 434.42,351.7275 C434.4,352.0575 434.12,352.3075 433.795,352.3075 L433.795,352.3075 Z M32.34,354.1475 C32.085,354.1475 31.84,353.9875 31.75,353.7275 C30.67,350.5725 29.61,347.4025 28.575,344.2225 C28.47,343.8975 28.65,343.5425 28.98,343.4375 C29.31,343.3325 29.66,343.5125 29.765,343.8375 C30.8,347.0075 31.855,350.1725 32.935,353.3225 C33.045,353.6475 32.87,354.0025 32.545,354.1175 C32.475,354.1375 32.41,354.1475 32.34,354.1475 L32.34,354.1475 Z M431.34,372.1575 C431.305,372.1575 431.27,372.1525 431.23,372.1475 C430.89,372.0825 430.665,371.7575 430.725,371.4225 C431.3,368.2025 431.8,364.8875 432.215,361.5625 C432.255,361.2175 432.585,360.9725 432.91,361.0175 C433.255,361.0625 433.495,361.3725 433.455,361.7175 C433.04,365.0675 432.535,368.4025 431.955,371.6375 C431.9,371.9425 431.64,372.1575 431.34,372.1575 L431.34,372.1575 Z M39.115,372.9675 C38.865,372.9675 38.625,372.8125 38.535,372.5625 C37.355,369.4475 36.2,366.3175 35.065,363.1775 C34.945,362.8525 35.115,362.4925 35.44,362.3725 C35.77,362.2625 36.12,362.4275 36.24,362.7525 C37.37,365.8875 38.525,369.0125 39.7,372.1175 C39.82,372.4425 39.66,372.8025 39.34,372.9225 C39.265,372.9525 39.19,372.9675 39.115,372.9675 L39.115,372.9675 Z M46.515,391.5875 C46.27,391.5875 46.04,391.4425 45.94,391.2025 C44.655,388.1275 43.4,385.0325 42.16,381.9125 C42.03,381.5925 42.19,381.2275 42.51,381.1025 C42.82,380.9775 43.19,381.1275 43.32,381.4475 C44.555,384.5625 45.815,387.6525 47.09,390.7225 C47.225,391.0425 47.075,391.4075 46.755,391.5375 C46.675,391.5725 46.595,391.5875 46.515,391.5875 L46.515,391.5875 Z M426.695,391.6025 C426.64,391.6025 426.58,391.5975 426.515,391.5775 C426.185,391.4775 426,391.1275 426.1,390.7975 C427.05,387.6375 427.925,384.3975 428.69,381.1775 C428.775,380.8425 429.095,380.6375 429.445,380.7125 C429.78,380.7975 429.99,381.1325 429.91,381.4675 C429.135,384.7125 428.255,387.9725 427.295,391.1575 C427.215,391.4275 426.965,391.6025 426.695,391.6025 L426.695,391.6025 Z M54.535,409.9525 C54.3,409.9525 54.075,409.8175 53.97,409.5875 C52.585,406.5625 51.215,403.5075 49.87,400.4325 C49.735,400.1175 49.88,399.7475 50.195,399.6075 C50.51,399.4775 50.88,399.6125 51.02,399.9325 C52.36,403.0025 53.72,406.0475 55.105,409.0675 C55.25,409.3825 55.11,409.7525 54.8,409.8975 C54.715,409.9375 54.625,409.9525 54.535,409.9525 L54.535,409.9525 Z M419.785,410.3675 C419.7,410.3675 419.615,410.3525 419.53,410.3125 C419.215,410.1775 419.075,409.8075 419.21,409.4925 C420.54,406.4725 421.79,403.3625 422.94,400.2475 C423.06,399.9275 423.415,399.7575 423.745,399.8775 C424.065,399.9975 424.23,400.3575 424.11,400.6825 C422.955,403.8225 421.69,406.9525 420.355,409.9925 C420.25,410.2275 420.025,410.3675 419.785,410.3675 L419.785,410.3675 Z M63.22,428.0075 C62.99,428.0075 62.77,427.8825 62.66,427.6675 C61.165,424.6975 59.685,421.6975 58.225,418.6675 C58.075,418.3575 58.205,417.9825 58.52,417.8325 C58.84,417.6875 59.205,417.8125 59.355,418.1225 C60.81,421.1425 62.28,424.1375 63.775,427.1025 C63.93,427.4125 63.81,427.7875 63.5,427.9425 C63.41,427.9875 63.315,428.0075 63.22,428.0075 L63.22,428.0075 Z M410.645,428.1675 C410.535,428.1675 410.425,428.1425 410.325,428.0825 C410.025,427.9025 409.93,427.5225 410.105,427.2275 C411.8,424.3625 413.425,421.4225 414.93,418.4825 C415.09,418.1725 415.46,418.0525 415.77,418.2125 C416.08,418.3725 416.2,418.7475 416.045,419.0525 C414.525,422.0125 412.89,424.9775 411.18,427.8625 C411.065,428.0575 410.855,428.1675 410.645,428.1675 L410.645,428.1675 Z M399.485,444.7675 C399.355,444.7675 399.22,444.7275 399.105,444.6425 C398.835,444.4375 398.78,444.0425 398.985,443.7675 C400.99,441.1175 402.94,438.3925 404.78,435.6575 C404.975,435.3725 405.36,435.2925 405.65,435.4875 C405.935,435.6825 406.01,436.0725 405.815,436.3575 C403.965,439.1125 402.005,441.8575 399.985,444.5225 C399.86,444.6825 399.675,444.7675 399.485,444.7675 L399.485,444.7675 Z M72.605,445.7125 C72.385,445.7125 72.175,445.5975 72.06,445.3925 C70.465,442.5325 68.855,439.5675 67.27,436.5775 C67.11,436.2725 67.22,435.8925 67.525,435.7325 C67.835,435.5825 68.21,435.6875 68.37,435.9925 C69.955,438.9725 71.56,441.9325 73.15,444.7825 C73.32,445.0825 73.21,445.4675 72.91,445.6325 C72.815,445.6875 72.71,445.7125 72.605,445.7125 L72.605,445.7125 Z M386.595,460.0575 C386.445,460.0575 386.29,460.0025 386.17,459.8875 C385.92,459.6575 385.905,459.2575 386.14,459.0075 C388.42,456.5625 390.65,454.0475 392.765,451.5425 C392.99,451.2875 393.385,451.2475 393.645,451.4675 C393.91,451.6925 393.945,452.0875 393.72,452.3525 C391.59,454.8725 389.35,457.3975 387.055,459.8625 C386.93,459.9925 386.765,460.0575 386.595,460.0575 L386.595,460.0575 Z M82.755,462.9875 C82.55,462.9875 82.345,462.8825 82.225,462.6925 C80.49,459.8875 78.745,456.9975 77.04,454.1025 C76.87,453.8025 76.965,453.4175 77.265,453.2425 C77.56,453.0675 77.945,453.1725 78.12,453.4675 C79.82,456.3575 81.555,459.2375 83.29,462.0325 C83.47,462.3275 83.38,462.7125 83.085,462.8925 C82.985,462.9575 82.87,462.9875 82.755,462.9875 L82.755,462.9875 Z M372.29,474.0525 C372.115,474.0525 371.945,473.9825 371.82,473.8425 C371.59,473.5875 371.615,473.1925 371.87,472.9625 C374.38,470.7125 376.83,468.4225 379.165,466.1425 C379.41,465.9025 379.81,465.9125 380.045,466.1525 C380.29,466.4025 380.285,466.7975 380.035,467.0375 C377.69,469.3275 375.225,471.6325 372.705,473.8925 C372.585,473.9975 372.435,474.0525 372.29,474.0525 L372.29,474.0525 Z M93.755,479.7375 C93.555,479.7375 93.36,479.6425 93.24,479.4675 C91.35,476.7525 89.46,473.9525 87.625,471.1475 C87.43,470.8625 87.515,470.4725 87.805,470.2825 C88.09,470.0975 88.475,470.1775 88.67,470.4675 C90.5,473.2625 92.385,476.0475 94.265,478.7525 C94.465,479.0375 94.395,479.4275 94.11,479.6225 C94,479.6975 93.88,479.7375 93.755,479.7375 L93.755,479.7375 Z M356.86,486.8175 C356.67,486.8175 356.485,486.7325 356.365,486.5725 C356.155,486.2975 356.205,485.9075 356.48,485.6975 C359.135,483.6575 361.77,481.5675 364.3,479.4775 C364.565,479.2525 364.955,479.2925 365.175,479.5575 C365.395,479.8275 365.36,480.2175 365.095,480.4375 C362.55,482.5425 359.91,484.6425 357.24,486.6875 C357.125,486.7775 356.99,486.8175 356.86,486.8175 L356.86,486.8175 Z M105.69,495.8225 C105.51,495.8225 105.325,495.7425 105.2,495.5875 C103.18,493.0325 101.125,490.3525 99.09,487.6175 C98.885,487.3425 98.945,486.9475 99.22,486.7425 C99.5,486.5425 99.89,486.5975 100.1,486.8725 C102.12,489.5975 104.165,492.2675 106.18,494.8075 C106.395,495.0775 106.35,495.4725 106.08,495.6875 C105.965,495.7775 105.83,495.8225 105.69,495.8225 L105.69,495.8225 Z M340.575,498.4725 C340.375,498.4725 340.18,498.3725 340.055,498.1925 C339.865,497.9075 339.94,497.5175 340.23,497.3275 C343.01,495.4625 345.775,493.5475 348.45,491.6375 C348.725,491.4325 349.12,491.5025 349.32,491.7825 C349.52,492.0625 349.46,492.4575 349.18,492.6575 C346.495,494.5725 343.72,496.4925 340.925,498.3675 C340.82,498.4375 340.695,498.4725 340.575,498.4725 L340.575,498.4725 Z M323.64,509.1625 C323.425,509.1625 323.22,509.0525 323.1,508.8575 C322.925,508.5625 323.02,508.1775 323.32,507.9975 C326.23,506.2625 329.1,504.5075 331.845,502.7725 C332.14,502.5975 332.525,502.6775 332.71,502.9675 C332.89,503.2625 332.805,503.6475 332.515,503.8325 C329.755,505.5675 326.88,507.3325 323.96,509.0725 C323.86,509.1325 323.75,509.1625 323.64,509.1625 L323.64,509.1625 Z M118.7,511.0525 C118.535,511.0525 118.365,510.9825 118.245,510.8525 C116.02,508.4475 113.775,505.9175 111.575,503.3425 C111.355,503.0825 111.38,502.6825 111.645,502.4625 C111.91,502.2425 112.305,502.2675 112.525,502.5325 C114.715,505.0975 116.95,507.6075 119.16,510.0025 C119.395,510.2575 119.38,510.6525 119.125,510.8875 C119.005,510.9975 118.855,511.0525 118.7,511.0525 L118.7,511.0525 Z M306.205,519.0325 C305.98,519.0325 305.765,518.9125 305.655,518.7075 C305.49,518.4025 305.605,518.0225 305.905,517.8575 C308.855,516.2675 311.775,514.6575 314.665,513.0225 C314.965,512.8525 315.345,512.9575 315.52,513.2575 C315.685,513.5575 315.58,513.9375 315.28,514.1125 C312.385,515.7475 309.455,517.3625 306.5,518.9575 C306.405,519.0075 306.305,519.0325 306.205,519.0325 L306.205,519.0325 Z M132.94,525.1325 C132.79,525.1325 132.64,525.0775 132.525,524.9725 C130.07,522.7725 127.61,520.4525 125.22,518.0775 C124.97,517.8325 124.97,517.4375 125.215,517.1925 C125.455,516.9475 125.85,516.9475 126.095,517.1875 C128.475,519.5525 130.92,521.8525 133.36,524.0425 C133.615,524.2725 133.635,524.6675 133.405,524.9275 C133.28,525.0625 133.11,525.1325 132.94,525.1325 L132.94,525.1325 Z M288.405,528.2175 C288.175,528.2175 287.95,528.0925 287.845,527.8725 C287.69,527.5625 287.82,527.1825 288.125,527.0325 C291.125,525.5425 294.105,524.0425 297.06,522.5175 C297.36,522.3625 297.735,522.4825 297.9,522.7875 C298.055,523.0925 297.94,523.4725 297.63,523.6325 C294.67,525.1575 291.69,526.6625 288.68,528.1525 C288.59,528.1975 288.495,528.2175 288.405,528.2175 L288.405,528.2175 Z M270.32,536.8525 C270.085,536.8525 269.86,536.7175 269.755,536.4875 C269.61,536.1775 269.745,535.8025 270.06,535.6625 C273.095,534.2575 276.12,532.8375 279.12,531.4075 C279.425,531.2675 279.81,531.3925 279.955,531.7025 C280.105,532.0125 279.97,532.3875 279.66,532.5375 C276.65,533.9725 273.625,535.3875 270.58,536.7925 C270.5,536.8325 270.41,536.8525 270.32,536.8525 L270.32,536.8525 Z M148.575,537.6275 C148.455,537.6275 148.33,537.5875 148.22,537.5125 C145.545,535.6325 142.84,533.6025 140.185,531.4725 C139.915,531.2575 139.87,530.8625 140.085,530.5925 C140.31,530.3275 140.7,530.2825 140.965,530.4975 C143.6,532.6075 146.28,534.6275 148.935,536.4875 C149.22,536.6875 149.29,537.0775 149.09,537.3625 C148.97,537.5325 148.775,537.6275 148.575,537.6275 L148.575,537.6275 Z M252.08,545.0275 C251.84,545.0275 251.61,544.8875 251.505,544.6525 C251.37,544.3375 251.515,543.9675 251.83,543.8275 C254.89,542.4925 257.94,541.1475 260.97,539.7875 C261.285,539.6475 261.655,539.7875 261.795,540.1025 C261.935,540.4175 261.795,540.7875 261.485,540.9275 C258.445,542.2875 255.395,543.6375 252.33,544.9725 C252.25,545.0075 252.165,545.0275 252.08,545.0275 L252.08,545.0275 Z M165.755,547.8725 C165.66,547.8725 165.565,547.8525 165.475,547.8075 C162.54,546.3625 159.57,544.7475 156.645,542.9925 C156.35,542.8175 156.255,542.4325 156.43,542.1375 C156.605,541.8425 156.99,541.7425 157.29,541.9225 C160.185,543.6525 163.125,545.2575 166.03,546.6875 C166.34,546.8425 166.465,547.2125 166.315,547.5225 C166.205,547.7475 165.98,547.8725 165.755,547.8725 L165.755,547.8725 Z M233.615,552.7825 C233.36,552.7825 233.12,552.6225 233.03,552.3675 C232.91,552.0425 233.08,551.6825 233.405,551.5675 C234.855,551.0425 236.34,550.4625 237.82,549.8375 C239.425,549.1575 241.035,548.4775 242.64,547.7925 C242.955,547.6625 243.325,547.8025 243.46,548.1175 C243.595,548.4375 243.45,548.8075 243.135,548.9375 C241.525,549.6275 239.915,550.3125 238.305,550.9925 C236.805,551.6225 235.3,552.2125 233.83,552.7425 C233.76,552.7675 233.685,552.7825 233.615,552.7825 L233.615,552.7825 Z M184.43,554.9375 C184.38,554.9375 184.325,554.9275 184.275,554.9175 C181.1,554.0775 177.88,553.0375 174.7,551.8275 C174.375,551.7075 174.21,551.3425 174.335,551.0225 C174.46,550.6975 174.82,550.5375 175.14,550.6625 C178.285,551.8525 181.465,552.8825 184.59,553.7075 C184.925,553.7975 185.125,554.1375 185.035,554.4675 C184.96,554.7525 184.71,554.9375 184.43,554.9375 L184.43,554.9375 Z M214.16,557.3175 C213.84,557.3175 213.57,557.0775 213.535,556.7575 C213.5,556.4125 213.75,556.1075 214.09,556.0675 C217.355,555.7225 220.65,555.1625 223.88,554.4025 C224.23,554.3175 224.555,554.5375 224.63,554.8675 C224.715,555.2025 224.505,555.5425 224.17,555.6175 C220.885,556.3925 217.54,556.9575 214.225,557.3125 C214.2,557.3175 214.18,557.3175 214.16,557.3175 L214.16,557.3175 Z M204.16,557.7475 L204.15,557.7475 C200.835,557.6825 197.465,557.4025 194.125,556.9225 C193.785,556.8725 193.55,556.5575 193.6,556.2175 C193.645,555.8725 193.93,555.6275 194.305,555.6875 C197.59,556.1625 200.91,556.4325 204.175,556.4975 C204.515,556.5075 204.795,556.7925 204.785,557.1375 C204.78,557.4775 204.5,557.7475 204.16,557.7475 L204.16,557.7475 Z" id="Fill-6" fill="#D8D5DB"></path>
                    <g id="Group-10" transform="translate(45.000000, 78.310000)">
                        <mask id="mask-02vwvxskij-4" fill="white">
                            <use xlink:href="#path-02vwvxskij-3"></use>
                        </mask>
                        <g id="Clip-9"></g>
                        <path d="M340.55,416.3695 C337.75,417.1195 334.95,418.5695 332.7,421.1195 C331.4,422.6195 329.7,425.4195 328.2,428.3695 C327.85,418.2695 327.5,409.6695 327.15,404.3695 C328.1,404.2695 328.65,404.2695 328.65,404.2695 C328.65,403.0695 328.65,401.8695 328.6,400.5695 C328.35,376.2195 325.7,333.8695 322.2,291.6695 C323.45,294.2695 324.65,296.6695 325.8,298.8195 C325.85,299.5695 325.85,300.3195 326,301.1195 C327.85,311.2195 337.1,367.1195 339.8,400.8195 C340.3,406.8695 340.55,412.1695 340.55,416.3695 M362.8,293.1695 L362.8,293.0695 C359.9,283.6195 350.15,255.4695 339.05,227.5195 L351.35,223.3195 C351.35,223.3195 315.35,159.2695 294.3,145.1695 C294.25,145.1195 294.2,145.1195 294.15,145.0695 C286.75,138.1695 275.95,133.6695 259.8,131.8195 C259.7,118.4695 260.7,95.9695 261.85,78.7195 C270.15,76.8195 274.15,67.0695 274.7,64.9195 C275.85,60.5195 274.8,56.8695 272.65,54.5195 C273.3,49.0695 274.4,38.4695 274.1,29.3695 C273.85,21.0195 272.5,13.9695 268.6,13.1195 C268.65,12.9695 268.75,12.8695 268.8,12.7695 C270.1,8.6195 267.65,4.0195 267.55,3.8195 L265.35,5.0195 C265.95,6.0695 267.2,9.3695 266.4,11.9695 C262.7,7.8695 251.2,6.2195 238.3,6.4695 C220.25,6.7695 199.55,10.9195 193.95,17.4195 C190.05,21.9195 191.2,24.3695 195.25,25.4695 C194.65,29.6695 194.4,33.3195 194.3,36.6695 C193.7,38.2195 193.15,39.8195 192.6,41.5195 C191.15,42.5195 189.75,43.9695 188.7,46.2195 L191,47.2695 C191.05,47.1695 191.1,47.1195 191.15,47.0195 C190.55,49.5695 190,52.1695 189.6,55.0195 C185.1,86.0195 177.75,116.8695 208.5,117.2195 C208.45,120.7195 208.25,124.1195 207.9,127.3195 C207.65,129.8695 207.3,132.2695 206.85,134.4195 C195.15,137.2695 186,141.7695 179.65,147.8195 C157.05,166.4695 128.5,226.3695 128.5,226.3695 L138.1,231.1195 C131,244.9195 124,259.0195 118.75,270.4695 C94.45,253.6695 51.75,222.5195 39.15,208.8695 C39.15,208.8195 39.1,208.8195 39.05,208.7695 C39.55,203.5195 38.6,195.0195 37.2,190.2195 C37.2,190.1195 37.2,190.0195 37.15,189.8695 C37.05,189.6195 36.95,189.4695 36.9,189.2695 C36.8,188.9695 36.7,188.6195 36.6,188.3695 C36.35,187.7195 36.15,187.2695 35.95,186.8695 C32.6,179.4695 27.3,176.5695 24.15,166.7195 C22.5,161.4695 18.45,163.6195 16.9,167.1195 L5,140.5195 L1.75,141.9695 L17.05,176.3195 C13.45,174.7195 10.3,173.7695 8.15,174.5195 C5.2,175.5195 1.95,190.3695 3.35,195.6695 C4.75,200.9195 19.1,217.8195 24.45,220.7195 C24.85,220.9195 25.3,221.0695 25.7,221.1195 C34.35,233.2195 91.7,301.3195 114.75,313.1195 C129.05,320.3695 139.8,314.1195 143.35,304.8195 C147.95,297.4195 156.4,282.9695 165.6,266.2695 C162.6,312.7695 156.85,365.1695 146,401.9195 C147,402.0695 148.05,402.2195 149.1,402.3695 C146.05,417.6195 143.8,437.6695 142.2,458.0195 C153.5,462.8195 165,467.1695 176.6,471.0695 C228.35,488.5695 282.05,497.3195 328.75,494.4695 C329.5,492.1695 329.85,489.7695 329.8,487.2195 C329.55,477.2195 329.25,464.9695 328.95,452.8695 C331.45,459.3695 334.7,464.7195 337.3,466.0695 C340.05,467.4695 353.05,459.5195 355.9,454.7695 C358.7,450.1695 360.85,428.0695 359.2,422.1695 C359.1,421.7695 358.8,421.4695 358.6,421.1195 C359.2,417.8195 360.1,410.6195 361.1,401.2195 C364.3,369.5195 368.1,312.5695 362.8,293.1695" id="Fill-8" fill="#D1CDD3" mask="url(#mask-02vwvxskij-4)"></path>
                    </g>
                    <path d="M280.106,275.5705 L247.511,254.3005 C247.511,254.3005 215.116,313.9155 199.141,348.7955 C174.856,331.9805 132.156,300.8455 119.551,287.1655 C119.516,287.1305 119.481,287.1105 119.446,287.0755 C119.941,281.8155 118.991,273.3405 117.606,268.5355 C117.576,268.4105 117.571,268.3105 117.526,268.1755 C117.456,267.9505 117.361,267.7705 117.286,267.5555 C117.186,267.2755 117.096,266.9205 116.996,266.6805 C116.731,266.0355 116.526,265.5655 116.341,265.1605 C112.991,257.8055 107.681,254.8655 104.551,245.0455 C102.371,238.1905 96.086,243.9405 96.706,248.8855 C96.706,248.8855 97.641,252.0955 98.696,255.1855 C94.541,253.2055 90.951,252.0055 88.531,252.8205 C85.601,253.8055 82.326,268.6755 83.731,273.9905 C85.111,279.2205 99.481,296.1305 104.861,299.0405 C105.251,299.2505 105.661,299.3655 106.081,299.4305 C114.756,311.5455 172.106,379.6505 195.161,391.4105 C209.441,398.6955 220.166,392.4205 223.751,383.1405 C234.651,365.4455 267.636,307.8555 280.106,275.5705" id="Fill-11" fill="#FFAD69"></path>
                    <path d="M284.542,238.945 C289.482,263.795 269.622,334.51 269.622,334.51 L208.872,304.695 C208.872,304.695 271.512,173.39 284.542,238.945" id="Fill-13" fill="#EA3939"></path>
                    <path d="M410.201,565.529 C410.201,566.329 410.201,567.129 410.101,567.929 C398.651,570.429 386.451,572.079 373.751,572.779 C327.051,575.629 273.351,566.879 221.601,549.379 C223.401,522.679 226.201,494.829 230.501,476.029 L373.601,478.879 L384.801,479.129 L406.101,479.529 L407.351,479.579 C408.351,490.979 409.551,537.129 410.201,565.529" id="Fill-15" fill="#232323"></path>
                    <path d="M328.4675,209.2965 C367.7375,210.5915 381.0125,223.8465 387.7825,246.7715 C395.4675,272.8015 409.0075,430.0215 409.0075,482.5565 C409.0075,482.5565 291.4875,490.8815 226.3825,480.2115 C246.7925,411.2615 249.0025,287.2765 249.4125,250.3415 C249.7175,222.6265 278.6825,207.6515 328.4675,209.2965" id="Fill-17" fill="#FF4E4A"></path>
                    <path d="M293.873,145.007 C290.003,142.097 269.823,144.737 275.638,103.652 C277.753,88.662 291.833,98.667 301.798,100.667 C311.763,102.667 305.428,145.747 305.428,145.747 L293.873,145.007 Z" id="Fill-19" fill="#232323"></path>
                    <path d="M344.117,135.1655 C342.442,146.0555 339.092,204.9755 340.487,218.6555 C341.882,232.3405 275.702,236.2505 284.357,221.1705 C293.017,206.0905 286.872,156.1055 286.872,156.1055 L344.117,135.1655 Z" id="Fill-21" fill="#FFAD69"></path>
                    <path d="M339.5345,136.8305 L286.8795,156.1105 C286.8795,156.1105 290.4345,185.2255 288.2895,205.7205 C328.4395,202.6155 338.7445,151.9055 339.4245,142.1405 C339.5345,140.3005 339.5895,138.5255 339.5345,136.8305" id="Fill-23" fill="#D88344"></path>
                    <path d="M269.974,133.3125 C265.094,166.9475 256.809,200.4825 297.579,194.9625 C338.354,189.4425 344.689,137.1675 344.569,127.3075 C343.934,74.6925 279.569,67.1725 269.974,133.3125" id="Fill-25" fill="#FFAD69"></path>
                    <path d="M348.9655,91.4105 C349.0155,91.2805 349.1255,91.1905 349.1705,91.0605 C350.4955,86.9355 348.0555,82.3405 347.9505,82.1455 L345.7505,83.3305 C345.7705,83.3705 347.7705,87.1755 346.7905,90.2705 C337.8605,80.4055 283.9155,84.6105 274.3205,95.7555 C262.1305,109.9155 299.6205,103.5305 320.7455,99.9555 C323.7055,112.3255 337.1155,132.8105 340.9805,135.7205 L352.5355,136.4655 C352.5355,136.4655 358.8405,93.5805 348.9655,91.4105" id="Fill-27" fill="#232323"></path>
                    <path d="M438.9875,499.4135 C441.5775,485.0235 450.1075,396.6285 443.2025,371.4985 C443.1925,371.4585 443.1975,371.4185 443.1875,371.3735 C438.3675,355.6435 414.4325,287.8385 397.1025,255.7335 L359.7575,266.6935 C359.7575,266.6935 391.0125,348.2635 406.1675,377.1135 C406.2125,377.8885 406.2125,378.6485 406.3625,379.4485 C408.5925,391.3485 421.0525,466.8535 420.9125,494.6635 C418.1525,495.4335 415.3425,496.8835 413.1075,499.4335 C410.2625,502.6835 405.3025,512.0185 405.6525,516.1585 C406.6475,527.9735 413.2125,542.0485 417.7075,544.3735 C420.4575,545.7935 433.4175,537.8085 436.2625,533.1035 C439.0625,528.4735 441.2225,506.3885 439.5725,500.4985 C439.4625,500.0935 439.1925,499.7685 438.9875,499.4135" id="Fill-29" fill="#FFAD69"></path>
                    <path d="M374.6885,223.486 C395.7535,237.566 431.7135,301.611 431.7135,301.611 L367.6785,323.486 C367.6785,323.486 319.1185,186.346 374.6885,223.486" id="Fill-31" fill="#FF4E4A"></path>
                    <path d="M304.3075,131.6475 C304.4375,133.2875 303.5525,134.6925 302.3225,134.7925 C301.0925,134.8875 299.9925,133.6425 299.8625,132.0025 C299.7275,130.3675 300.6175,128.9575 301.8475,128.8625 C303.0725,128.7625 304.1725,130.0075 304.3075,131.6475" id="Fill-33" fill="#232323"></path>
                    <path d="M278.336,132.336 C278.466,133.976 277.581,135.381 276.351,135.481 C275.126,135.576 274.021,134.331 273.891,132.696 C273.756,131.056 274.646,129.646 275.876,129.551 C277.101,129.451 278.206,130.696 278.336,132.336" id="Fill-35" fill="#232323"></path>
                    <path d="M310.694,122.4455 C307.219,117.1105 301.239,118.3805 301.179,118.3905 L300.629,115.9505 C300.944,115.8855 308.374,114.3105 312.789,121.0805 L310.694,122.4455 Z" id="Fill-37" fill="#232323"></path>
                    <path d="M271.38,125.561 L269.11,124.521 C272.48,117.166 280.055,117.641 280.375,117.656 L280.2,120.151 C279.965,120.136 274.02,119.821 271.38,125.561" id="Fill-39" fill="#232323"></path>
                    <path d="M295.9605,162.6165 C294.3005,162.6165 293.2505,162.4315 293.2105,162.4215 L293.6655,159.9665 C294.1255,160.0515 305.1005,161.9115 311.2155,151.7365 L313.3555,153.0265 C308.3105,161.4165 300.1855,162.6165 295.9605,162.6165" id="Fill-41" fill="#232323"></path>
                    <polygon id="Fill-43" fill="#D88344" points="276.739 151.2225 283.099 129.5425 285.494 130.2425 280.089 148.6775 288.844 148.5625 288.879 151.0625"></polygon>
                    <polygon id="Fill-45" fill="#232323" points="114.7615 284.682 111.4915 286.142 82.1415 220.287 85.4065 218.827"></polygon>
                    <path d="M334.2295,139.4455 C330.5445,147.7455 325.9345,155.7755 337.4995,157.2655 C349.0645,158.7605 354.4445,145.7755 355.0995,143.2305 C358.5945,129.6605 341.4695,123.1255 334.2295,139.4455" id="Fill-47" fill="#FFAD69"></path>
                    <path d="M161.2265,0.002 L43.5715,0.002 C39.4715,0.002 36.1465,3.322 36.1465,7.422 L36.1465,49.317 C36.1465,53.417 39.4715,56.742 43.5715,56.742 L50.7365,56.742 L58.8165,67.537 C60.6115,69.937 64.3765,69.222 65.1715,66.332 L67.7915,56.742 L161.2265,56.742 C165.3265,56.742 168.6465,53.417 168.6465,49.317 L168.6465,7.422 C168.6465,3.322 165.3265,0.002 161.2265,0.002" id="Fill-49" fill="#4D8DFF"></path>
                    <mask id="mask-02vwvxskij-6" fill="white">
                        <use xlink:href="#path-02vwvxskij-5"></use>
                    </mask>
                    <g id="Clip-52"></g>
                    <polygon id="Fill-51" fill="#FFFFFF" mask="url(#mask-02vwvxskij-6)" points="47.705 13.495 151.73 13.495 151.73 10.995 47.705 10.995"></polygon>
                    <polygon id="Fill-53" fill="#FFFFFF" mask="url(#mask-02vwvxskij-6)" points="47.705 25.325 116.395 25.325 116.395 22.825 47.705 22.825"></polygon>
                    <polygon id="Fill-54" fill="#FFFFFF" mask="url(#mask-02vwvxskij-6)" points="47.705 37.155 133.565 37.155 133.565 34.655 47.705 34.655"></polygon>
                    <path d="M133.5655,140.1925 L43.5705,140.1925 C39.4705,140.1925 36.1505,143.5175 36.1505,147.6125 L36.1505,189.5075 C36.1505,193.6075 39.4705,196.9325 43.5705,196.9325 L50.7355,196.9325 L58.8155,207.7275 C60.6105,210.1275 64.3805,209.4125 65.1705,206.5225 L67.7905,196.9325 L133.5655,196.9325 C137.6655,196.9325 140.9855,193.6075 140.9855,189.5075 L140.9855,147.6125 C140.9855,143.5175 137.6655,140.1925 133.5655,140.1925" id="Fill-55" fill="#FF4E4A" mask="url(#mask-02vwvxskij-6)"></path>
                    <polygon id="Fill-56" fill="#FFFFFF" mask="url(#mask-02vwvxskij-6)" points="47.705 153.685 95.59 153.685 95.59 151.185 47.705 151.185"></polygon>
                    <polygon id="Fill-57" fill="#FFFFFF" mask="url(#mask-02vwvxskij-6)" points="105.5 153.685 122.01 153.685 122.01 151.185 105.5 151.185"></polygon>
                    <polygon id="Fill-58" fill="#FFFFFF" mask="url(#mask-02vwvxskij-6)" points="47.705 165.515 81.72 165.515 81.72 163.015 47.705 163.015"></polygon>
                    <polygon id="Fill-59" fill="#FFFFFF" mask="url(#mask-02vwvxskij-6)" points="47.705 177.345 113.42 177.345 113.42 174.845 47.705 174.845"></polygon>
                    <path d="M103.4285,70.058 L212.9985,70.058 C217.0935,70.058 220.4135,73.383 220.4135,77.478 L220.4135,119.378 C220.4135,123.473 217.0935,126.798 212.9985,126.798 L205.8285,126.798 L197.7485,137.598 C195.9535,139.993 192.1835,139.278 191.3985,136.388 L188.7735,126.798 L103.4285,126.798 C99.3285,126.798 96.0085,123.473 96.0085,119.378 L96.0085,77.478 C96.0085,73.383 99.3285,70.058 103.4285,70.058" id="Fill-60" fill="#FFC84D" mask="url(#mask-02vwvxskij-6)"></path>
                    <polygon id="Fill-61" fill="#FFFFFF" mask="url(#mask-02vwvxskij-6)" points="164.94 83.55 208.86 83.55 208.86 81.05 164.94 81.05"></polygon>
                    <polygon id="Fill-62" fill="#FFFFFF" mask="url(#mask-02vwvxskij-6)" points="113.425 95.385 208.86 95.385 208.86 92.885 113.425 92.885"></polygon>
                    <polygon id="Fill-63" fill="#FFFFFF" mask="url(#mask-02vwvxskij-6)" points="161.97 107.215 208.86 107.215 208.86 104.715 161.97 104.715"></polygon>
                    <polygon id="Fill-64" fill="#FFFFFF" mask="url(#mask-02vwvxskij-6)" points="132.575 107.215 154.04 107.215 154.04 104.715 132.575 104.715"></polygon>
                    <path d="M293.4385,276.8205 C274.3235,276.8205 258.7685,292.3755 258.7685,311.4905 C258.7685,330.6105 274.3235,346.1655 293.4385,346.1655 C312.5585,346.1655 328.1135,330.6105 328.1135,311.4905 C328.1135,292.3755 312.5585,276.8205 293.4385,276.8205 M293.4385,348.6655 C272.9435,348.6655 256.2685,331.9905 256.2685,311.4905 C256.2685,290.9955 272.9435,274.3205 293.4385,274.3205 C313.9385,274.3205 330.6135,290.9955 330.6135,311.4905 C330.6135,331.9905 313.9385,348.6655 293.4385,348.6655" id="Fill-65" fill="#FFFFFF" mask="url(#mask-02vwvxskij-6)"></path>
                </g>
            </g>
        </g>
    </g>
</svg>