
<svg width="605px" height="496px" viewBox="0 0 605 496" version="1.1" xmlns="http://www.w3.org/2000/svg" xmlns:xlink="http://www.w3.org/1999/xlink">
    <defs>
        <polygon id="path-s-gzctcbrr-1" points="1.15717597 0.94660121 171.043311 0.94660121 171.043311 84.1817699 1.15717597 84.1817699"></polygon>
    </defs>
    <g id="Page-1" stroke="none" stroke-width="1" fill="none" fill-rule="evenodd">
        <g id="01-Productly" transform="translate(-666.000000, -128.000000)">
            <g id="02-Header" transform="translate(145.000000, 128.000000)">
                <g id="Image" transform="translate(521.000000, 0.000000)">
                    <path d="M242.647821,465.954057 C365.90648,453.421335 467.927429,363.112695 512.630176,248 C557.332923,132.887305 389.026336,34.8284001 267.802427,29.210408 C146.578518,23.5924159 53,131.29674 53,253.973714 C53,376.650688 119.389161,478.48678 242.647821,465.954057 Z" id="Oval" fill="#FFE5D2" transform="translate(286.500000, 248.000000) scale(-1, 1) translate(-286.500000, -248.000000) "></path>
                    <g id="image">
                        <path d="M482.00132,343.693662 C482.102153,343.635068 482.730318,344.464914 483.659619,346.098716 C484.593009,347.727068 485.753955,350.200255 486.833144,353.391552 C489.044664,359.752343 490.433167,369.142277 489.610149,379.382497 C488.793944,389.621354 486.427086,398.60931 484.601185,405.006892 C482.733043,411.4072 481.358167,415.292079 481.121072,415.226673 C480.85945,415.154453 481.78739,411.134673 483.320329,404.671684 C484.813752,398.210057 486.944878,389.269793 487.743369,379.240782 C488.545948,369.214497 487.404079,360.088914 485.56864,353.779903 C483.786342,347.439552 481.706995,343.846277 482.00132,343.693662" id="Fill-1" fill="#FFFFFF"></path>
                        <path d="M488.31008,292.449776 C488.427265,292.397996 489.187602,293.789248 490.456195,296.355095 C491.723425,298.920941 493.504359,302.660018 495.610958,307.325688 C499.790091,316.657029 505.414956,329.71927 509.494618,344.884062 C511.500384,352.469864 512.867084,359.844457 513.559292,366.616765 C514.256949,373.38771 514.327805,379.540018 513.978976,384.674435 C513.641048,389.811578 512.992445,393.933556 512.368368,396.736501 C511.751105,399.544897 511.261927,401.057424 511.151555,401.03319 C510.805452,400.966127 512.33294,394.783842 512.657242,384.613116 C513.060575,374.462831 511.72794,360.360897 507.685069,345.366435 C503.651735,330.366523 498.257152,317.297468 494.395508,307.850303 C492.45106,303.123314 490.878605,299.297029 489.789877,296.652149 C488.727039,293.996369 488.191533,292.502919 488.31008,292.449776" id="Fill-3" fill="#FFFFFF"></path>
                        <path d="M254.833494,352.594818 C255.05015,352.827829 252.927199,354.852708 250.171997,358.612224 C249.487965,359.556532 248.745341,360.589411 248.050409,361.769455 C247.290071,362.905895 246.629204,364.209938 245.893393,365.556224 C244.52533,368.300576 243.22676,371.419653 242.22524,374.815345 C241.267323,378.223301 240.708652,381.554949 240.407515,384.607257 C240.31622,386.137499 240.182684,387.594158 240.220837,388.959521 C240.182684,390.328971 240.261715,391.600312 240.338021,392.764004 C240.671861,397.41196 241.394046,400.255785 241.086096,400.338905 C240.899418,400.402949 239.71122,397.655873 239.021738,392.898905 C238.856861,391.710686 238.698798,390.405279 238.668821,388.992224 C238.562537,387.580532 238.638843,386.07073 238.686535,384.480532 C238.901828,381.311037 239.430521,377.834949 240.426591,374.297543 C241.464902,370.771037 242.864305,367.547037 244.369992,364.74818 C245.173934,363.374642 245.911107,362.055609 246.753202,360.917807 C247.528528,359.7364 248.358359,358.714422 249.129598,357.796004 C252.243168,354.134598 254.710859,352.442202 254.833494,352.594818" id="Fill-5" fill="#FFFFFF"></path>
                        <path d="M259.816296,369.000971 C259.972997,369.251697 258.790249,370.156488 257.245046,371.887037 C256.462907,372.741411 255.638526,373.849235 254.827771,375.13284 C254.051082,376.438246 253.307096,377.935785 252.722535,379.587301 C252.163864,381.246993 251.827298,382.884884 251.63517,384.393323 C251.481195,385.903125 251.44713,387.282114 251.537062,388.438993 C251.686949,390.752752 252.061668,392.195785 251.782332,392.29662 C251.582028,392.381103 250.739934,391.060708 250.224866,388.614774 C249.956431,387.395213 249.84606,385.901763 249.915553,384.247521 C250.024562,382.59873 250.340688,380.79051 250.952501,378.97684 C251.588841,377.171345 252.455463,375.553895 253.386127,374.187169 C254.349494,372.840884 255.357828,371.734422 256.319832,370.940004 C258.23294,369.329367 259.710012,368.80884 259.816296,369.000971" id="Fill-7" fill="#FFFFFF"></path>
                        <path d="M190.645038,216.107473 C190.741784,216.022989 191.579791,216.847385 193.017347,218.419868 C193.747707,219.197934 194.610241,220.17767 195.523191,221.38633 C196.44568,222.584088 197.554847,223.914022 198.595883,225.512396 C199.132752,226.301363 199.696874,227.127121 200.282797,227.988308 C200.86327,228.854945 201.389239,229.803341 201.975162,230.761275 C203.174261,232.663516 204.249363,234.811033 205.418484,237.051209 C207.625917,241.595604 209.736604,246.753187 211.418068,252.344088 C213.045027,257.951341 214.077887,263.429143 214.695151,268.442286 C214.930883,270.959077 215.19523,273.346418 215.222482,275.593407 C215.251097,276.71622 215.324678,277.798154 215.308327,278.841934 C215.285162,279.882989 215.260635,280.881802 215.238833,281.835648 C215.233383,283.746066 215.024903,285.462989 214.902268,286.971429 C214.791896,288.481231 214.601131,289.771648 214.410365,290.820879 C214.058811,292.923429 213.804002,294.070769 213.675917,294.053257 C213.346164,294.009451 213.967516,289.350593 213.915736,281.822022 C213.898023,280.88044 213.881671,279.896615 213.863957,278.869187 C213.842155,277.843121 213.733146,276.777538 213.671829,275.675165 C213.579171,273.46633 213.26032,271.123956 212.983709,268.65622 C212.281964,263.741187 211.219126,258.379209 209.622144,252.875516 C207.970658,247.388176 205.949903,242.308264 203.866468,237.800659 C202.758664,235.57956 201.751694,233.44022 200.630264,231.535253 C200.081131,230.575956 199.593315,229.623473 199.055083,228.750022 C198.511401,227.879297 197.990883,227.042637 197.493529,226.244132 C193.445207,219.895604 190.39023,216.324132 190.645038,216.107473" id="Fill-9" fill="#FFFFFF"></path>
                        <path d="M211.844702,224.878769 C212.004127,224.737055 214.15433,226.748308 216.889093,230.625011 C218.265332,232.554505 219.715152,234.986813 221.126819,237.791121 C222.497607,240.614505 223.805715,243.820791 224.849476,247.295516 C225.861898,250.77978 226.505051,254.183648 226.889307,257.298637 C227.227235,260.42044 227.332157,263.249275 227.22451,265.617538 C227.035107,270.356791 226.322461,273.214242 226.112618,273.181816 C225.811481,273.144747 226.052663,270.251868 225.900051,265.616176 C225.838733,263.299692 225.600276,260.548527 225.179229,257.523473 C224.711852,254.503868 224.035997,251.211736 223.054916,247.826945 C222.039769,244.451692 220.817506,241.320352 219.569352,238.532396 C218.278958,235.762154 216.984476,233.324396 215.777202,231.344484 C213.385816,227.371033 211.613057,225.073626 211.844702,224.878769" id="Fill-11" fill="#FFFFFF"></path>
                        <polygon id="Fill-13" fill="#FF7B5B" points="137.610929 378.076273 135.981244 374.748712 90.6116948 409.414207 110.405006 441.479789 155.567438 403.400888"></polygon>
                        <polygon id="Fill-15" fill="#D7D4D4" points="92.5129482 410.155481 109.901248 440.226163 111.01314 439.730163 95.5284099 411.613503"></polygon>
                        <path d="M136.714739,377.417574 L92.5129482,410.154936 C92.5129482,410.154936 92.6982635,410.858057 93.7951667,411.291376 C94.8934324,411.724695 95.5284099,411.614321 95.5284099,411.614321 L141.99895,379.809002 C141.99895,379.809002 139.320054,379.186277 138.348511,378.461354 C137.375606,377.733705 136.714739,377.417574 136.714739,377.417574" id="Fill-17" fill="#F5F3F3"></path>
                        <path d="M143.135233,378.526079 L94.6984426,410.879178 L110.429805,440.693684 L112.964265,444.822475 L161.402418,408.972848 C161.402418,408.972848 156.300796,401.358431 153.237643,396.760892 C150.17449,392.163354 144.16128,381.320848 143.834253,380.625903 C143.505864,379.930958 143.135233,378.526079 143.135233,378.526079" id="Fill-19" fill="#FF7B5B"></path>
                        <polygon id="Fill-21" fill="#775298" points="542.57967 155.165969 543.947733 152.3712 582.046382 181.481222 565.425233 208.408299 527.500999 176.431288"></polygon>
                        <polygon id="Fill-23" fill="#D7D4D4" points="580.450081 182.103402 565.849687 207.354435 564.914935 206.938831 577.918347 183.328413"></polygon>
                        <path d="M543.332786,154.611785 L580.450354,182.102993 C580.450354,182.102993 580.293653,182.693015 579.37389,183.05684 C578.451401,183.420664 577.917257,183.328004 577.917257,183.328004 L538.894757,156.620312 C538.894757,156.620312 541.14443,156.098422 541.960635,155.48796 C542.77684,154.877499 543.332786,154.611785 543.332786,154.611785" id="Fill-25" fill="#F5F3F3"></path>
                        <path d="M537.940928,155.543965 L578.614914,182.710866 L565.405748,207.747965 L563.277347,211.214514 L522.600635,181.109767 C522.600635,181.109767 526.886052,174.71491 529.457302,170.854558 C532.031277,166.994207 537.079757,157.889064 537.353642,157.305855 C537.62889,156.724009 537.940928,155.543965 537.940928,155.543965" id="Fill-27" fill="#775298"></path>
                        <path d="M83.44517,102.77229 C83.44517,102.77229 80.5686948,104.763103 82.0062511,108.082488 C83.44517,111.401873 89.7513412,121.24829 98.2703953,120.915807 C98.6192241,120.903543 87.5384583,102.77229 87.5384583,102.77229 L83.44517,102.77229 Z" id="Fill-29" fill="#FF7B5B"></path>
                        <path d="M70.413143,284.293846 C70.413143,284.293846 59.7602376,274.777187 56.3496182,276.481846 C52.1827489,278.565319 28.3329403,301.933187 29.2649673,312.941934 C29.6478615,317.450901 34.8966453,313.587824 44.2496182,303.885846 C53.6053164,294.185231 65.3851025,298.342637 65.3851025,298.342637 L70.413143,284.293846 Z" id="Fill-31" fill="#775298"></path>
                        <path d="M96.2954245,300.343398 L83.4350867,292.628145 C83.4350867,292.628145 50.1001318,323.880233 55.3080372,328.047178 C59.2582511,331.207134 61.580143,328.372848 70.9344786,318.67087 C80.2874516,308.971618 92.1380935,314.548892 92.1380935,314.548892 L96.2954245,300.343398 Z" id="Fill-33" fill="#775298"></path>
                        <polygon id="Fill-35" fill="#F3A683" points="174.853857 197.525596 177.265681 231.771398 123.731357 217.824804"></polygon>
                        <path d="M123.731357,219.003077 C123.731357,219.003077 170.558902,221.954549 176.794217,219.873802 C176.794217,219.873802 185.945524,309.776527 169.662303,319.47578 C153.37772,329.177758 116.835175,314.972264 116.835175,314.972264 L126.701852,295.571033 L147.974961,294.185231 L147.974961,259.540176 L146.448834,259.886286 L123.731357,219.003077 Z" id="Fill-37" fill="#112129"></path>
                        <path d="M65.0319133,280.327073 C65.0319133,280.327073 53.2534899,285.178062 57.0647173,296.958062 C57.0647173,296.958062 97.2713277,328.485402 116.83572,321.208919 C127.796575,317.13327 139.570911,286.03516 147.807904,259.466457 L176.794762,219.873666 C176.794762,219.873666 163.12367,220.55771 158.563006,220.539996 C149.846373,220.507292 123.731902,219.002941 123.731902,219.002941 C123.731902,219.002941 110.090787,290.37516 105.230348,292.107073 C100.369909,293.837622 65.0319133,280.327073 65.0319133,280.327073" id="Fill-39" fill="#22343D"></path>
                        <path d="M134.643568,129.486796 C134.643568,129.486796 162.707937,103.155191 167.557475,96.2248176 C172.407014,89.2958066 182.803748,66.0832791 195.619119,56.3826637 L189.383804,43.2168615 C189.383804,43.2168615 193.196394,41.1388396 195.619119,46.6806857 C195.619119,46.6806857 204.625989,28.6666198 206.705336,29.011367 C208.786045,29.3574769 202.549367,42.8707516 202.549367,42.8707516 C202.549367,42.8707516 211.212858,30.3971692 213.636946,30.7446418 C216.059671,31.0907516 207.400268,44.7661802 207.400268,44.7661802 C207.400268,44.7661802 217.099345,33.5162462 218.486484,34.9020484 C219.872261,36.2878505 210.864029,44.7661802 210.864029,44.7661802 C210.864029,44.7661802 220.564468,39.1970813 221.604142,41.0325538 C222.643815,42.8707516 211.903703,47.720378 211.903703,47.720378 C211.903703,47.720378 210.864029,55.6890813 204.28261,59.1529055 C204.28261,59.1529055 191.249221,94.3661802 179.469435,105.798708 L141.62832,145.127147 L134.643568,129.486796 Z" id="Fill-41" fill="#FFC6B2"></path>
                        <path d="M101.143055,143.133745 C101.143055,143.133745 74.55167,170.950624 67.5778187,175.734844 C60.6026047,180.517701 37.295116,190.697965 27.4761295,203.424998 L14.3691588,197.065569 C14.3691588,197.065569 12.2557466,200.856426 17.7756903,203.332338 C17.7756903,203.332338 -0.323893018,212.171767 0.00449662162,214.25524 C0.330161036,216.337349 13.90042,210.227284 13.90042,210.227284 C13.90042,210.227284 1.34667005,218.773745 1.67097185,221.200602 C1.99527365,223.627459 15.7494854,215.094624 15.7494854,215.094624 C15.7494854,215.094624 4.4098232,224.688954 5.78333671,226.08702 C7.154125,227.486448 15.7181453,218.559811 15.7181453,218.559811 C15.7181453,218.559811 10.0578525,228.207284 11.8864786,229.263327 C13.7123795,230.319371 18.6627511,219.625393 18.6627511,219.625393 C18.6627511,219.625393 26.6394854,218.663371 30.1672894,212.111811 C30.1672894,212.111811 63.5199583,198.841086 75.0640124,187.168734 L116.569193,157.758932 L101.143055,143.133745 Z" id="Fill-43" fill="#FFC6B2"></path>
                        <path d="M111.111929,132.047055 L97.6629426,145.212857 L101.073562,160.054703 C101.073562,160.054703 114.323607,191.865473 116.326648,199.625692 C119.440217,211.693209 114.404001,230.092901 114.404001,230.092901 C114.404001,230.092901 136.86667,228.227451 157.305859,227.535231 C177.743686,226.841648 184.430026,220.257385 184.430026,220.257385 C184.430026,220.257385 166.709249,161.23611 154.47435,144.737297 C142.238089,128.241209 137.787796,123.076813 137.787796,123.076813 L119.772695,127.014835 L111.111929,132.047055 Z" id="Fill-45" fill="#FFFFFF"></path>
                        <path d="M150.582456,142.791859 L164.595564,133.837969 C164.595564,133.837969 166.736229,124.245002 149.837107,112.929662 L130.020632,125.347376 L150.582456,142.791859 Z" id="Fill-47" fill="#FFFFFF"></path>
                        <path d="M100.497041,144.171802 C92.8146306,145.249648 78.7756329,164.720374 77.209991,164.683582 C77.209991,164.683582 87.090295,180.80767 94.9171419,181.330923 C94.9171419,181.330923 129.359901,140.123407 100.497041,144.171802" id="Fill-49" fill="#FFFFFF"></path>
                        <path d="M127.61562,131.502818 C127.61562,131.502818 116.44901,123.159389 116.835992,119.833191 C116.9341,118.995169 118.482028,117.635257 118.883999,116.42796 C121.04919,109.932268 110.610215,93.1949934 104.196398,89.6671253 C99.150643,86.8927956 101.362163,86.6475209 90.7433232,92.9578945 C80.1244831,99.2682681 86.1744831,110.180268 90.916375,115.824312 C95.3993705,121.159037 100.533695,123.44418 105.152952,123.829807 L111.720744,138.418202 L127.61562,131.502818 Z" id="Fill-51" fill="#FFC6B2"></path>
                        <path d="M107.466532,143.084554 C105.354482,137.903807 109.35375,131.378136 116.39982,128.504334 C123.448615,125.629169 130.870766,127.498708 132.986903,132.67673 C135.09759,137.856114 128.006554,145.642224 124.048164,147.256949 C120.089775,148.871675 109.577218,148.262576 107.466532,143.084554" id="Fill-53" fill="#FFC6B2"></path>
                        <path d="M90.91692,115.824448 C90.91692,115.824448 87.2950957,115.624141 86.893125,118.037371 C86.4897917,120.451965 93.5317736,120.451965 96.1479899,118.64102 L90.91692,115.824448 Z" id="Fill-55" fill="#FFC6B2"></path>
                        <path d="M92.7279685,118.037508 C92.0398491,113.675705 87.3919775,110.432629 87.6236216,106.182563 C89.8514932,106.200277 91.2822365,103.440936 90.2684527,101.082211 C89.8692072,100.155618 89.1933514,99.3625626 88.7614032,98.448233 C88.3308176,97.5352659 88.2163581,96.3388703 88.8772252,95.8224308 C89.1906261,95.5785187 89.6143986,95.5362769 90.0204572,95.4953978 C93.3234302,95.1561011 98.9823604,96.1467385 102.022349,95.0198374 C104.916538,93.9474418 108.017845,91.861244 107.716707,88.3156615 C107.453723,85.2279253 104.727135,82.7247604 102.222653,80.8334198 C100.787822,79.7487604 96.6877207,76.9131121 95.1411554,77.1706505 C92.7797477,77.5630901 92.2074505,80.7135077 92.0371239,83.350211 C90.3856374,81.7777275 87.949286,82.0298154 86.5130923,83.3093319 C85.0768986,84.5888484 84.396955,86.6219033 83.7715158,88.5841011 C83.144714,90.5476615 82.4811216,92.586167 81.0640045,93.890211 C79.7436329,95.1056835 77.6547477,96.0254637 77.9286329,98.0925846 C78.2542973,100.556233 81.4727883,101.432409 82.9607613,103.533596 C82.5942185,103.018519 82.2835428,106.307925 82.4947477,106.865244 C83.1297252,108.545376 84.7144437,109.657288 85.8604009,110.942255 C88.3008401,113.681156 89.4944887,116.439134 92.7279685,118.037508" id="Fill-57" fill="#FF7B5B"></path>
                        <path d="M112.960858,108.06382 L104.708876,112.3316 C104.708876,112.3316 114.62052,119.526325 112.960858,108.06382" id="Fill-59" fill="#FFFFFF"></path>
                        <path d="M101.608115,109.755807 C102.05914,110.611543 101.391459,111.848818 100.117417,112.519235 C98.8433739,113.189653 97.4453333,113.039763 96.9943086,112.184026 C96.5446464,111.32829 97.210964,110.092378 98.4850068,109.420598 C99.7604122,108.75018 101.15709,108.90007 101.608115,109.755807" id="Fill-61" fill="#FFB2A0"></path>
                        <path d="M113.657426,101.524796 C114.10845,102.380532 113.44077,103.617807 112.166727,104.288224 C110.892685,104.958642 109.494644,104.808752 109.043619,103.953015 C108.593957,103.097279 109.260275,101.860004 110.534318,101.189587 C111.809723,100.519169 113.206401,100.669059 113.657426,101.524796" id="Fill-63" fill="#FFB2A0"></path>
                        <path d="M107.200413,107.761178 C107.16226,107.713486 107.316235,107.510453 107.67324,107.252914 C108.013893,106.989925 108.60663,106.706497 109.046753,106.232299 C109.482789,105.77309 109.63949,104.815156 108.97181,104.680255 C108.27824,104.444519 107.49065,105.240299 106.587238,105.996563 C106.363769,106.181881 106.143026,106.365837 105.923645,106.547068 C105.719253,106.735112 105.288668,107.010365 104.841731,106.954497 C103.990098,106.81687 103.627643,106.248651 103.300616,105.868475 C102.646562,105.02909 102.243229,104.150189 102.01976,103.389837 C101.576911,101.852782 101.775852,100.860782 101.882136,100.868908 C102.030661,100.862145 102.079715,101.815991 102.642474,103.167727 C102.925898,103.839508 103.34967,104.602585 103.966934,105.32342 C104.268071,105.688607 104.646877,106.029266 104.916675,106.040167 C105.029771,106.045618 105.118341,106.007464 105.330909,105.828958 C105.547564,105.647727 105.765582,105.463771 105.986325,105.278453 C106.441438,104.910541 106.835233,104.538541 107.355751,104.192431 C107.86128,103.851771 108.582102,103.636475 109.227981,103.855859 C109.917463,104.03709 110.322159,104.841046 110.202249,105.399727 C110.12458,105.96931 109.841157,106.389002 109.51958,106.695596 C108.839636,107.263815 108.231911,107.401442 107.849017,107.573134 C107.456584,107.721662 107.241292,107.814321 107.200413,107.761178" id="Fill-65" fill="#FF7B5B"></path>
                        <path d="M105.153088,123.829943 C105.153088,123.829943 110.41686,123.859921 113.272896,122.100756 C113.272896,122.100756 110.856984,125.06858 106.022435,125.837108 L105.153088,123.829943 Z" id="Fill-67" fill="#FFA192"></path>
                        <path d="M107.435873,100.224022 C107.388181,100.484286 106.65237,100.564681 105.874319,100.908066 C105.085366,101.226923 104.515794,101.699758 104.296413,101.552593 C104.071582,101.434044 104.443575,100.493824 105.509139,100.045516 C106.573339,99.5944835 107.505366,99.9787473 107.435873,100.224022" id="Fill-69" fill="#22343D"></path>
                        <path d="M97.1204865,106.990607 C96.921545,106.843442 97.2335833,105.995881 97.9911959,105.146958 C98.7583468,104.280321 99.7380653,103.991442 99.8416239,104.233991 C99.9506329,104.469727 99.3538086,105.01887 98.6820405,105.780585 C97.9993716,106.539574 97.3357793,107.151398 97.1204865,106.990607" id="Fill-71" fill="#22343D"></path>
                        <path d="M93.1217635,105.682611 C92.6952658,105.366479 92.3627883,104.01338 93.9951982,102.190171 C95.6425968,100.326084 97.4834865,100.654479 97.7042297,101.172281 C97.9413243,101.680545 97.3281486,102.404105 95.8824167,104.043358 C94.4148829,105.67716 93.5836892,106.028721 93.1217635,105.682611" id="Fill-73" fill="#FF7B5B"></path>
                        <path d="M101.787162,98.5008308 C101.55143,98.0593363 101.811689,96.7743692 103.93464,95.8791165 C106.087568,94.9538857 107.522399,95.9745011 107.501959,96.504567 C107.497872,97.0319077 106.687117,97.4011824 104.795811,98.2160396 C102.890878,99.0159077 102.041971,98.9818418 101.787162,98.5008308" id="Fill-75" fill="#FF7B5B"></path>
                        <path d="M554.599685,111.282778 C554.738671,111.420404 552.452207,113.993064 547.70759,116.794646 C543.021565,119.593503 535.648468,122.367833 527.167568,122.430514 C518.686667,122.493196 511.272691,119.827877 506.545788,117.098514 C501.761655,114.367789 499.437038,111.827833 499.5733,111.687481 C499.770878,111.438119 502.370743,113.580185 507.161689,115.925284 C511.906306,118.279921 519.057297,120.616844 527.152579,120.558251 C535.250586,120.496932 542.364786,118.055086 547.075338,115.630954 C551.829493,113.214998 554.399381,111.034778 554.599685,111.282778" id="Fill-77" fill="#775298"></path>
                        <path d="M502.86033,107.396536 C502.730882,107.681327 500.199148,106.630734 495.93417,105.679613 C493.808494,105.178163 491.229069,104.791174 488.356681,104.434163 C485.473393,104.115305 482.286242,103.861855 478.920589,103.622031 C475.553573,103.386295 472.330994,103.11513 469.404102,102.752668 C466.477211,102.364316 463.847368,101.902382 461.680814,101.316448 C457.331355,100.181371 454.867751,98.837811 454.953596,98.6484044 C455.066693,98.3622505 457.657019,99.2466022 461.964238,100.021943 C464.113078,100.432097 466.70613,100.749591 469.593506,101.037108 C472.487695,101.301459 475.684384,101.518119 479.055488,101.755218 C482.429316,101.995042 485.657346,102.30436 488.581512,102.724053 C491.504316,103.183262 494.125983,103.717415 496.270735,104.398734 C500.577954,105.713679 502.957075,107.218031 502.86033,107.396536" id="Fill-79" fill="#775298"></path>
                        <g id="Group-83" transform="translate(433.310811, 34.259429)">
                            <mask id="mask-s-gzctcbrr-2" fill="white">
                                <use xlink:href="#path-s-gzctcbrr-1"></use>
                            </mask>
                            <g id="Clip-82"></g>
                            <path d="M18.2452466,17.8058549 C26.3309899,16.0902945 34.7083322,17.5673934 42.8608435,18.9259429 C51.0147173,20.2844923 59.4792669,21.5095033 67.4505507,19.3211077 C81.8424651,15.370822 92.767893,0.830118681 107.692589,0.94660121 C113.837972,0.994997802 119.630438,3.61943736 125.617758,5.00796484 C133.052172,6.73306374 140.797262,6.54774505 148.328422,7.77820659 C155.860945,9.00866813 163.641463,12.037811 167.898265,18.3727121 C172.948107,25.8903824 171.563693,36.4944264 166.264492,43.8390418 C160.965292,51.1850198 152.47894,55.6571956 143.784109,58.1917011 C137.71912,59.9590418 131.257611,60.9810198 126.008828,64.4979868 C120.700089,68.055833 117.233602,73.7816352 112.287319,77.8273055 C99.8752804,87.9775912 80.558884,85.0683604 67.7380619,75.4399648 C64.5168457,73.0212835 61.5313615,70.2142505 57.9122624,68.4441846 C43.1919583,61.2385582 22.0210462,70.7770198 9.34329842,57.6670857 C-3.53066554,44.352756 -1.69658896,22.0354813 18.2452466,17.8058549" id="Fill-81" fill="#775298" mask="url(#mask-s-gzctcbrr-2)"></path>
                        </g>
                        <path d="M447.516184,309.91647 C447.516184,309.91647 461.003323,338.824822 462.581229,333.472382 C464.155046,328.117218 463.634528,315.260734 462.789708,313.425262 C461.940801,311.589789 456.42767,303.480734 456.42767,303.480734 L447.516184,309.91647 Z" id="Fill-84" fill="#FFB2A0"></path>
                        <path d="M545.04014,76.1516703 C546.288293,77.750044 545.454374,76.0331209 546.867403,78.3387033 C552.740264,78.1343077 556.682302,73.1647692 556.682302,73.1647692 C556.682302,73.1647692 566.003935,73.4114066 565.896288,71.7462637 C565.790005,70.0783956 556.960275,70.7011209 556.960275,70.7011209 C556.960275,70.7011209 566.300984,67.7673626 565.788642,66.3025275 C565.279025,64.8390549 554.495309,69.5074505 554.495309,69.5074505 C554.495309,69.5074505 565.377133,62.7528571 563.76925,61.6695604 C562.16273,60.588989 551.692414,66.4851209 551.692414,66.4851209 C551.692414,66.4851209 560.791941,59.0110549 559.427966,58.0476703 C558.066716,57.0842857 545.444836,66.8121538 545.444836,66.8121538 C545.628788,62.0265714 542.196367,62.1941758 542.196367,62.1941758 L542.338079,73.8787912 C542.338079,73.8787912 544.465117,75.4158462 545.04014,76.1516703" id="Fill-86" fill="#FFC6B2"></path>
                        <path d="M406.866588,23.267578 C404.871723,23.6354901 406.418288,22.9419077 403.829324,23.7322374 C399.57661,19.6770286 400.140732,13.3039736 400.140732,13.3039736 C400.140732,13.3039736 393.008818,7.30019341 394.191565,6.12696264 C395.381126,4.95100659 401.56875,11.2790945 401.56875,11.2790945 C401.56875,11.2790945 396.533896,2.88252308 397.888333,2.12762198 C399.241408,1.37272088 404.208131,12.0230945 404.208131,12.0230945 C404.208131,12.0230945 400.553604,-0.252905495 402.474887,0.00463296703 C404.393446,0.262171429 408.309595,11.6211165 408.309595,11.6211165 C408.309595,11.6211165 406.467342,-0.00763076923 408.122917,0.176325275 C409.781216,0.358918681 412.763975,16.0142593 412.763975,16.0142593 C415.802601,12.3133363 418.256667,14.7183912 418.256667,14.7183912 L410.553818,23.1899077 C410.553818,23.1899077 407.783626,23.0999736 406.866588,23.267578" id="Fill-88" fill="#FFC6B2"></path>
                        <path d="M455.249419,72.0757495 C452.669993,71.6519692 446.433315,75.7971121 443.312932,82.5530681 C441.566063,86.3343868 440.364239,90.1756615 442.368642,96.325244 C443.312932,99.2181231 445.288721,99.5805846 445.730207,100.876453 C446.287516,102.517068 444.441176,107.688277 444.441176,107.688277 L451.803372,110.661552 C452.281649,107.109156 452.823968,103.534958 456.44443,101.992453 C457.798867,101.414695 459.248687,101.049508 460.526818,100.316409 C463.97559,98.339222 465.817842,94.014211 467.234959,90.4727165 C468.292347,87.8278374 461.716378,73.1358813 455.249419,72.0757495" id="Fill-90" fill="#FFC6B2"></path>
                        <path d="M446.485503,172.479095 L434.151134,167.529996 C434.151134,167.529996 397.545909,235.412501 397.698046,254.246875 C397.849771,273.079886 447.973476,310.788149 447.973476,310.788149 L456.427125,303.481688 C456.427125,303.481688 440.951934,276.49738 432.679512,266.983446 C424.405729,257.466787 446.485503,172.479095 446.485503,172.479095" id="Fill-92" fill="#FFB2A0"></path>
                        <path d="M507.72731,249.807402 C507.72731,249.807402 534.912794,236.908677 529.45008,235.769512 C523.987366,234.635798 511.21151,236.198743 509.452377,237.190743 C507.690519,238.184105 500.057163,244.336413 500.057163,244.336413 L507.72731,249.807402 Z" id="Fill-94" fill="#FFC6B2"></path>
                        <path d="M458.60131,171.890299 L439.889913,178.698035 C439.889913,178.698035 421.173066,261.023134 428.318607,273.947749 C435.461422,286.877815 455.528618,278.321815 484.108055,262.723705 L508.046434,249.656013 L500.056073,244.33764 C500.056073,244.33764 472.200184,249.796365 464.377425,255.238738 C464.377425,255.238738 468.459812,243.67131 473.903449,227.342826 C479.345724,211.01298 483.099722,194.343837 458.60131,171.890299" id="Fill-96" fill="#FFC6B2"></path>
                        <path d="M435.570023,115.804554 C435.570023,110.334927 437.330518,106.379191 442.800045,106.379191 C448.269572,106.379191 455.830709,108.296422 455.830709,113.767411 C455.830709,119.239763 451.520766,128.122796 446.048514,128.122796 C440.578986,128.122796 435.570023,121.276905 435.570023,115.804554" id="Fill-98" fill="#FFC6B2"></path>
                        <path d="M439.889368,105.595402 C439.889368,105.595402 422.881238,87.1888967 419.478794,69.1571165 C416.074988,51.1280615 410.294785,21.8708747 410.294785,21.8708747 L403.830551,23.7322374 C403.830551,23.7322374 400.767398,63.7161055 403.830551,69.8384352 C406.890979,75.9621275 421.851102,116.729512 426.406316,127.435754 L439.889368,105.595402 Z" id="Fill-100" fill="#FFC6B2"></path>
                        <path d="M458.162276,119.940976 C458.162276,119.940976 459.470384,114.215174 480.977861,106.433152 C502.485339,98.6524923 543.061217,73.4314374 543.061217,73.4314374 L547.109539,78.0630418 C547.109539,78.0630418 525.062467,103.529371 512.236195,107.996097 C499.409922,112.464185 472.167208,130.076273 469.364314,131.48524 C465.125226,133.617767 465.177006,136.3008 458.162276,119.940976" id="Fill-102" fill="#FFC6B2"></path>
                        <path d="M439.889368,105.595402 C439.889368,105.595402 422.608715,111.195842 422.608715,137.490655 C422.608715,137.490655 422.619616,173.503798 426.692465,180.055358 C426.692465,180.055358 433.3134,181.751842 441.568107,180.055358 C450.223422,178.275754 458.600765,171.890435 458.600765,171.890435 L472.194188,131.080809 L470.568591,111.960281 L452.086114,108.391534 C452.086114,108.391534 457.388039,133.168369 438.205179,122.516633 C434.477071,120.446787 443.689695,106.38982 443.689695,106.38982 L439.889368,105.595402 Z" id="Fill-104" fill="#22343D"></path>
                        <path d="M425.267854,126.981042 L416.752887,109.240866 C416.752887,109.240866 417.973788,98.478756 433.60568,94.6224923 C433.60568,94.6224923 435.186311,100.047152 436.919554,102.119723 C438.651435,104.190932 443.695827,106.395679 443.695827,106.395679 L425.267854,126.981042 Z" id="Fill-106" fill="#22343D"></path>
                        <path d="M457.459577,134.111723 L484.536052,128.561701 C484.536052,128.561701 489.243878,118.807943 478.081356,107.205086 C478.081356,107.205086 456.96086,108.480514 454.227459,108.708075 C451.5363,108.931547 453.384002,111.004119 453.384002,111.004119 L457.459577,134.111723 Z" id="Fill-108" fill="#22343D"></path>
                        <path d="M426.649134,171.283516 C426.649134,171.283516 401.03883,218.633802 396.807918,227.094418 C396.807918,227.094418 472.363425,261.802154 503.034472,220.025055 C503.034472,220.025055 485.58758,183.097582 458.616026,169.039253 L446.980677,165.554989 L427.104247,171.055956" id="Fill-110" fill="#22343D"></path>
                        <path d="M466.243386,90.0249538 C466.243386,90.0249538 469.16074,87.1075473 470.955301,89.1269758 C472.749861,91.1464044 464.448825,94.063811 464.448825,94.063811 L466.243386,90.0249538 Z" id="Fill-112" fill="#FFC6B2"></path>
                        <path d="M519.606144,50.2362154 C519.634227,50.3370505 518.507347,50.8248747 516.355782,51.3358637 C514.209667,51.8523033 511.025241,52.3210505 507.069577,52.4014462 C503.116637,52.4804791 498.415624,52.1289187 493.270399,51.4312484 C488.121086,50.748567 482.527561,49.7456659 476.642437,49.1038637 C470.766851,48.4756879 465.117459,48.3612264 460.113946,49.1692703 C455.10907,49.9636879 450.777324,51.6029407 447.466176,53.5174462 C444.155027,55.4469407 441.850849,57.587644 440.436457,59.2078198 C439.01389,60.8293582 438.373462,61.8649626 438.229025,61.7777538 C438.149993,61.7368747 438.577854,60.5704571 439.866885,58.7526989 C441.147741,56.9403912 443.408315,54.5489626 446.779419,52.3864571 C450.147797,50.237578 454.625342,48.3912044 459.827797,47.4673363 C465.037065,46.5298418 470.863597,46.6020615 476.841378,47.2425011 C482.82461,47.8952044 488.424948,48.9553363 493.514306,49.7238637 C498.602302,50.5073802 503.201119,50.9870286 507.073664,51.0769626 C514.836468,51.293622 519.534757,49.9159956 519.606144,50.2362154" id="Fill-114" fill="#775298"></path>
                        <path d="M451.387093,88.3688044 C451.378918,88.4832659 450.547724,88.5636615 449.279132,88.1426066 C448.965731,88.032233 448.5951,87.8877934 448.250359,87.5716615 C448.080033,87.4135956 447.92197,87.2037495 447.825224,86.9516615 C447.686238,86.5987385 447.697139,86.1981231 447.834762,85.8928923 C447.875641,85.8315736 447.872916,85.6857714 447.95331,85.6830462 L448.199943,85.6748703 C448.358006,85.6530681 448.544684,85.7048484 448.727274,85.7389143 C449.062476,85.8029582 449.170123,85.7934198 449.40858,85.8097714 C449.826902,85.8193099 450.260213,85.7757055 450.693524,85.6803209 C452.46492,85.3069582 453.650393,84.0179033 454.181812,82.9577714 C454.73912,81.8908264 454.788175,81.088233 454.936699,81.0977714 C455.04162,81.0841451 455.248738,81.937156 454.788175,83.2248484 C454.553805,83.8557495 454.146384,84.5793099 453.488242,85.2142989 C452.834188,85.8479253 451.928051,86.3684527 450.899278,86.5932879 C450.385573,86.7077495 449.869143,86.7513538 449.371789,86.7254637 C449.155134,86.7145626 448.814481,86.6709582 448.71501,86.649156 C448.623715,86.634167 448.634616,86.6137275 448.616902,86.6246286 C448.606001,86.6355297 448.600551,86.653244 448.601913,86.6791341 C448.638704,86.8017714 448.705472,86.9189582 448.799492,87.0238813 C448.988895,87.2378154 449.264143,87.397244 449.532578,87.5307824 C450.629481,88.0690242 451.407533,88.2284527 451.387093,88.3688044" id="Fill-116" fill="#FF7B5B"></path>
                        <path d="M445.313248,88.6842549 L455.287572,92.6141011 C455.287572,92.6141011 446.521885,98.6587604 445.313248,88.6842549" id="Fill-118" fill="#FFFFFF"></path>
                        <path d="M459.546827,90.5751868 C459.192547,91.2483297 458.094282,91.3655165 457.092761,90.8381758 C456.091241,90.3121978 455.566635,89.3392747 455.919552,88.6674945 C456.273831,87.9943516 457.373459,87.8758022 458.37498,88.4031429 C459.3765,88.9304835 459.901106,89.902044 459.546827,90.5751868" id="Fill-120" fill="#FFB2A0"></path>
                        <path d="M448.414963,84.6727868 C448.112463,85.3704571 447.026461,85.5721275 445.98815,85.1224571 C444.949839,84.6727868 444.351652,83.7434681 444.654152,83.0457978 C444.955289,82.3481275 446.042654,82.1464571 447.080965,82.5961275 C448.119276,83.0457978 448.717463,83.9751165 448.414963,84.6727868" id="Fill-122" fill="#FFB2A0"></path>
                        <path d="M444.720375,99.6232352 C444.720375,99.6232352 448.216839,102.551543 451.864553,101.608598 C451.864553,101.608598 450.606861,103.494488 445.765499,102.802268 C445.765499,102.802268 446.16747,100.724246 444.720375,99.6232352" id="Fill-124" fill="#FFA192"></path>
                        <path d="M458.59,84.3108703 C458.59,84.7469143 458.235721,85.1012 457.799685,85.1012 C457.363649,85.1012 457.009369,84.7469143 457.009369,84.3108703 C457.009369,83.8748264 457.363649,83.5205407 457.799685,83.5205407 C458.235721,83.5205407 458.59,83.8748264 458.59,84.3108703" id="Fill-126" fill="#22343D"></path>
                        <path d="M452.122904,81.9814418 C452.122904,82.4174857 451.768625,82.7717714 451.332589,82.7717714 C450.896553,82.7717714 450.543636,82.4174857 450.543636,81.9814418 C450.543636,81.5453978 450.896553,81.1911121 451.332589,81.1911121 C451.768625,81.1911121 452.122904,81.5453978 452.122904,81.9814418" id="Fill-128" fill="#22343D"></path>
                        <path d="M461.128956,82.2057319 C460.885048,82.3092923 460.413584,81.7383473 459.699575,81.2764132 C459.000555,80.7940396 458.291997,80.5773802 458.293359,80.3130286 C458.270195,80.059578 459.259452,79.8538198 460.220093,80.4983473 C461.182098,81.1387868 461.372864,82.1294242 461.128956,82.2057319" id="Fill-130" fill="#775298"></path>
                        <path d="M449.731792,78.3712703 C449.71544,78.124633 450.564348,77.8139516 451.700767,77.8439297 C452.857625,77.8684571 453.711983,78.4298637 453.593436,78.6642374 C453.484427,78.9013363 452.679123,78.7991385 451.663976,78.7800615 C450.64338,78.7500835 449.748143,78.6397099 449.731792,78.3712703" id="Fill-132" fill="#775298"></path>
                        <path d="M453.293252,321.662677 C453.293252,321.662677 457.442408,336.390062 461.726462,335.184127 C466.010516,333.979556 462.7893,313.425534 462.7893,313.425534 L458.514784,306.669578 C458.514784,306.669578 462.530403,341.074809 453.293252,321.662677" id="Fill-134" fill="#22343D"></path>
                        <path d="M505.612807,240.014809 C505.612807,240.014809 508.629632,236.722677 512.286884,236.174897 C515.945499,235.625754 529.019767,234.070985 530.939688,235.808347 C532.860972,237.54571 520.34265,243.370985 520.34265,243.370985 C520.34265,243.370985 524.704373,240.591204 522.893461,239.558325 C519.692684,237.728303 505.612807,240.014809 505.612807,240.014809" id="Fill-136" fill="#22343D"></path>
                        <polygon id="Fill-138" fill="#22343D" points="500.425205 243.957736 504.518493 252.268462 506.751815 251.028462 501.293189 242.841736"></polygon>
                        <polygon id="Fill-140" fill="#22343D" points="454.653276 300.149222 444.60537 309.20531 447.582679 311.686673 456.017251 302.506585"></polygon>
                        <path d="M244.586648,209.993591 C241.729249,202.902426 240.630983,195.007305 236.367368,188.661503 C230.231524,179.53047 218.446287,174.999701 213.467301,165.188712 C211.352526,161.021767 210.688934,156.255262 210.666686,151.582778 C210.626253,142.338646 213.39372,132.511305 220.53381,126.636976 C228.7381,119.88647 241.047943,119.980492 250.657087,124.515349 C260.263506,129.050207 267.6039,137.281899 273.844666,145.880141 C280.086794,154.47702 285.55087,163.703437 292.819046,171.451393 C298.208179,177.196273 304.600195,182.150822 308.659418,188.899965 C319.787875,207.403218 308.337841,230.81469 288.691693,237.492976 C271.428753,243.35913 250.558979,224.819086 244.586648,209.993591" id="Fill-142" fill="#22343D"></path>
                        <path d="M219.993806,340.493371 C221.702523,341.898251 219.838468,340.925327 222.323874,342.544141 C221.769291,348.753679 216.025878,352.665811 216.025878,352.665811 C216.025878,352.665811 215.783333,362.551745 213.938356,362.348712 C212.089291,362.148404 213.273401,352.829327 213.273401,352.829327 C213.273401,352.829327 209.492151,362.566734 207.892444,361.946734 C206.294099,361.329459 212.082477,350.155833 212.082477,350.155833 C212.082477,350.155833 203.969482,361.322646 202.854865,359.562119 C201.74161,357.802954 208.880338,347.027218 208.880338,347.027218 C208.880338,347.027218 200.065597,356.268624 199.069527,354.772448 C198.07482,353.28036 209.588896,340.427965 209.588896,340.427965 C204.259718,340.369371 204.637162,336.742031 204.637162,336.742031 L217.61741,337.511921 C217.61741,337.511921 219.207579,339.844756 219.993806,340.493371" id="Fill-144" fill="#FFC6B2"></path>
                        <path d="M343.99755,154.045609 C346.218608,154.435323 344.494903,153.699499 347.376829,154.537521 C352.110545,150.237037 351.482381,143.479719 351.482381,143.479719 C351.482381,143.479719 359.420962,137.113477 358.104678,135.869389 C356.780218,134.622576 349.893574,141.33084 349.893574,141.33084 C349.893574,141.33084 355.496637,132.42873 353.989588,131.627499 C352.485264,130.827631 346.957144,142.121169 346.957144,142.121169 C346.957144,142.121169 351.024543,129.103895 348.885241,129.376422 C346.75139,129.650312 342.392392,141.694664 342.392392,141.694664 C342.392392,141.694664 344.441761,129.364158 342.598146,129.559015 C340.753169,129.75251 337.769047,145.906576 337.769047,145.906576 C333.422313,142.369169 330.379599,144.633873 330.379599,144.633873 L339.89336,153.962488 C339.89336,153.962488 342.976953,153.868466 343.99755,154.045609" id="Fill-146" fill="#FFC6B2"></path>
                        <path d="M289.656695,208.036026 C293.672314,207.409213 305.918114,215.345213 302.801819,231.461125 C302.54156,232.814224 300.774251,235.792949 300.334127,237.024774 C299.778181,238.584993 304.109927,244.295807 304.109927,244.295807 L292.926965,247.868642 C292.450051,244.490664 293.25263,239.553829 289.638981,238.086268 C288.287269,237.537125 286.840175,237.189653 285.564769,236.493345 C282.121447,234.612905 280.283283,230.499103 278.868891,227.132026 C277.812866,224.615235 277.008925,221.909037 277.038902,219.178312 C277.112483,212.302444 283.201999,209.044378 289.656695,208.036026" id="Fill-148" fill="#FFC6B2"></path>
                        <path d="M312.050688,252.173486 C312.050688,246.372738 310.211161,244.158453 304.123008,244.158453 C298.034855,244.158453 289.998166,246.372738 289.998166,252.173486 C289.998166,257.975596 294.297208,265.235727 300.388087,265.235727 C306.474877,265.235727 312.050688,257.975596 312.050688,252.173486" id="Fill-150" fill="#FFC6B2"></path>
                        <path d="M307.242846,241.346787 C307.242846,241.346787 326.173623,221.828369 329.960323,202.707842 C333.748386,183.588677 340.182643,152.564149 340.182643,152.564149 L347.377238,154.537248 C347.377238,154.537248 350.786494,196.937073 347.377238,203.43004 C343.970706,209.924369 324.658398,255.018127 325.037204,266.561029 L307.242846,241.346787 Z" id="Fill-152" fill="#FFC6B2"></path>
                        <path d="M273.497608,250.797495 C273.497608,250.797495 267.060626,251.879429 257.21575,274.247121 C247.370874,296.613451 217.079995,338.252923 217.079995,338.252923 L222.003115,342.786418 C222.003115,342.786418 251.536381,320.782549 257.21575,307.435516 C262.893757,294.088484 270.088351,277.494286 273.497608,278.213758 C276.90414,278.937319 291.293329,259.093231 273.497608,250.797495" id="Fill-154" fill="#FFC6B2"></path>
                        <path d="M324.179712,269.543024 L332.994453,245.213134 C332.994453,245.213134 331.634565,233.802409 314.236727,229.711771 L304.38095,243.911815 L324.179712,269.543024 Z" id="Fill-156" fill="#FF7B5B"></path>
                        <path d="M276.436355,248.930545 C276.436355,248.930545 266.036895,249.806721 257.607774,268.320875 C257.607774,268.320875 266.877627,281.118765 273.65935,281.550721 C273.65935,281.550721 298.847244,260.021051 276.436355,248.930545" id="Fill-158" fill="#FF7B5B"></path>
                        <path d="M305.010069,468.488079 C305.010069,468.488079 289.998166,499.143332 288.24312,493.467947 C286.490801,487.789837 287.069911,474.155288 288.010114,472.209442 C288.954404,470.262233 295.091611,461.663991 295.091611,461.663991 L305.010069,468.488079 Z" id="Fill-160" fill="#FFC6B2"></path>
                        <path d="M306.157116,322.7472 L319.885438,317.498321 C319.885438,317.498321 360.627555,389.483727 360.459115,409.455903 C360.289627,429.425354 304.501542,469.41331 304.501542,469.41331 L295.091339,461.663991 C295.091339,461.663991 321.534199,422.785222 330.741373,412.696255 C335.345641,407.650409 302.384042,382.923991 297.391429,359.132343 C292.398816,335.340695 306.157116,322.7472 306.157116,322.7472" id="Fill-162" fill="#654287"></path>
                        <path d="M223.615222,452.429262 C223.615222,452.429262 195.534501,473.127723 196.70226,467.3188 C197.874107,461.504426 204.943341,449.63858 206.7161,448.318185 C208.491584,447.000514 218.078927,442.035064 218.078927,442.035064 L223.615222,452.429262 Z" id="Fill-164" fill="#FFC6B2"></path>
                        <path d="M268.806269,348.238057 L309.423026,324.698497 C309.423026,324.698497 311.034997,406.46764 301.284141,424.147859 C291.534648,441.828079 222.718623,453.028958 222.718623,453.028958 L218.078927,442.0352 C218.078927,442.0352 260.535211,416.7392 273.569963,411.788738 C286.606078,406.835552 268.806269,348.238057 268.806269,348.238057" id="Fill-166" fill="#775298"></path>
                        <path d="M292.99605,308.596484 C292.99605,308.596484 263.089428,319.185538 268.80695,348.23833 C274.52311,377.289758 284.05186,382.73622 284.05186,382.73622 L301.203065,354.59367 L318.422401,317.738418 L301.203065,315.55411 L292.99605,308.596484 Z" id="Fill-168" fill="#775298"></path>
                        <path d="M307.242846,241.346787 C307.242846,241.346787 329.261303,253.686831 329.261303,281.570479 C329.261303,281.570479 326.463859,313.359446 321.930447,320.304809 C321.930447,320.304809 314.561438,322.104853 305.373341,320.304809 C295.73967,318.418919 286.416675,311.647974 286.416675,311.647974 L278.892328,272.728325 L273.038544,250.003622 L276.212069,248.957116 L292.7719,247.137996 C292.7719,247.137996 290.392778,271.875314 308.883431,259.591138 C312.777778,257.00349 304.035256,244.104765 304.035256,244.104765 L307.242846,241.346787 Z" id="Fill-170" fill="#FF7B5B"></path>
                        <polygon id="Fill-172" fill="#FFFFFF" points="320.720038 135.978673 366.885354 162.909837 392.854025 113.857618 349.57336 89.8125187"></polygon>
                        <polygon id="Fill-174" fill="#FFFFFF" points="384.943786 370.786708 417.961252 350.347147 390.68311 302.73251 360.501241 322.30407"></polygon>
                        <path d="M222.375653,167.890822 C222.46286,167.813152 223.482095,168.738382 225.094065,170.625635 C226.699223,172.515613 228.888941,175.389415 231.086836,179.267481 C233.292905,183.129196 235.475811,188.02924 237.03464,193.716888 C238.647973,199.362295 239.729887,205.708097 242.209842,211.820888 C243.497511,214.840492 245.057703,217.651613 246.914944,220.137064 C248.788536,222.606163 250.86652,224.772756 253.005822,226.662734 C257.377083,230.341855 261.956824,232.872273 266.037849,234.334382 C270.114786,235.816932 273.607162,236.481899 276.035338,236.72036 C278.460788,236.9888 279.831577,237.028316 279.832965,237.187745 C279.839752,237.287218 278.473052,237.495701 275.982196,237.448009 C273.492703,237.428932 269.869516,236.953371 265.601813,235.585284 C261.331385,234.236273 256.506374,231.739921 251.892568,227.980404 C249.629268,226.048185 247.430011,223.810734 245.448773,221.239437 C243.483885,218.653152 241.824223,215.696229 240.476599,212.530822 C237.893086,206.141415 236.872489,199.739745 235.369527,194.169284 C233.934696,188.579745 231.939831,183.769635 229.923164,179.899745 C227.918761,176.018954 225.929347,173.07702 224.519043,171.071218 C223.100563,169.069503 222.269369,167.984844 222.375653,167.890822" id="Fill-176" fill="#22343D"></path>
                        <path d="M279.094403,136.382665 C279.433694,136.331323 279.763446,140.875719 282.306081,147.597609 C283.576036,150.945609 285.464617,154.797785 288.177579,158.659499 C289.533378,160.593081 291.09357,162.498048 292.859516,164.396202 C294.613198,166.302532 296.523581,168.23884 298.329043,170.410884 C301.949505,174.794488 304.44036,179.532378 306.785417,183.714312 C309.114122,187.937125 310.968637,191.95418 311.911565,195.547455 C312.895372,199.129829 312.952601,202.213477 312.640563,204.258796 C312.314899,206.313653 311.803919,207.354708 311.719437,207.326667 C311.557286,207.283851 311.821633,206.184202 311.914291,204.193389 C311.994685,202.205301 311.741239,199.308334 310.64161,195.92218 C309.578773,192.5224 307.667027,188.690664 305.281092,184.557785 C302.858367,180.426268 300.345709,175.783763 296.887399,171.605916 C295.15143,169.515631 293.2683,167.586136 291.503716,165.632114 C289.729595,163.687631 288.116261,161.662752 286.755011,159.63651 C284.024336,155.579938 282.20116,151.536993 281.059291,148.041829 C279.891532,144.548026 279.394178,141.599279 279.158446,139.567587 C278.925439,137.531807 278.988119,136.392642 279.094403,136.382665" id="Fill-178" fill="#22343D"></path>
                        <path d="M293.247452,225.553411 C293.229738,225.422598 293.9819,225.302686 294.691821,224.468752 C294.855334,224.27662 295.020211,223.995916 295.017485,223.8324 C295.013398,223.65662 294.890762,223.351389 294.679557,223.175609 C294.460177,222.979389 294.216269,222.884004 293.894693,222.916708 C293.562215,222.941235 293.157519,223.106114 292.628825,223.185147 C291.470605,223.339125 290.567193,222.685059 289.973093,222.154993 C289.362643,221.597675 288.89663,221.03218 288.549163,220.525279 C287.856956,219.504664 287.641663,218.767477 287.747947,218.712971 C287.870582,218.647565 288.287542,219.258026 289.068319,220.113763 C289.458026,220.538905 289.949929,221.02673 290.530402,221.49684 C291.102699,221.953323 291.803082,222.368927 292.502102,222.258554 C292.872733,222.210862 293.304681,222.037807 293.83065,222.002378 C294.366157,221.949235 294.961618,222.195873 295.288645,222.563785 C295.636111,222.939873 295.830965,223.38273 295.790087,223.907345 C295.686528,224.444224 295.401742,224.694949 295.16601,224.929323 C294.148139,225.820488 293.214749,225.674686 293.247452,225.553411" id="Fill-180" fill="#FF7B5B"></path>
                        <path d="M298.703352,226.321257 L289.836832,229.545257 C289.836832,229.545257 297.359816,236.126796 298.703352,226.321257" id="Fill-182" fill="#FFFFFF"></path>
                        <path d="M288.952088,225.772387 C289.306367,226.44553 288.781761,227.418453 287.780241,227.944431 C286.778721,228.471771 285.680455,228.354585 285.326176,227.681442 C284.971896,227.009662 285.496502,226.036738 286.498023,225.509398 C287.499543,224.982057 288.597809,225.099244 288.952088,225.772387" id="Fill-184" fill="#FFB2A0"></path>
                        <path d="M299.463145,220.382338 C299.753382,221.085459 299.140206,222.003877 298.095082,222.435833 C297.048596,222.869152 295.965319,222.649767 295.675082,221.946646 C295.384846,221.243525 295.998021,220.325108 297.044508,219.893152 C298.089632,219.461196 299.172909,219.679218 299.463145,220.382338" id="Fill-186" fill="#FFB2A0"></path>
                        <path d="M290.099135,238.322141 C290.099135,238.322141 293.065543,238.925789 296.846793,237.981481 C296.846793,237.981481 294.982739,239.792426 291.9373,240.213481 C291.9373,240.213481 291.254631,238.951679 290.099135,238.322141" id="Fill-188" fill="#FFA192"></path>
                        <path d="M293.129722,218.391662 C293.462199,218.673727 293.503078,219.172453 293.221017,219.504936 C292.938956,219.83742 292.441602,219.878299 292.107762,219.596233 C291.775285,219.31553 291.734407,218.816804 292.016467,218.482958 C292.298528,218.150475 292.797244,218.109596 293.129722,218.391662" id="Fill-190" fill="#22343D"></path>
                        <path d="M287.171698,221.819512 C287.504176,222.101578 287.545054,222.600303 287.262993,222.932787 C286.982295,223.26527 286.483579,223.306149 286.149739,223.024084 C285.817261,222.742018 285.776383,222.244655 286.058444,221.910809 C286.340505,221.578325 286.839221,221.537446 287.171698,221.819512" id="Fill-192" fill="#22343D"></path>
                        <path d="M293.165014,215.093398 C293.085982,215.346848 292.346083,215.33731 291.532604,215.583947 C290.712311,215.804695 290.089597,216.20531 289.88793,216.032255 C289.67945,215.887815 290.161815,214.999376 291.27507,214.683244 C292.385599,214.363024 293.264484,214.859024 293.165014,215.093398" id="Fill-194" fill="#22343D"></path>
                        <path d="M282.872247,221.309886 C282.673305,221.162721 282.985343,220.31516 283.742956,219.4676 C284.508744,218.600963 285.489825,218.312084 285.592021,218.55327 C285.702393,218.789007 285.104206,219.338149 284.432438,220.099864 C283.751132,220.858853 283.087539,221.47204 282.872247,221.309886" id="Fill-196" fill="#22343D"></path>
                        <path d="M279.528259,227.893468 C279.528259,227.893468 276.684486,225.504765 275.319149,227.665908 C273.955173,229.827051 281.461806,230.964853 281.461806,230.964853 L279.528259,227.893468 Z" id="Fill-198" fill="#FFC6B2"></path>
                        <path d="M211.150042,445.702602 C211.150042,445.702602 207.073105,447.475393 206.010267,448.539613 C204.946066,449.60247 195.196573,466.441943 196.437913,468.56902 C197.679253,470.696097 207.455999,463.475481 207.455999,463.475481 C207.455999,463.475481 199.274873,465.0248 211.150042,445.702602" id="Fill-200" fill="#775298"></path>
                        <path d="M290.705907,467.970413 C290.705907,467.970413 287.810355,471.100391 287.363418,472.537974 C286.916481,473.972831 286.116627,493.414941 288.205512,494.720347 C290.293035,496.027116 295.999657,485.299073 295.999657,485.299073 C295.999657,485.299073 289.177055,490.643336 290.705907,468.01538" id="Fill-202" fill="#775298"></path>
                    </g>
                </g>
            </g>
        </g>
    </g>
</svg>