
<svg width="541.042659px" height="608.36774px" viewBox="0 0 541.042659 608.36774" version="1.1" xmlns="http://www.w3.org/2000/svg" xmlns:xlink="http://www.w3.org/1999/xlink">
    <g id="Page-1" stroke="none" stroke-width="1" fill="none" fill-rule="evenodd">
        <g id="01-Productly" transform="translate(-761.150000, -2698.150000)" fill-rule="nonzero">
            <g id="06-Marketers" transform="translate(133.000000, 2698.150000)">
                <g id="Image" transform="translate(628.150000, -0.000000)">
                    <path d="M538.5,395.15 C531.282251,435.795319 510.523117,472.802263 479.6,500.15 C468.923487,509.564374 457.370868,517.935837 445.1,525.15 C401.85,551.3 348.25,567.15 292.45,580.15 L282.9,582.3 C274.605793,584.184058 266.097985,584.957496 257.6,584.6 C168.85,580.9 108.4,449.35 89.6,310.9 C73.2,187.65 100.65,48.05 223.55,41.75 C269.7,39.45 323.55,62.45 373.55,99.45 C377.15,102.1 380.75,104.85 384.3,107.65 L384.3,107.65 L386.5,109.4 C479.85,183.8 556.1,304.45 538.5,395.15 Z" id="Path" fill="#FDE6D6"></path>
                    <path d="M102.9,511.2 C109.85,525.25 112.4,543.05 98.45,548.75 C82.85,555.15 57.95,544.85 50.75,521.4 C46.1,506.4 47.7,485.5 60.75,477.45 C71.4,470.55 94.6,494 102.9,511.2 Z" id="Path" fill="#F5F9FD"></path>
                    <path d="M484.6,196.1 C478.35,190.65 473.35,182.55 478.65,177.1 C483.95,171.65 498.25,171.2 506.65,181.15 C512,187.5 515.7,197.9 511.65,204.25 C508.05,209.65 492.4,202.75 484.6,196.1 Z" id="Path" fill="#FFAD69"></path>
                    <path d="M233.7,608.35 L233.7,608.35 C230.345751,608.149423 227.006473,607.74871 223.7,607.15 C223.528957,607.127119 223.376046,607.031702 223.280324,606.888118 C223.184601,606.744533 223.155335,606.566686 223.2,606.4 C223.224413,606.23983 223.312565,606.096341 223.444406,606.002169 C223.576248,605.907997 223.74057,605.871147 223.9,605.9 C227.206331,606.499656 230.545665,606.900376 233.9,607.1 C234.068184,607.099415 234.228893,607.169445 234.342969,607.293028 C234.457046,607.416611 234.514016,607.5824 234.5,607.75 C234.490407,607.943028 234.395414,608.121776 234.240801,608.237735 C234.086189,608.353695 233.887993,608.394838 233.7,608.35 Z M243.7,608.35 C243.368629,608.35 243.1,608.081371 243.1,607.75 C243.069978,607.587759 243.114379,607.42061 243.220956,607.294655 C243.327534,607.1687 243.485028,607.097246 243.65,607.1 C247.006922,606.872991 250.346615,606.438831 253.65,605.8 C253.99373,605.738105 254.32493,605.958905 254.4,606.3 C254.428853,606.45943 254.392003,606.623752 254.297831,606.755594 C254.203659,606.887435 254.06017,606.975587 253.9,607 C250.596614,607.649275 247.2573,608.100083 243.9,608.35 L243.7,608.35 Z M214.1,604.85 L214.1,604.85 C210.890737,603.869324 207.73623,602.717678 204.65,601.4 C204.344915,601.263068 204.193509,600.916997 204.3,600.6 C204.456305,600.287579 204.819025,600.138223 205.15,600.25 C208.186142,601.550912 211.290716,602.685918 214.45,603.65 C214.794823,603.747101 214.99608,604.104891 214.9,604.45 C214.747701,604.739079 214.415671,604.884343 214.1,604.8 L214.1,604.85 Z M263.35,604.55 C263.06934,604.55888 262.82006,604.37192 262.75,604.1 C262.649503,603.769403 262.825225,603.41796 263.15,603.3 C264.6,602.85 266.1,602.3 267.6,601.75 L272.6,599.9 C272.752069,599.835254 272.924112,599.836105 273.075534,599.902352 C273.226955,599.968599 273.344343,600.094374 273.4,600.25 C273.48275,600.399805 273.491049,600.579594 273.422453,600.736386 C273.353856,600.893177 273.216182,601.009102 273.05,601.05 L268.05,602.95 C266.55,603.5 265,604.05 263.5,604.5 L263.35,604.55 Z M282.05,597.5 C281.801508,597.493471 281.582774,597.334392 281.5,597.1 C281.41725,596.950195 281.408951,596.770406 281.477547,596.613614 C281.546144,596.456823 281.683818,596.340898 281.85,596.3 L291.15,592.6 C291.466997,592.493509 291.813068,592.644915 291.95,592.95 C292.056491,593.266997 291.905085,593.613068 291.6,593.75 L282.3,597.45 L282.05,597.5 Z M195.7,597.05 L195.4,597.05 C192.5,595.5 189.6,593.75 186.75,592.05 C186.539077,591.805921 186.539077,591.444079 186.75,591.2 C186.862581,591.087027 187.015509,591.023527 187.175,591.023527 C187.334491,591.023527 187.487419,591.087027 187.6,591.2 C190.4,593.05 193.3,594.75 196.15,596.2 C196.360923,596.444079 196.360923,596.805921 196.15,597.05 C195.998855,597.087803 195.83916,597.070059 195.7,597 L195.7,597.05 Z M300.7,590 C300.459828,590.016266 300.236985,589.874457 300.15,589.65 C300.005399,589.332082 300.137879,588.956722 300.45,588.8 C303.55,587.55 306.65,586.25 309.7,584.9 C310.015671,584.815657 310.347701,584.960921 310.5,585.25 C310.56746,585.395716 310.573696,585.562393 310.517315,585.712743 C310.460934,585.863094 310.346639,585.984571 310.2,586.05 C307.1,587.4 304.05,588.7 300.95,589.95 L300.7,590 Z M179,586.2 C178.886446,586.238112 178.763554,586.238112 178.65,586.2 C176.05,584.2 173.65,582.1 170.85,579.85 C170.587665,579.629086 170.554086,579.237335 170.775,578.975 C170.995914,578.712665 171.387665,578.679086 171.65,578.9 C174.2,581.1 176.65,583.25 179.4,585.2 C179.52915,585.3139 179.603137,585.4778 179.603137,585.65 C179.603137,585.8222 179.52915,585.9861 179.4,586.1 C179.248675,586.189016 179.065955,586.207288 178.9,586.15 L179,586.2 Z M319,582.1 C318.751508,582.093471 318.532774,581.934392 318.45,581.7 C318.38254,581.554284 318.376304,581.387607 318.432685,581.237257 C318.489066,581.086906 318.603361,580.965429 318.75,580.9 C321.8,579.5 324.85,578.15 327.85,576.7 C328.063623,576.528322 328.361975,576.509076 328.595885,576.651885 C328.829795,576.794694 328.949003,577.068872 328.893907,577.337336 C328.838811,577.605799 328.62125,577.810864 328.35,577.85 L319.25,582.05 L319,582.1 Z M337.15,573.600017 C336.913747,573.601794 336.698435,573.464777 336.6,573.25 C336.515679,573.099437 336.500267,572.919858 336.5577,572.757129 C336.615134,572.594401 336.739852,572.464279 336.9,572.4 L345.8,567.9 C345.997257,567.70908 346.293189,567.662668 346.539423,567.784033 C346.785656,567.905399 346.929096,568.168373 346.897825,568.441104 C346.866554,568.713836 346.667313,568.937518 346.4,569 C343.4,570.55 340.45,572.05 337.4,573.5 L337.15,573.600017 Z M163.75,573.1 C163.621392,573.150203 163.478608,573.150203 163.35,573.1 C161.016667,570.8 158.666667,568.4 156.3,565.9 C156.172817,565.795529 156.099106,565.63959 156.099106,565.475 C156.099106,565.31041 156.172817,565.154471 156.3,565.05 C156.551487,564.808722 156.948513,564.808722 157.2,565.05 C159.55,567.55 161.9,570.05 164.2,572.2 C164.327183,572.304471 164.400894,572.46041 164.400894,572.625 C164.400894,572.78959 164.327183,572.945529 164.2,573.05 C164.058476,573.121314 163.891524,573.121314 163.75,573.05 L163.75,573.1 Z M354.95,564.4 C354.720213,564.381034 354.514503,564.250127 354.4,564.05 C354.247416,563.744958 354.356562,563.373859 354.65,563.2 C357.6,561.6 360.55,559.95 363.35,558.2 C363.594079,557.989077 363.955921,557.989077 364.2,558.2 C364.312973,558.312581 364.376473,558.465509 364.376473,558.625 C364.376473,558.784491 364.312973,558.937419 364.2,559.05 L355.45,564.05 L354.95,564.4 Z M149.95,558.5 C149.789017,558.561554 149.610983,558.561554 149.45,558.5 C147.3,556.05 145.2,553.5 143.1,550.75 C142.892893,550.487665 142.937665,550.107107 143.2,549.9 C143.462335,549.692893 143.842893,549.737665 144.05,550 C146.15,552.65 148.3,555 150.4,557.7 C150.641278,557.951487 150.641278,558.348513 150.4,558.6 L149.95,558.5 Z M372.1,554.35 C371.889677,554.353846 371.695582,554.237389 371.6,554.05 C371.487027,553.937419 371.423527,553.784491 371.423527,553.625 C371.423527,553.465509 371.487027,553.312581 371.6,553.2 C374.5,551.4 377.35,549.6 380.05,547.8 C380.162581,547.687027 380.315509,547.623527 380.475,547.623527 C380.634491,547.623527 380.787419,547.687027 380.9,547.8 C381.012973,547.912581 381.076473,548.065509 381.076473,548.225 C381.076473,548.384491 381.012973,548.537419 380.9,548.65 C378.2,550.45 375.35,552.25 372.45,554.05 L372.1,554.35 Z M388.85,543.3 C388.691273,543.372753 388.508727,543.372753 388.35,543.3 C388.237027,543.187419 388.173527,543.034491 388.173527,542.875 C388.173527,542.715509 388.237027,542.562581 388.35,542.45 C391.1,540.45 393.8,538.5 396.4,536.5 C396.512581,536.387027 396.665509,536.323527 396.825,536.323527 C396.984491,536.323527 397.137419,536.387027 397.25,536.5 C397.362973,536.612581 397.426473,536.765509 397.426473,536.925 C397.426473,537.084491 397.362973,537.237419 397.25,537.35 C394.65,539.35 391.95,541.35 389.15,543.3 C389.097665,543.291395 389.047032,543.274517 389,543.25 L388.85,543.3 Z M137.5,542.8 C137.29268,542.793153 137.103603,542.679707 137,542.5 C135.05,539.9 133.1,537.15 131.2,534.35 C130.981587,534.089754 130.981587,533.710246 131.2,533.45 C131.451487,533.208722 131.848513,533.208722 132.1,533.45 C134,536.2 135.95,538.95 137.85,541.6 C137.962973,541.712581 138.026473,541.865509 138.026473,542.025 C138.026473,542.184491 137.962973,542.337419 137.85,542.45 C137.812957,542.566859 137.743623,542.670861 137.65,542.75 L137.5,542.8 Z M404.75,531.15 C404.555847,531.13972 404.374716,531.049155 404.25,530.9 C404.137027,530.787419 404.073527,530.634491 404.073527,530.475 C404.073527,530.315509 404.137027,530.162581 404.25,530.05 C406.8,527.9 409.25,525.7 411.8,523.5 C411.912581,523.387027 412.065509,523.323527 412.225,523.323527 C412.384491,523.323527 412.537419,523.387027 412.65,523.5 C412.891278,523.751487 412.891278,524.148513 412.65,524.4 L405.05,530.95 C405.008551,531.007877 404.957877,531.058551 404.9,531.1 L404.75,531.15 Z M126.2,526.15 C125.979651,526.142201 125.775855,526.031039 125.65,525.85 C123.9,523.1 122.1,520.2 120.35,517.35 C120.139077,517.105921 120.139077,516.744079 120.35,516.5 C120.462581,516.387027 120.615509,516.323527 120.775,516.323527 C120.934491,516.323527 121.087419,516.387027 121.2,516.5 C122.9,519.35 124.7,522.2 126.45,525 C126.660923,525.244079 126.660923,525.605921 126.45,525.85 L126.2,526.15 Z M419.6,517.65 C419.473995,517.712516 419.326005,517.712516 419.2,517.65 C419.072817,517.545529 418.999106,517.38959 418.999106,517.225 C418.999106,517.06041 419.072817,516.904471 419.2,516.8 C421.55,514.4 423.9,511.8 426.1,509.6 C426.212581,509.487027 426.365509,509.423527 426.525,509.423527 C426.684491,509.423527 426.837419,509.487027 426.95,509.6 C427.191278,509.851487 427.191278,510.248513 426.95,510.5 C424.75,512.9 422.4,515.5 420,517.75 C419.85904,517.764964 419.717335,517.729537 419.6,517.65 L419.6,517.65 Z M115.9,509.050004 C115.677391,509.050779 115.469866,508.937584 115.35,508.75 C113.75,505.9 112.1,502.95 110.35,499.95 C110.283475,499.665392 110.415095,499.371382 110.671686,499.231424 C110.928276,499.091465 111.246728,499.139982 111.45,499.35 C113.05,502.35 114.7,505.3 116.45,508.1 C116.660923,508.344079 116.660923,508.705921 116.45,508.95 L115.9,509.050004 Z M433.1,502.85 L432.7,502.85 C432.458722,502.598513 432.458722,502.201487 432.7,501.95 C434.8,499.35 436.85,496.95 438.8,494.05 C438.912581,493.937027 439.065509,493.873527 439.225,493.873527 C439.384491,493.873527 439.537419,493.937027 439.65,494.05 C439.762973,494.162581 439.826473,494.315509 439.826473,494.475 C439.826473,494.634491 439.762973,494.787419 439.65,494.9 C437.7,497.55 435.65,500.25 433.5,502.85 C433.401932,502.8778 433.298068,502.8778 433.2,502.85 L433.1,502.85 Z M106.4,491.400017 C106.163747,491.401794 105.948435,491.264777 105.85,491.05 C104.3,488.05 102.8,485 101.4,482.05 C101.33254,481.904284 101.326304,481.737607 101.382685,481.587257 C101.439066,481.436906 101.553361,481.315429 101.7,481.25 C101.927761,481.046285 102.272239,481.046285 102.5,481.25 L106.95,490.25 C107.102584,490.555042 106.993438,490.926141 106.7,491.1 L106.4,491.400017 Z M444.85,486.7 L444.55,486.7 C444.437027,486.587419 444.373527,486.434491 444.373527,486.275 C444.373527,486.115509 444.437027,485.962581 444.55,485.85 C446.35,483.05 448.05,480.2 449.55,477.3 C449.612482,477.032687 449.836164,476.833446 450.108896,476.802175 C450.381627,476.770904 450.644601,476.914344 450.765967,477.160577 C450.887332,477.406811 450.84092,477.702743 450.65,477.9 C449,480.8 447.25,483.7 445.65,486.5 C445.483837,486.710566 445.21196,486.807665 444.95,486.75 L444.85,486.7 Z M97.7,473.350017 C97.4637473,473.351794 97.2484346,473.214777 97.15,473 C95.75,469.95 94.4,466.9 93.05,463.8 C92.9825403,463.654284 92.9763036,463.487607 93.032685,463.337257 C93.0890664,463.186906 93.2033606,463.065429 93.35,463 C93.5071428,462.917782 93.6926085,462.909297 93.8566018,462.976824 C94.0205951,463.044351 94.1463124,463.18097 94.2,463.35 C95.5,466.4 96.9,469.45 98.25,472.45 C98.3946011,472.767918 98.2621209,473.143278 97.95,473.3 L97.7,473.350017 Z M454.6,469.25 L454.6,469.25 C454.287879,469.093278 454.155399,468.717918 454.3,468.4 C455.75,465.45 457.1,462.4 458.4,459.3 C458.465429,459.153361 458.586906,459.039066 458.737257,458.982685 C458.887607,458.926304 459.054284,458.93254 459.2,459 C459.505085,459.136932 459.656491,459.483003 459.55,459.8 C458.25,462.9 456.9,466 455.45,468.95 C455.293278,469.262121 454.917918,469.394601 454.6,469.25 L454.6,469.25 Z M89.6,454.95 C89.359828,454.966266 89.1369852,454.824457 89.05,454.6 C87.75,451.5 86.5,448.4 85.3,445.3 C85.2177821,445.142857 85.2092975,444.957391 85.2768241,444.793398 C85.3443508,444.629405 85.4809696,444.503688 85.65,444.45 C85.9805965,444.349503 86.3320398,444.525225 86.45,444.85 C87.65,447.95 88.9,451.05 90.2,454.1 C90.311777,454.430975 90.1624215,454.793695 89.85,454.95 L89.6,454.95 Z M462.2,450.75 L462.2,450.75 C461.875225,450.63204 461.699503,450.280597 461.8,449.95 C462.9,446.8 463.85,443.6 464.75,440.45 C464.832843,440.118629 465.168629,439.917157 465.5,440 C465.831371,440.082843 466.032843,440.418629 465.95,440.75 C465.05,443.95 464.05,447.2 463,450.35 C462.899075,450.592221 462.662406,450.75 462.4,450.75 L462.2,450.75 Z M82.2,436.3 C81.9375944,436.3 81.7009252,436.142221 81.6,435.9 C80.45,432.8 79.3,429.65 78.2,426.5 C78.0757359,426.182436 78.2324363,425.824264 78.55,425.7 C78.8675637,425.575736 79.2257359,425.732436 79.35,426.05 C80.5,429.2 81.6,432.35 82.8,435.5 C82.9004971,435.830597 82.7247755,436.18204 82.4,436.3 L82.2,436.3 Z M467.45,431.3 L467.45,431.3 C467.108905,431.22493 466.888105,430.89373 466.95,430.55 C467.65,427.25 468.3,423.95 468.8,420.55 C468.87507,420.208905 469.20627,419.988105 469.55,420.05 C469.71017,420.074413 469.853659,420.162565 469.947831,420.294406 C470.042003,420.426248 470.078853,420.59057 470.05,420.75 C469.55,424 468.9,427.3 468.2,430.75 C468.298078,430.939748 468.304155,431.163892 468.216502,431.358676 C468.128849,431.553459 467.95706,431.697564 467.75,431.75 L467.45,431.3 Z M75.8,417.45 C75.5297364,417.428836 75.2959908,417.253527 75.2,417 C74.15,413.85 73.1,410.7 72.1,407.5 C72.0732637,407.199987 72.256141,406.920907 72.5418861,406.825658 C72.8276312,406.73041 73.1413814,406.843948 73.3,407.1 C74.3,410.3 75.35,413.45 76.4,416.6 C76.4629209,416.758721 76.4552415,416.936731 76.3788854,417.089443 C76.3025293,417.242155 76.164729,417.355104 76,417.4 L75.8,417.45 Z M470.8,411.800077 L470.8,411.800077 C470.635028,411.802754 470.477534,411.7313 470.370956,411.605345 C470.264379,411.47939 470.219978,411.312241 470.25,411.15 C470.6,407.9 470.9,404.55 471.1,401.15 C471.099415,400.981816 471.169445,400.821107 471.293028,400.707031 C471.416611,400.592954 471.5824,400.535984 471.75,400.55 L471.75,400.55 C472.078906,400.596833 472.329587,400.868404 472.35,401.2 C472.35,404.6 471.85,407.95 471.5,411.2 C471.464941,411.469944 471.265391,411.689449 471,411.75 L470.8,411.800077 Z M69.6,398.35 C69.3375944,398.35 69.1009252,398.192221 69,397.95 C68.05,394.75 67.1,391.5 66.2,388.3 C66.1548214,388.140639 66.1775335,387.96969 66.2627554,387.827653 C66.3479773,387.685617 66.4881265,387.58513 66.65,387.55 C66.8024999,387.503298 66.9673189,387.519234 67.1080462,387.594288 C67.2487734,387.669343 67.3538273,387.797339 67.4,387.95 C68.3,391.2 69.25,394.4 70.2,397.55 C70.3004971,397.880597 70.1247755,398.23204 69.8,398.35 L69.6,398.35 Z M472.05,391.75 C471.718629,391.75 471.45,391.481371 471.45,391.15 C471.45,387.85 471.2,384.5 470.95,381.15 C470.921323,380.982799 470.964765,380.811272 471.069574,380.677879 C471.174383,380.544487 471.330761,380.461695 471.5,380.45 C471.672507,380.436217 471.843389,380.491794 471.974784,380.604418 C472.106179,380.717042 472.187238,380.877414 472.2,381.05 C472.2,384.35 472.65,387.75 472.7,391.05 C472.701008,391.390332 472.439325,391.673822 472.1,391.7 L472.05,391.75 Z M64.3,379.1 C64.0193401,379.10888 63.7700596,378.92192 63.7,378.65 L63.7,378.15 C62.85,374.9 62,371.65 61.2,368.15 C61.1621148,367.811677 61.3731302,367.495153 61.7,367.4 C62.0244769,367.356131 62.3360132,367.543052 62.45,367.85 C63.25,371.1 64.05,374.35 64.9,377.55 L64.9,378.05 C64.9960803,378.395109 64.7948235,378.752899 64.45,378.85 L64.3,379.1 Z M470.35,371.75 C470.042269,371.758283 469.770929,371.54956 469.7,371.25 C469.2,368.05 468.6,364.75 467.9,361.25 C467.834215,360.921373 468.029078,360.596602 468.35,360.5 C468.69373,360.438105 469.02493,360.658905 469.1,361 C469.85,364.3 470.45,367.6 470.95,371 C470.978853,371.15943 470.942003,371.323752 470.847831,371.455594 C470.753659,371.587435 470.61017,371.675587 470.45,371.7 L470.35,371.75 Z M59.6,359.150059 C59.304052,359.154135 59.0493006,358.941842 59,358.65 C58.25,355.35 57.55,352.05 56.95,348.65 C56.9053347,348.483314 56.934601,348.305467 57.0303237,348.161882 C57.1260465,348.018298 57.2789569,347.922881 57.45,347.9 C57.6094301,347.871147 57.7737525,347.907997 57.9055935,348.002169 C58.0374346,348.096341 58.1255865,348.23983 58.15,348.4 C58.8,351.6 59.5,354.9 60.2,358.4 C60.2451786,358.559361 60.2224665,358.73031 60.1372446,358.872347 C60.0520227,359.014383 59.9118735,359.11487 59.75,359.150059 L59.6,359.150059 Z M466.3,352.350059 C466.004052,352.354135 465.749301,352.141842 465.7,351.85 C464.8,348.75 463.8,345.5 462.75,342.35 C462.687079,342.191279 462.694758,342.013269 462.771115,341.860557 C462.847471,341.707845 462.985271,341.594896 463.15,341.55 C463.308721,341.487079 463.486731,341.494758 463.639443,341.571115 C463.792155,341.647471 463.905104,341.785271 463.95,341.95 C465,345.15 466,348.4 466.9,351.55 C466.945179,351.709361 466.922467,351.88031 466.837245,352.022347 C466.752023,352.164383 466.611874,352.26487 466.45,352.3 L466.3,352.350059 Z M55.5,339.5 C55.204052,339.504135 54.9493006,339.291842 54.9,339 C54.3,335.7 53.75,332.35 53.25,329 C53.2213353,328.827305 53.2635406,328.650348 53.3670636,328.50918 C53.4705866,328.368012 53.6266746,328.274569 53.8,328.25 C54.1419646,328.219711 54.4485229,328.460578 54.5,328.8 C55,332.1 55.55,335.4 56.1,338.8 C56.1618952,339.14373 55.9410949,339.47493 55.6,339.55 L55.5,339.5 Z M459.6,333.35 C459.337594,333.35 459.100925,333.192221 459,332.95 C457.8,329.9 456.55,326.8 455.2,323.7 C455.13254,323.554284 455.126304,323.387607 455.182685,323.237257 C455.239066,323.086906 455.353361,322.965429 455.5,322.9 C455.817918,322.755399 456.193278,322.887879 456.35,323.2 C457.7,326.3 459,329.4 460.15,332.5 C460.214746,332.652069 460.213895,332.824112 460.147648,332.975534 C460.081401,333.126955 459.955626,333.244343 459.8,333.3 L459.6,333.35 Z M52.5,319.700047 C52.1766974,319.703846 51.8997195,319.46948 51.85,319.15 C51.45,315.85 51.05,312.5 50.7,309.15 C50.6713226,308.982799 50.7147651,308.811272 50.8195739,308.677879 C50.9243827,308.544487 51.0807612,308.461695 51.25,308.45 C51.5919646,308.419711 51.8985229,308.660578 51.95,309 C52.3,312.3 52.7,315.65 53.1,319 C53.1286774,319.167201 53.0852349,319.338728 52.9804261,319.472121 C52.8756173,319.605513 52.7192388,319.688305 52.55,319.700047 L52.5,319.700047 Z M451.7,315 C451.454771,314.988563 451.230664,314.857833 451.1,314.65 C449.7,311.75 448.15,308.75 446.55,305.75 C446.339077,305.505921 446.339077,305.144079 446.55,304.9 C446.855042,304.747416 447.226141,304.856562 447.4,305.15 C449,308.15 450.55,311.15 452,314.1 C452.144601,314.417918 452.012121,314.793278 451.7,314.95 L451.7,315 Z M50.4,299.75 C50.0872123,299.751088 49.8260639,299.511702 49.8,299.2 C49.8,295.8 49.3,292.4 49.15,289.2 C49.1489917,288.859668 49.4106747,288.576178 49.75,288.55 C49.9176001,288.535984 50.0833886,288.592954 50.2069717,288.707031 C50.3305548,288.821107 50.4005851,288.981816 50.4,289.15 C50.4,292.4 50.8,295.75 51.05,299.15 C51.0640165,299.3176 51.007046,299.483389 50.8929693,299.606972 C50.7788927,299.730555 50.6181842,299.800585 50.45,299.800004 L50.4,299.75 Z M442.2,297.350092 C441.989677,297.353846 441.795582,297.237389 441.7,297.05 C440.05,294.2 438.3,291.35 436.7,288.5 C436.481587,288.239754 436.481587,287.860246 436.7,287.6 C436.944079,287.389077 437.305921,287.389077 437.55,287.6 C439.35,290.5 441.1,293.35 442.55,296.2 C442.662973,296.312581 442.726473,296.465509 442.726473,296.625 C442.726473,296.784491 442.662973,296.937419 442.55,297.05 L442.2,297.350092 Z M431.6,280.35 C431.422428,280.415001 431.227572,280.415001 431.05,280.35 C429.25,277.65 427.35,274.9 425.4,272.1 C425.287027,271.987419 425.223527,271.834491 425.223527,271.675 C425.223527,271.515509 425.287027,271.362581 425.4,271.25 C425.651487,271.008722 426.048513,271.008722 426.3,271.25 C428.3,274 430.2,276.8 432,279.5 C432.210923,279.744079 432.210923,280.105921 432,280.35 C431.872475,280.405657 431.727525,280.405657 431.6,280.35 L431.6,280.35 Z M49.6,279.750004 C49.2686292,279.750004 49,279.481371 49,279.15 C49,276.8 49,274.45 49,272.1 C49,271.1 49,270.1 49,269.1 C49,268.768629 49.2686292,268.5 49.6,268.5 L49.6,268.5 C49.7676001,268.485984 49.9333886,268.542954 50.0569717,268.657031 C50.1805548,268.771107 50.2505851,268.931816 50.25,269.1 C50.25,270.1 50.25,271.1 50.25,272.1 C50.25,274.45 50.25,276.75 50.25,279.1 C50.2640165,279.2676 50.207046,279.433389 50.0929693,279.556972 C49.9788927,279.680555 49.8181842,279.750585 49.65,279.750004 L49.6,279.750004 Z M420.15,264.05 C419.991273,264.122753 419.808727,264.122753 419.65,264.05 C417.6,261.35 415.55,258.7 413.5,256.15 C413.387027,256.037419 413.323527,255.884491 413.323527,255.725 C413.323527,255.565509 413.387027,255.412581 413.5,255.3 C413.6139,255.17085 413.7778,255.096863 413.95,255.096863 C414.1222,255.096863 414.2861,255.17085 414.4,255.3 C416.4,257.85 418.5,260.3 420.55,263.2 C420.791278,263.451487 420.791278,263.848513 420.55,264.1 L420.15,264.05 Z M49.6,259.700047 L49.6,259.700047 C49.4318158,259.700585 49.2711073,259.630555 49.1570307,259.506972 C49.042954,259.383389 48.9859835,259.2176 49,259.05 C49,255.7 49.35,252.35 49.6,249.05 C49.5994149,248.881816 49.6694452,248.721107 49.7930283,248.607031 C49.9166114,248.492954 50.0823999,248.435984 50.25,248.45 C50.5971159,248.500083 50.8535945,248.799308 50.85,249.15 C50.85,252.4 50.4,255.8 50.25,259.15 C50.2002805,259.46948 49.9233026,259.703846 49.6,259.700047 Z M407.45,248.4 C407.29,248.466667 407.11,248.466667 406.95,248.4 L400.4,240.8 C400.287027,240.687419 400.223527,240.534491 400.223527,240.375 C400.223527,240.215509 400.287027,240.062581 400.4,239.95 C400.5139,239.82085 400.6778,239.746863 400.85,239.746863 C401.0222,239.746863 401.1861,239.82085 401.3,239.95 C403.45,242.35 405.65,244.95 407.85,247.5 C408.091278,247.751487 408.091278,248.148513 407.85,248.4 C407.721392,248.450203 407.578608,248.450203 407.45,248.4 L407.45,248.4 Z M51.2,239.75 L51.2,239.75 C50.8605779,239.698523 50.6197107,239.391965 50.65,239.05 C51.05,235.7 51.5,232.35 52.05,229.05 C52.0744135,228.88983 52.1625654,228.746341 52.2944065,228.652169 C52.4262475,228.557997 52.5905699,228.521147 52.75,228.55 C52.917208,228.558808 53.0712972,228.643306 53.1686196,228.779557 C53.2659421,228.915809 53.2958973,229.088973 53.25,229.25 C52.75,232.45 52.3,235.8 51.9,239.25 C51.8260967,239.569313 51.5260216,239.783653 51.2,239.75 L51.2,239.75 Z M394.15,233.4 C394.006863,233.464171 393.843137,233.464171 393.7,233.4 C391.45,230.95 389.1,228.4 386.8,226.15 C386.558722,225.898513 386.558722,225.501487 386.8,225.25 C387.060246,225.031587 387.439754,225.031587 387.7,225.25 C390,227.65 392.35,230.25 394.6,232.55 C394.841278,232.801487 394.841278,233.198513 394.6,233.45 C394.448315,233.477014 394.292056,233.459652 394.15,233.4 L394.15,233.4 Z M54.6,220 L54.6,220 C54.4289569,219.977119 54.2760465,219.881702 54.1803237,219.738118 C54.084601,219.594533 54.0553347,219.416686 54.1,219.25 C54.75,216 55.55,212.7 56.35,209.25 C56.3829941,209.076121 56.4910714,208.925678 56.6453246,208.83891 C56.7995778,208.752143 56.9842694,208.737903 57.15,208.8 C57.4709223,208.896602 57.6657851,209.221373 57.6,209.55 C56.75,212.75 56,216.05 55.3,219.3 C55.3152694,219.489923 55.2464389,219.676981 55.11171,219.81171 C54.9769811,219.946439 54.7899226,220.015269 54.6,220 L54.6,220 Z M380.45,219.05 C380.308476,219.121314 380.141524,219.121314 380,219.05 C377.55,216.7 375,214.35 372.75,212.1 C372.637027,211.987419 372.573527,211.834491 372.573527,211.675 C372.573527,211.515509 372.637027,211.362581 372.75,211.25 C373.001487,211.008722 373.398513,211.008722 373.65,211.25 C376.05,213.5 378.65,215.85 380.9,218.2 C381.141278,218.451487 381.141278,218.848513 380.9,219.1 C380.680231,219.235756 380.398242,219.215614 380.2,219.05 L380.45,219.05 Z M365.75,205.3 C365.619981,205.342046 365.480019,205.342046 365.35,205.3 C362.9,203.05 360.35,200.85 357.8,198.7 C357.581587,198.439754 357.581587,198.060246 357.8,197.8 C358.051487,197.558722 358.448513,197.558722 358.7,197.8 L366.25,204.4 C366.468413,204.660246 366.468413,205.039754 366.25,205.3 C366.025209,205.458775 365.724791,205.458775 365.5,205.3 L365.75,205.3 Z M59.6,200.6 L59.6,200.6 C59.291471,200.464393 59.1233684,200.128188 59.2,199.8 C60.25,196.55 61.35,193.35 62.55,190.3 C62.7022986,190.010921 63.0343295,189.865657 63.35,189.95 C63.505626,190.005657 63.6314012,190.123045 63.6976481,190.274466 C63.763895,190.425888 63.7647459,190.597931 63.7,190.75 C62.55,193.75 61.45,196.95 60.4,200.15 C60.3028991,200.494823 59.9451093,200.69608 59.6,200.6 Z M350.3,192.25 C350.171392,192.300203 350.028608,192.300203 349.9,192.25 C347.3,190.15 344.9,188 342.1,186 C341.890977,185.763208 341.882429,185.410429 342.079739,185.163791 C342.277049,184.917154 342.6231,184.848054 342.9,185 C345.45,187.05 347.9,189.15 350.7,191.3 C350.812973,191.412581 350.876473,191.565509 350.876473,191.725 C350.876473,191.884491 350.812973,192.037419 350.7,192.15 C350.57973,192.222736 350.440349,192.257581 350.3,192.25 L350.3,192.25 Z M66.65,181.75 L66.65,181.75 C66.489852,181.685721 66.3651339,181.555599 66.3077002,181.392871 C66.2502666,181.230142 66.2656786,181.050563 66.35,180.9 C67.75,177.85 69.3,174.85 70.9,171.95 C70.9624821,171.682687 71.1861641,171.483446 71.4588958,171.452175 C71.7316274,171.420904 71.9946011,171.564344 72.1159665,171.810577 C72.2373319,172.056811 72.1909196,172.352743 72,172.55 C70.4,175.4 68.9,178.4 67.45,181.45 C67.3845707,181.596639 67.2630935,181.710934 67.1127431,181.767315 C66.9623927,181.823696 66.7957165,181.81746 66.65,181.75 L66.65,181.75 Z M334.6,179.900008 L334.25,179.900008 C331.6,177.9 328.85,175.9 326.15,174 C325.948439,173.779356 325.923299,173.449705 326.089071,173.201047 C326.254843,172.95239 326.568805,172.848807 326.85,172.95 C329.6,174.9 332.3,176.9 335,178.9 C335.112973,179.012581 335.176473,179.165509 335.176473,179.325 C335.176473,179.484491 335.112973,179.637419 335,179.75 C334.889585,179.847381 334.747221,179.900768 334.6,179.900008 Z M318.25,168.25 C318.139524,168.30375 318.010476,168.30375 317.9,168.25 L309.6,162.65 C309.310051,162.470507 309.220507,162.089949 309.4,161.8 C309.579493,161.510051 309.960051,161.420507 310.25,161.6 C313.083333,163.4 315.883333,165.25 318.65,167.15 C318.860923,167.394079 318.860923,167.755921 318.65,168 C318.566823,168.144942 318.416734,168.238748 318.25,168.25 L318.25,168.25 Z M76.45,164.5 L76.1,164.5 C75.9870273,164.387419 75.9235269,164.234491 75.9235269,164.075 C75.9235269,163.915509 75.9870273,163.762581 76.1,163.65 C78,160.8 80,158.1 82.05,155.5 C82.1625811,155.387027 82.3155091,155.323527 82.475,155.323527 C82.6344909,155.323527 82.7874189,155.387027 82.9,155.5 C83.0291503,155.6139 83.1031373,155.7778 83.1031373,155.95 C83.1031373,156.1222 83.0291503,156.2861 82.9,156.4 C80.9,158.95 78.9,161.4 77.05,164.4 C76.888308,164.550959 76.6519116,164.590359 76.45,164.5 L76.45,164.5 Z M301.45,157.4 L301.1,157.4 C298.3,155.65 295.4,153.95 292.5,152.4 C292.312436,152.283889 292.201063,152.076533 292.207837,151.856042 C292.21461,151.63555 292.338499,151.435422 292.532837,151.331042 C292.727174,151.226662 292.962436,151.233889 293.15,151.35 C296.05,153 298.95,154.75 301.75,156.35 C301.862973,156.462581 301.926473,156.615509 301.926473,156.775 C301.926473,156.934491 301.862973,157.087419 301.75,157.2 C301.662849,157.308559 301.537774,157.380031 301.4,157.4 L301.45,157.4 Z M88.95,148.9 C88.8205916,148.945753 88.6794084,148.945753 88.55,148.9 C88.4370273,148.787419 88.3735269,148.634491 88.3735269,148.475 C88.3735269,148.315509 88.4370273,148.162581 88.55,148.05 C90.9,145.6 93.55,143.05 95.85,141.1 C96.1014875,140.858722 96.4985125,140.858722 96.75,141.1 C96.9912779,141.351487 96.9912779,141.748513 96.75,142 C94.3,144.15 91.75,146.45 89.55,148.85 C89.3579578,148.98197 89.1099664,149.001046 88.9,148.9 L88.95,148.9 Z M283.95,147.4 L283.65,147.4 C280.716667,145.8 277.766667,144.25 274.8,142.75 C274.622919,142.659699 274.496891,142.493335 274.457907,142.298419 C274.418924,142.103502 274.471271,141.901463 274.6,141.75 C274.673942,141.598536 274.808181,141.485157 274.969882,141.437598 C275.131582,141.390039 275.305829,141.412686 275.45,141.5 C278.35,142.95 281.35,144.55 284.3,146.15 C284.412973,146.262581 284.476473,146.415509 284.476473,146.575 C284.476473,146.734491 284.412973,146.887419 284.3,147 C284.269888,147.173709 284.158329,147.322454 284,147.4 L283.95,147.4 Z M266.1,138.35 L265.8,138.35 C262.85,136.95 259.75,135.55 256.7,134.25 C256.387879,134.093278 256.255399,133.717918 256.4,133.4 C256.465429,133.253361 256.586906,133.139066 256.737257,133.082685 C256.887607,133.026304 257.054284,133.03254 257.2,133.1 C260.3,134.45 263.35,135.8 266.35,137.25 C266.496639,137.315429 266.610934,137.436906 266.667315,137.587257 C266.723696,137.737607 266.71746,137.904284 266.65,138.05 C266.546397,138.229707 266.35732,138.343153 266.15,138.35 L266.1,138.35 Z M103.95,135.8 C103.750252,135.813893 103.558734,135.718135 103.45,135.55 C103.337027,135.437419 103.273527,135.284491 103.273527,135.125 C103.273527,134.965509 103.337027,134.812581 103.45,134.7 C106.2,132.75 109,130.9 111.9,129.25 C112.193981,129.143291 112.522277,129.261067 112.681381,129.53032 C112.840485,129.799574 112.785286,130.143961 112.55,130.35 C109.7,132 106.85,133.8 104.2,135.7 C104.140188,135.745571 104.072344,135.779494 104,135.8 L103.95,135.8 Z M247.7,130.4 L247.7,130.4 C244.6,129.2 241.45,128 238.35,126.9 C238.025225,126.78204 237.849503,126.430597 237.95,126.1 C238.102299,125.810921 238.434329,125.665657 238.75,125.75 C241.9,126.85 245.05,128.05 248.15,129.25 C248.481371,129.25 248.75,129.518629 248.75,129.85 C248.75,130.181371 248.481371,130.45 248.15,130.45 L247.7,130.4 Z M121.25,125.8 C121.020213,125.781034 120.814503,125.650127 120.7,125.45 C120.555399,125.132082 120.687879,124.756722 121,124.6 C124,123.25 127.1,121.95 130.3,120.8 C130.452069,120.735254 130.624112,120.736105 130.775534,120.802352 C130.926955,120.868599 131.044343,120.994374 131.1,121.15 C131.206491,121.466997 131.055085,121.813068 130.75,121.95 C127.6,123.1 124.5,124.4 121.55,125.75 L121.25,125.8 Z M228.8,123.75 L228.8,123.75 C225.6,122.75 222.4,121.85 219.2,121 C218.893052,120.886013 218.706131,120.574477 218.75,120.25 C218.783545,120.063477 218.896824,119.900883 219.060174,119.804795 C219.223523,119.708707 219.420674,119.688695 219.6,119.75 C222.75,120.6 226,121.5 229.25,122.55 C229.581371,122.55 229.85,122.818629 229.85,123.15 C229.85,123.481371 229.581371,123.75 229.25,123.75 L228.8,123.75 Z M140.1,119 C139.829736,118.978836 139.595991,118.803527 139.5,118.55 C139.40392,118.204891 139.605177,117.847101 139.95,117.75 C143.1,116.9 146.4,116.15 149.95,115.5 C150.109361,115.454821 150.28031,115.477533 150.422347,115.562755 C150.564383,115.647977 150.66487,115.788126 150.7,115.95 C150.761895,116.29373 150.541095,116.62493 150.2,116.7 C146.9,117.35 143.65,118.1 140.5,118.95 L140.1,119 Z M209.6,118.6 L209.6,118.6 C206.3,117.9 203,117.25 199.6,116.75 C199.258905,116.67493 199.038105,116.34373 199.1,116 C199.124413,115.83983 199.212565,115.696341 199.344406,115.602169 C199.476248,115.507997 199.64057,115.471147 199.8,115.5 C203,116.05 206.35,116.65 209.8,117.4 C210.141095,117.47507 210.361895,117.80627 210.3,118.15 C210.225495,118.463729 209.916345,118.662468 209.6,118.6 Z M189.6,115.4 L189.6,115.4 C186.3,115.05 182.95,114.8 179.6,114.65 C179.334737,114.725774 179.050538,114.625849 178.891067,114.400738 C178.731597,114.175627 178.731597,113.874373 178.891067,113.649262 C179.050538,113.424151 179.334737,113.324226 179.6,113.4 L179.6,113.4 C182.9,113.4 186.3,113.8 189.6,114.15 C189.769239,114.161695 189.925617,114.244487 190.030426,114.377879 C190.135235,114.511272 190.178677,114.682799 190.15,114.85 C190.10869,115.1349 189.8849,115.35869 189.6,115.4 L189.6,115.4 Z M159.6,115.4 C159.44568,115.414089 159.292577,115.362424 159.178347,115.257713 C159.064116,115.153001 158.999358,115.00496 159,114.85 C158.969978,114.687759 159.014379,114.52061 159.120956,114.394655 C159.227534,114.2687 159.385028,114.197246 159.55,114.2 C162.8,113.85 166.15,113.6 169.55,113.5 L169.55,113.5 C169.870964,113.523871 170.126129,113.779036 170.15,114.1 C170.164016,114.2676 170.107046,114.433389 169.992969,114.556972 C169.878893,114.680555 169.718184,114.750585 169.55,114.75 C166.2,114.75 162.85,115.05 159.55,115.4 L159.6,115.4 Z" id="Shape" fill="#D8D5DB"></path>
                    <path d="M469.6,395.6 C469.6,396.2 469.6,396.7 469.6,397.25 C468.35,411.2 456.35,440.95 444.6,467.25 C445,476.75 445.3,485.25 445.35,492.25 C445.35,493.55 445.35,494.75 445.35,495.95 L443.9,495.95 C444.25,502.15 444.7,512.9 445.05,525.25 C401.8,551.4 348.2,567.25 292.4,580.25 L282.85,582.4 C274.555793,584.284058 266.047985,585.057496 257.55,584.7 C257.038756,582.607625 256.853242,580.448922 257,578.3 C258.181932,550.110969 261.120971,522.023104 265.8,494.2 L262.7,493.75 C274.05,455.45 279.75,400.2 282.7,352.25 L282.7,352.25 C283.05,346.6 283.35,341.1 283.6,335.65 C276.35,343.05 271.35,347.65 271.35,347.65 L256,322.4 C237.05,336.1 219.15,348.2 210.4,353.8 C203.15,360.6 190.8,361.6 181.1,348.8 C165.4,328.25 143.25,242 140.65,227.35 C140.270578,227.206562 139.916207,227.004064 139.6,226.75 C136,221.75 123.4,194.5 124.6,189.2 C125.8,183.9 131.7,172.45 138.55,170.9 C137.75,168.45 136.85,165.9 135.55,162.35 C132.65,154.45 129.2,146.45 134.4,147.35 C139.6,148.25 151.5,177.35 153.55,182.35 C153.85,180 154.15,178.1 154.15,178.1 C155.75,173.4 164.15,170.9 162.9,178.1 C161.45,188.1 164.95,193.1 164.8,201.35 C164.8,201.8 164.8,202.3 164.8,203 C164.820022,203.299666 164.820022,203.600334 164.8,203.9 C164.826673,204.115846 164.826673,204.334154 164.8,204.55 C164.8,204.55 164.8,204.8 164.8,204.9 C163.582691,211.044541 161.423925,216.964282 158.4,222.45 L158.4,222.45 C163.85,240.25 188.85,286.8 203.4,312.45 C212.3,305.05 223.4,296.25 234.9,287.45 L233.9,285.8 C233.9,285.8 293.2,230.35 323.9,226.15 C324.35,224 324.65,221.65 324.95,219.2 C325.25,216.75 325.45,212.6 325.55,209.2 C303,208.95 300.9,192.35 303.15,171.25 L299.6,170.35 L304.85,156.75 L304.85,155.75 C304.273508,155.078957 303.938971,154.233812 303.9,153.35 C303.9,151.7 304.35,150.3 305.25,150.25 C305.378608,150.199797 305.521392,150.199797 305.65,150.25 C305.65,149.05 306.05,147.85 306.2,146.65 C306.6,144 307.1,141.65 307.6,139.2 C306.262792,138.937176 304.887208,138.937176 303.55,139.2 L303.15,136.75 C304.803641,136.455317 306.496359,136.455317 308.15,136.75 C309.809452,130.046281 312.490844,123.637921 316.1,117.75 C308.9,117.25 305.5,114.9 310.5,109.1 C318.25,100.1 354.95,95.6 373.45,99.4 C379.95,100.75 384.2,103.1 384.25,106.6 C384.25,107 384.25,107.25 384.25,107.6 L384.25,107.6 C386.142142,106.799351 387.770858,105.482517 388.95,103.8 L391.05,105.2 C389.843297,106.907256 388.272039,108.324803 386.45,109.35 L385.7,109.75 C405.5,122.65 377.5,191.75 377.4,191.75 C376.85,203.6 376.5,215.3 376.55,223.55 C394.35,225.6 405.6,230.8 413.05,238.95 C433.05,255 463.75,320.85 463.75,320.85 L451.2,324.15 C460.15,352.85 467.75,381.65 469.95,391.3 C470.015876,392.742371 469.898268,394.187269 469.6,395.6 Z" id="Path" fill="#D1CDD3"></path>
                    <rect id="Rectangle" fill="#4D8DFF" opacity="0.3" transform="translate(209.575000, 154.125000) rotate(180.000000) translate(-209.575000, -154.125000) " x="42.25" y="23.5" width="334.65" height="261.25" rx="33.6"></rect>
                    <path d="M354.6,308.4 L40,308.4 C17.90861,308.4 0,290.49139 0,268.4 L0,40 C0,17.90861 17.90861,0 40,0 L354.6,0 C376.69139,0 394.600282,17.90861 394.600282,40 L394.600282,268.25 C394.63988,278.884625 390.443219,289.097359 382.937437,296.631288 C375.431655,304.165217 365.2347,308.4 354.6,308.4 Z M40,1.1 C18.5275437,1.12754648 1.12754648,18.5275437 1.1,40 L1.1,268.25 C1.12754648,289.722456 18.5275437,307.122454 40,307.15 L354.6,307.15 C376.072456,307.122454 393.472454,289.722456 393.5,268.25 L393.5,40 C393.472454,18.5275437 376.072456,1.12754648 354.6,1.1 L40,1.1 Z" id="Shape" fill="#4D8DFF" opacity="0.3"></path>
                    <g id="Group" opacity="0.3" transform="translate(69.850000, 54.850000)" fill="#4D8DFF">
                        <rect id="Rectangle" transform="translate(28.100000, 24.225000) rotate(180.000000) translate(-28.100000, -24.225000) " x="0.15" y="2.4" width="55.9" height="43.65" rx="5.6"></rect>
                        <rect id="Rectangle" transform="translate(102.500000, 24.225000) rotate(180.000000) translate(-102.500000, -24.225000) " x="74.55" y="2.4" width="55.9" height="43.65" rx="5.6"></rect>
                        <rect id="Rectangle" transform="translate(176.950000, 24.225000) rotate(180.000000) translate(-176.950000, -24.225000) " x="149" y="2.4" width="55.9" height="43.65" rx="5.6"></rect>
                        <rect id="Rectangle" transform="translate(251.400000, 24.225000) rotate(180.000000) translate(-251.400000, -24.225000) " x="223.45" y="2.4" width="55.9" height="43.65" rx="5.6"></rect>
                    </g>
                    <g id="Group" opacity="0.3" transform="translate(69.850000, 129.850000)" fill="#4D8DFF">
                        <rect id="Rectangle" transform="translate(28.100000, 24.275000) rotate(180.000000) translate(-28.100000, -24.275000) " x="0.15" y="2.45" width="55.9" height="43.65" rx="5.6"></rect>
                        <rect id="Rectangle" transform="translate(102.500000, 24.275000) rotate(180.000000) translate(-102.500000, -24.275000) " x="74.55" y="2.45" width="55.9" height="43.65" rx="5.6"></rect>
                        <rect id="Rectangle" transform="translate(176.950000, 24.275000) rotate(180.000000) translate(-176.950000, -24.275000) " x="149" y="2.45" width="55.9" height="43.65" rx="5.6"></rect>
                        <rect id="Rectangle" transform="translate(251.400000, 24.275000) rotate(180.000000) translate(-251.400000, -24.275000) " x="223.45" y="2.45" width="55.9" height="43.65" rx="5.6"></rect>
                    </g>
                    <g id="Group" opacity="0.3" transform="translate(69.850000, 204.850000)" fill="#4D8DFF">
                        <rect id="Rectangle" transform="translate(28.100000, 24.275000) rotate(180.000000) translate(-28.100000, -24.275000) " x="0.15" y="2.45" width="55.9" height="43.65" rx="5.6"></rect>
                        <rect id="Rectangle" transform="translate(102.500000, 24.275000) rotate(180.000000) translate(-102.500000, -24.275000) " x="74.55" y="2.45" width="55.9" height="43.65" rx="5.6"></rect>
                        <rect id="Rectangle" transform="translate(176.950000, 24.275000) rotate(180.000000) translate(-176.950000, -24.275000) " x="149" y="2.45" width="55.9" height="43.65" rx="5.6"></rect>
                        <rect id="Rectangle" transform="translate(251.400000, 24.275000) rotate(180.000000) translate(-251.400000, -24.275000) " x="223.45" y="2.45" width="55.9" height="43.65" rx="5.6"></rect>
                    </g>
                    <rect id="Rectangle" fill="#4D8DFF" transform="translate(253.900000, 71.975000) rotate(180.000000) translate(-253.900000, -71.975000) " x="225.95" y="50.15" width="55.9" height="43.65" rx="5.6"></rect>
                    <rect id="Rectangle" fill="#FF4E4A" transform="translate(253.900000, 222.025000) rotate(180.000000) translate(-253.900000, -222.025000) " x="225.95" y="200.2" width="55.9" height="43.65" rx="5.6"></rect>
                    <rect id="Rectangle" fill="#FFC84D" transform="translate(105.000000, 147.025000) rotate(180.000000) translate(-105.000000, -147.025000) " x="77.05" y="125.2" width="55.9" height="43.65" rx="5.6"></rect>
                    <path d="M415.95,148.6 C414.25,159.5 410.95,218.6 412.3,232.1 C413.65,245.6 347.3,249.7 356.15,234.65 C365,219.6 358.7,169.65 358.7,169.65 L415.95,148.6 Z" id="Path" fill="#FFAD69"></path>
                    <path d="M411.350054,150.3 L358.7,169.55 C360.671616,186.023281 361.140214,202.641794 360.1,219.2 C381.8,210.25 377,192.05 377,182.25 C377,173.35 411.4,152 411.350054,150.3 Z" id="Path" fill="#D88344"></path>
                    <polygon id="Path" fill="#D88344" points="341.95 152.55 333.75 170.05 343.75 174.1"></polygon>
                    <path d="M341.8,146.75 C336.8,180.4 328.6,213.95 369.4,208.4 C410.2,202.85 416.5,150.65 416.4,140.75 C415.75,88.15 351.4,80.65 341.8,146.75 Z" id="Path" fill="#FFAD69"></path>
                    <path d="M421.35,109.95 C423.456982,108.861171 425.286986,107.304813 426.7,105.4 L424.6,104 C423.323915,105.711728 421.590901,107.028819 419.6,107.8 C419.627062,107.450523 419.627062,107.099477 419.6,106.75 C419.6,93.15 356.3,97.05 345.85,109.2 C339.65,116.4 346.25,118.3 356.95,117.95 C356.15554,118.561478 355.563244,119.397661 355.25,120.35 C348.2,154.9 381.5,188.9 385.25,191.8 L412.45,191.8 C412.45,191.8 440.95,122.65 421.35,109.95 Z" id="Path" fill="#232323"></path>
                    <path d="M505.35,391.35 C501.75,375.3 483,305.85 468.1,272.55 L430.05,280.65 C430.05,280.65 454.6,362.75 467.65,393.4 C464.6,409.9 449.2,486.65 439.7,508.1 C435.5,518.1 451.4,521.95 455.25,517.15 C459.1,512.35 502.8,424.55 505.25,397.15 C505.25,396.55 505.25,396.05 505.25,395.5 C505.49952,394.130343 505.533261,392.730085 505.35,391.35 L505.35,391.35 Z" id="Path" fill="#FFAD69"></path>
                    <path d="M448.2,238.7 C468.2,254.35 499.15,320.9 499.15,320.9 L433.65,337.9 C433.65,337.9 395.55,197.5 448.2,238.7 Z" id="Path" fill="#E5AA33"></path>
                    <path d="M479.6,500.2 C468.923487,509.614374 457.370868,517.985837 445.1,525.2 C401.85,551.35 348.25,567.2 292.45,580.2 C292.400025,579.550961 292.400025,578.899039 292.45,578.25 C294.25,547.3 297.45,511.95 302.45,489.5 L445.5,492.35 L479.3,493.05 C479.3,494.75 479.6,497.15 479.6,500.2 Z" id="Path" fill="#232323"></path>
                    <path d="M400.3,222.75 C439.55,224.05 452.85,237.3 459.6,260.25 C467.3,286.25 480.85,443.5 480.85,496 C480.85,496 363.3,504.35 298.2,493.65 C318.6,424.7 320.8,300.75 321.25,263.65 C321.55,236.1 350.5,221.1 400.3,222.75 Z" id="Path" fill="#FFC84D"></path>
                    <path d="M408.15,251.250085 C406.967785,251.258002 405.852927,250.700573 405.15,249.75 L394.6,235.55 C393.747763,234.413684 393.610678,232.893389 394.245898,231.622949 C394.881118,230.352509 396.179605,229.55 397.6,229.55 L413.95,229.55 C415.15247,229.58326 416.268179,230.183912 416.958014,231.16939 C417.647849,232.154869 417.830332,233.408778 417.45,234.55 L411.75,248.75 C411.237827,250.001485 410.091544,250.880302 408.75,251.05 L408.15,251.250085 Z M397.5,232.05 C397.013022,232.03934 396.564205,232.312533 396.35,232.75 C396.094949,233.145804 396.094949,233.654196 396.35,234.05 L407,248.25 C407.265961,248.610798 407.704746,248.801574 408.15,248.75 C408.609659,248.69835 408.998709,248.38711 409.15,247.95 L414.85,233.8 C415.075239,233.431708 415.075239,232.968292 414.85,232.6 C414.6147,232.251826 414.2202,232.045183 413.8,232.05 L397.5,232.05 Z" id="Shape" fill="#FFFFFF"></path>
                    <path d="M342.65,153.1 C342.65,154.75 342.2,156.15 341.3,156.2 C340.4,156.25 339.6,155 339.5,153.35 C339.4,151.7 339.95,150.35 340.85,150.25 C341.75,150.15 342.55,151.45 342.65,153.1 Z" id="Path"></path>
                    <path d="M348.65,143.2 C346.59273,140.054264 342.844134,138.456178 339.15,139.15 L338.6,136.75 C343.289137,135.799309 348.08821,137.774236 350.75,141.75 L348.65,143.2 Z" id="Path"></path>
                    <path d="M321.1,272.8 C320.8,290.95 320.1,319.9 318.15,352.25 C334.8,332.25 351.15,308.6 352.1,290.85 C353.45,266.45 339.6,264.95 321.1,272.8 Z" id="Path" fill="#E5AA33"></path>
                    <path d="M343.25,281.25 L323.25,248 C323.25,248 268.25,287.65 238.7,312.2 C224.1,286.5 199.15,239.95 193.7,222.2 C193.7,222.2 193.7,222.2 193.7,222.2 C196.714254,216.732568 198.856703,210.82818 200.05,204.7 C200.079637,204.585216 200.079637,204.464784 200.05,204.35 C200.05,204.35 200.05,203.9 200.05,203.7 C200.071803,203.400396 200.071803,203.099604 200.05,202.8 C200.05,202.1 200.05,201.55 200.05,201.1 C200.05,193.05 196.7,188.1 198.15,177.9 C199.15,170.75 191,173.2 189.4,177.9 L188.75,182.1 C186.7,177.1 174.35,147.75 169.65,147.1 C164.95,146.45 167.9,154.35 170.8,162.1 C172.05,165.55 173,168.25 173.8,170.65 C166.9,172.25 160.8,184.05 159.85,189 C158.9,193.95 171.4,221.55 174.85,226.55 C175.117234,226.884154 175.438301,227.171424 175.8,227.4 C178.35,242.1 200.8,328.3 216.2,348.9 C225.9,361.65 238.3,360.65 245.55,353.9 C263.35,342.55 318.05,304.95 343.25,281.25 Z" id="Path" fill="#FFAD69"></path>
                    <path d="M377,248 C375,284.7 307,347.65 307,347.65 L269.1,285.65 C269.1,285.65 380.7,181.25 377,248 Z" id="Path" fill="#FFC84D"></path>
                    <path d="M356,157.15 C354.5,165.95 352.3,174.7 360.55,174.05 C368.8,173.4 370.9,159.7 371.05,157.1 C371.75,143.1 358.95,139.75 356,157.15 Z" id="Path" fill="#FFAD69"></path>
                </g>
            </g>
        </g>
    </g>
</svg>