
<svg width="535px" height="520.035px" viewBox="0 0 535 520.035" version="1.1" xmlns="http://www.w3.org/2000/svg" xmlns:xlink="http://www.w3.org/1999/xlink">
    <defs>
        <polygon id="path-saa48-5jp3-1" points="0.000642595167 3.913 532.615 3.913 532.615 470 0.000642595167 470"></polygon>
        <polygon id="path-saa48-5jp3-3" points="0 520.035 532.615 520.035 532.615 0 0 0"></polygon>
    </defs>
    <g id="Page-1" stroke="none" stroke-width="1" fill="none" fill-rule="evenodd">
        <g id="01-Productly" transform="translate(-144.000000, -2072.000000)">
            <g id="Image" transform="translate(144.000000, 2072.000000)">
                <g id="Group-3" transform="translate(0.000000, 50.035000)">
                    <mask id="mask-saa48-5jp3-2" fill="white">
                        <use xlink:href="#path-saa48-5jp3-1"></use>
                    </mask>
                    <g id="Clip-2"></g>
                    <path d="M499.7145,258.163 C498.0645,260.813 496.4195,263.418 494.6645,266.013 C479.3145,289.068 460.2645,311.213 439.1695,331.568 C438.2145,332.513 437.2145,333.468 436.2195,334.413 C433.2145,337.263 430.1145,340.118 427.0145,342.863 C421.6695,347.768 416.1645,352.513 410.5645,357.063 C407.6145,359.563 404.5695,362.018 401.5645,364.413 C366.6695,392.018 329.3695,416.168 292.6145,434.363 C281.2195,440.068 269.8195,445.163 258.5695,449.563 C199.8645,472.818 145.2195,478.268 107.5195,455.213 C95.5145,447.913 85.2645,437.713 77.1145,424.268 C75.8145,422.113 74.5145,419.963 73.2145,417.818 C61.1695,397.663 49.6645,377.418 39.5645,357.063 C37.1645,352.313 34.9195,347.618 32.7195,342.863 C-3.9305,264.113 -17.8855,184.413 34.0645,106.013 C54.2645,75.518 87.4195,51.768 127.2145,34.963 C138.5695,30.118 150.4145,25.913 162.7195,22.263 C168.7695,20.363 174.8645,18.713 181.1145,17.218 C188.9695,15.218 196.9645,13.468 205.0645,11.963 C211.2695,10.768 217.4645,9.718 223.7145,8.813 C226.3145,8.468 228.9145,8.118 231.5145,7.763 C249.9645,5.418 268.6645,4.113 287.2695,3.968 C289.7145,3.913 292.1645,3.913 294.5695,3.913 C305.8195,3.968 316.9645,4.413 327.9645,5.318 C330.9145,5.518 333.8645,5.768 336.8145,6.113 C392.9645,11.568 444.4645,27.663 479.4645,54.368 C487.1145,60.218 493.9695,66.513 499.9145,73.368 C501.0195,74.618 502.0695,75.868 503.0645,77.163 C503.4145,77.563 503.7195,77.963 504.0645,78.368 C511.3145,87.463 517.1145,96.868 521.4695,106.468 C543.7195,154.918 530.7145,208.363 499.7145,258.163" id="Fill-1" fill="#FDE6D6" mask="url(#mask-saa48-5jp3-2)"></path>
                </g>
                <path d="M386.5405,454.6385 C373.0505,468.7785 363.4455,488.9985 377.9555,500.9785 C394.1605,514.3535 427.5855,511.2485 444.8655,486.0135 C455.9105,469.8935 461.7555,444.4085 449.5205,430.1135 C439.0455,417.8735 403.0905,437.2885 386.5405,454.6385" id="Fill-4" fill="#E8E5EA"></path>
                <path d="M190.366,450.9515 C187.016,451.0965 183.616,451.2015 180.316,451.2015 C179.966,451.2015 179.716,451.4965 179.716,451.8515 C179.716,452.1465 179.966,452.4515 180.316,452.4515 C183.666,452.4515 187.016,452.3465 190.416,452.2015 C190.766,452.2015 191.016,451.8965 191.016,451.5515 C190.966,451.2515 190.666,450.9515 190.366,450.9515 M170.316,451.0515 C166.916,450.9515 163.516,450.7515 160.316,450.5515 C159.866,450.5015 159.666,450.7515 159.616,451.0965 C159.616,451.4515 159.866,451.7515 160.216,451.8015 C163.466,452.0015 166.866,452.2015 170.266,452.3015 C170.616,452.3015 170.916,452.0515 170.916,451.6965 C170.916,451.3515 170.666,451.0515 170.316,451.0515 M210.366,449.5015 C207.016,449.8465 203.666,450.1515 200.366,450.4015 C200.016,450.4015 199.766,450.6965 199.766,451.0515 C199.816,451.4015 200.066,451.6515 200.416,451.6515 L200.466,451.6515 C203.766,451.4015 207.116,451.0965 210.466,450.7515 C210.816,450.6965 211.066,450.4015 211.066,450.0465 C211.016,449.7015 210.716,449.4465 210.366,449.5015 M150.316,449.5515 C147.016,449.1965 143.666,448.7015 140.416,448.1465 C140.066,448.1015 139.766,448.3015 139.666,448.6515 C139.616,448.9965 139.866,449.3015 140.216,449.3515 C143.466,449.9515 146.816,450.4015 150.166,450.8015 L150.266,450.8015 C150.566,450.8015 150.816,450.6015 150.866,450.2465 C150.916,449.9015 150.666,449.5965 150.316,449.5515 M230.266,446.8515 C226.866,447.3465 223.566,447.8515 220.316,448.3015 C219.966,448.3465 219.716,448.6515 219.766,448.9965 C219.816,449.3015 220.116,449.5515 220.416,449.5515 L220.466,449.5515 C223.716,449.1015 227.066,448.5965 230.466,448.0515 C230.766,448.0015 231.016,447.7015 230.966,447.3465 C230.916,447.0015 230.616,446.8015 230.266,446.8515 M130.616,446.1515 C127.316,445.4015 124.066,444.5515 120.916,443.6515 C120.566,443.5515 120.216,443.7015 120.116,444.0515 C120.016,444.3965 120.216,444.7515 120.566,444.8465 C123.616,445.6965 126.716,446.5515 129.866,447.3015 C130.016,447.3465 130.166,447.3465 130.316,447.4015 L130.466,447.4015 C130.566,447.4015 130.666,447.3465 130.766,447.3015 L130.816,447.2515 C130.966,447.2015 131.016,447.0515 131.066,446.8965 C131.116,446.6015 130.916,446.2515 130.616,446.1515 M249.966,443.1015 C246.716,443.7965 243.366,444.5015 240.216,445.1015 L240.116,445.1015 C239.766,445.1515 239.566,445.4465 239.616,445.8015 C239.666,446.0965 239.966,446.2965 240.266,446.2965 L240.366,446.2965 C242.616,445.8965 244.916,445.4465 247.216,444.9515 C248.216,444.7515 249.216,444.5515 250.216,444.3015 C250.566,444.2515 250.766,443.9015 250.716,443.5515 C250.616,443.2515 250.316,443.0015 249.966,443.1015 M269.466,438.3465 C266.316,439.1965 263.066,440.0465 259.766,440.8465 C259.416,440.9515 259.216,441.2515 259.316,441.6015 C259.366,441.8965 259.616,442.0965 259.916,442.0965 C259.966,442.0965 260.016,442.0965 260.066,442.0515 C263.366,441.2515 266.666,440.4015 269.816,439.5965 C270.116,439.5015 270.316,439.1515 270.266,438.7965 C270.166,438.5015 269.816,438.3015 269.466,438.3465 M111.416,440.4465 C110.316,440.0465 109.266,439.6465 108.166,439.1965 C106.116,438.3965 104.166,437.5015 102.216,436.6015 C101.916,436.4515 101.516,436.6015 101.366,436.8965 C101.216,437.2015 101.366,437.6015 101.666,437.7465 C103.766,438.7515 105.966,439.6465 108.166,440.5515 C109.066,440.9515 110.016,441.2965 110.966,441.6515 L111.216,441.6515 C111.466,441.6515 111.716,441.4965 111.816,441.2515 C111.916,440.9515 111.766,440.6015 111.416,440.4465 M288.716,432.7465 C288.066,432.9465 287.416,433.1965 286.716,433.3965 C284.266,434.1515 281.716,434.9515 279.166,435.6965 C278.816,435.8015 278.616,436.0965 278.716,436.4515 C278.816,436.7515 279.066,436.8965 279.316,436.8965 L279.516,436.8965 C282.016,436.1515 284.566,435.4015 286.966,434.6465 C287.716,434.3965 288.416,434.1965 289.116,433.9515 C289.416,433.8515 289.616,433.5015 289.516,433.1465 C289.416,432.8515 289.066,432.6515 288.716,432.7465 M93.316,432.0015 L92.966,431.7515 C90.166,430.1515 87.466,428.4515 84.866,426.6515 C84.616,426.4515 84.216,426.5515 84.016,426.8515 C83.816,427.0965 83.916,427.5015 84.166,427.7015 C86.766,429.4465 89.516,431.2015 92.316,432.8515 L92.716,433.1015 C92.816,433.1465 92.916,433.1465 93.016,433.1465 C93.266,433.1465 93.466,433.0515 93.566,432.8515 C93.766,432.5465 93.616,432.1465 93.316,432.0015 M307.716,426.2965 C304.566,427.4515 301.366,428.5515 298.266,429.6465 C297.916,429.7515 297.766,430.1015 297.866,430.4015 C297.966,430.6965 298.166,430.8465 298.466,430.8465 C298.516,430.8465 298.566,430.8465 298.666,430.8015 C301.816,429.7515 304.966,428.5965 308.116,427.4515 C308.466,427.3465 308.616,427.0015 308.516,426.6515 C308.366,426.2965 307.966,426.1515 307.716,426.2965 M327.216,419.3015 C327.066,418.9515 326.716,418.7965 326.416,418.9515 C323.366,420.2015 320.216,421.4965 317.066,422.7015 C316.766,422.8515 316.616,423.1965 316.716,423.5515 C316.816,423.7965 317.066,423.9515 317.316,423.9515 C317.366,423.9515 317.466,423.9015 317.566,423.9015 C320.716,422.6515 323.866,421.3515 326.866,420.1015 C327.216,419.9515 327.366,419.5965 327.216,419.3015 M76.866,420.6965 C75.716,419.8015 74.566,418.8515 73.516,417.9465 C72.066,416.6965 70.716,415.4015 69.366,414.1515 C69.116,413.9015 68.716,413.9015 68.466,414.1515 C68.216,414.3965 68.216,414.8015 68.466,415.0465 C70.066,416.5515 71.716,418.0515 73.466,419.5015 C74.316,420.2465 75.166,421.0015 76.066,421.6965 C76.166,421.8015 76.316,421.8515 76.466,421.8515 C76.666,421.8515 76.816,421.7515 76.966,421.6015 C77.166,421.3515 77.116,420.9515 76.866,420.6965 M345.616,411.0965 C345.466,410.7515 345.066,410.6465 344.766,410.8015 C341.866,412.1465 338.916,413.5515 335.616,415.0015 C335.316,415.1015 335.166,415.5015 335.316,415.8015 C335.416,416.0515 335.666,416.2015 335.866,416.2015 C335.966,416.2015 336.066,416.1515 336.116,416.0965 C339.416,414.6465 342.416,413.3015 345.316,411.8965 C345.616,411.7515 345.766,411.4015 345.616,411.0965 M62.466,406.8965 C60.266,404.3965 58.166,401.7515 56.266,399.1015 C56.066,398.7965 55.666,398.7515 55.366,398.9515 C55.116,399.1515 55.066,399.5515 55.266,399.8015 C57.016,402.3015 58.966,404.7515 60.966,407.0965 C61.166,407.3015 61.316,407.5465 61.516,407.7465 C61.616,407.8515 61.816,407.9465 61.966,407.9465 C62.116,407.9465 62.266,407.9015 62.416,407.8015 C62.616,407.6015 62.666,407.3465 62.566,407.0965 C62.566,407.0015 62.516,406.9465 62.466,406.8965 M363.566,402.0515 C363.416,401.7515 363.016,401.6515 362.716,401.8015 C359.866,403.3465 356.816,404.9015 353.816,406.4015 C353.516,406.5515 353.416,406.8515 353.516,407.0965 C353.466,407.1465 353.516,407.2015 353.516,407.2515 C353.616,407.4515 353.866,407.6015 354.066,407.6015 C354.166,407.6015 354.266,407.5465 354.366,407.5015 C354.616,407.3465 354.916,407.2515 355.166,407.0965 C357.966,405.7515 360.666,404.3015 363.316,402.9015 C363.616,402.7465 363.716,402.3465 363.566,402.0515 M381.066,392.2015 C380.916,391.8965 380.516,391.8015 380.216,391.9465 C379.666,392.2515 379.166,392.6015 378.616,392.9015 C376.316,394.3015 373.966,395.6465 371.516,397.0015 C371.216,397.1465 371.116,397.5465 371.316,397.8515 C371.416,398.0515 371.616,398.1465 371.866,398.1465 C371.966,398.1465 372.066,398.1465 372.166,398.1015 C375.116,396.4015 378.066,394.7015 380.866,393.0515 C380.916,393.0015 380.966,392.9465 381.016,392.9015 C381.216,392.7015 381.216,392.4515 381.066,392.2015 M50.866,390.6965 C49.166,387.8515 47.616,384.8465 46.266,381.8515 C46.116,381.5515 45.716,381.4015 45.416,381.5515 C45.116,381.6965 44.966,382.0515 45.116,382.4015 C46.516,385.4015 48.066,388.4515 49.766,391.3515 C49.866,391.5515 50.066,391.6515 50.316,391.6515 C50.416,391.6515 50.516,391.6015 50.616,391.5515 C50.916,391.4015 51.016,391.0015 50.866,390.6965 M398.116,381.6015 C398.116,381.5515 398.066,381.4965 398.066,381.4515 C397.866,381.1515 397.466,381.0965 397.216,381.2515 C397.016,381.3515 396.866,381.4965 396.666,381.6015 C395.266,382.5465 393.766,383.5515 392.316,384.4465 C391.166,385.2465 389.966,386.0015 388.816,386.7515 C388.516,386.8965 388.416,387.3015 388.616,387.6015 C388.716,387.8015 388.916,387.9015 389.116,387.9015 C389.216,387.9015 389.366,387.8515 389.466,387.8015 C391.216,386.6965 392.916,385.6015 394.616,384.4465 C395.716,383.7515 396.816,383.0515 397.916,382.3015 C398.116,382.1465 398.216,381.8515 398.116,381.6015 M414.416,369.8015 C414.216,369.5015 413.816,369.4465 413.566,369.6465 C410.916,371.6515 408.166,373.6515 405.466,375.6015 C405.166,375.8015 405.116,376.1515 405.316,376.4515 C405.466,376.6015 405.616,376.6965 405.816,376.6965 C405.966,376.6965 406.066,376.6965 406.216,376.6015 C408.916,374.6465 411.666,372.6515 414.316,370.6465 C414.616,370.4465 414.666,370.0465 414.416,369.8015 M39.566,363.0515 C39.466,362.7015 39.116,362.5015 38.766,362.6015 C38.466,362.7015 38.266,363.0515 38.316,363.3465 C39.216,366.6515 40.216,369.9015 41.316,373.0015 C41.416,373.3015 41.616,373.4515 41.916,373.4515 C41.966,373.4515 42.016,373.4515 42.116,373.3965 C42.416,373.3015 42.616,372.9465 42.466,372.6015 C41.366,369.5015 40.416,366.2965 39.566,363.0515 M430.066,357.0965 C429.816,356.8515 429.416,356.8515 429.166,357.0515 C426.716,359.1515 424.166,361.2965 421.466,363.5015 C421.216,363.7015 421.166,364.1015 421.366,364.3515 C421.516,364.5015 421.666,364.5965 421.866,364.5965 C422.016,364.5965 422.116,364.5515 422.266,364.4465 C424.966,362.3015 427.566,360.1015 429.966,358.0015 C430.266,357.7465 430.266,357.4015 430.066,357.0965 M36.016,343.3465 C36.016,343.0515 35.716,342.7465 35.366,342.8015 C35.016,342.8515 34.766,343.1465 34.816,343.5015 C35.166,346.8965 35.616,350.2465 36.166,353.5015 C36.216,353.7965 36.516,353.9965 36.816,353.9965 L36.916,353.9965 C37.266,353.9515 37.466,353.6515 37.416,353.3015 C36.866,350.0465 36.366,346.7515 36.016,343.3465 M444.766,343.4515 C444.516,343.1965 444.116,343.1965 443.866,343.4515 C441.566,345.7515 439.116,348.1015 436.666,350.4015 C436.416,350.6015 436.366,351.0015 436.616,351.2515 C436.716,351.4015 436.916,351.4515 437.066,351.4515 C437.216,351.4515 437.366,351.4015 437.516,351.2965 C439.966,348.9965 442.416,346.6515 444.766,344.3015 C445.016,344.0515 445.016,343.6515 444.766,343.4515 M458.316,328.5965 C458.066,328.3465 457.666,328.3965 457.416,328.6515 C455.366,331.1515 453.116,333.7015 450.816,336.2015 C450.566,336.4515 450.616,336.8515 450.866,337.0965 C450.966,337.2015 451.116,337.2515 451.266,337.2515 C451.466,337.2515 451.616,337.1465 451.716,337.0515 C454.066,334.5015 456.316,331.9465 458.416,329.4465 C458.616,329.1965 458.566,328.7965 458.316,328.5965 M35.266,327.8515 C35.266,326.4015 35.266,324.9015 35.316,323.3965 C35.316,323.0515 35.066,322.7465 34.716,322.7465 C34.366,322.7465 34.066,323.0015 34.066,323.3465 C34.016,324.8465 34.016,326.3515 34.016,327.8515 C34.016,329.7515 34.066,331.6015 34.116,333.4515 C34.116,333.7515 34.416,334.0515 34.716,334.0515 L34.766,334.0515 C35.116,333.9965 35.366,333.7515 35.366,333.3965 C35.316,331.5515 35.266,329.7015 35.266,327.8515 M470.416,312.6015 C470.116,312.4015 469.766,312.4515 469.566,312.7465 C467.716,315.4465 465.716,318.1965 463.716,320.8465 C463.466,321.1515 463.566,321.5515 463.816,321.7515 C463.916,321.8015 464.066,321.8515 464.216,321.8515 C464.366,321.8515 464.566,321.8015 464.716,321.6015 C466.716,318.9515 468.716,316.2015 470.566,313.4515 C470.766,313.1465 470.716,312.7465 470.416,312.6015 M36.416,302.7465 C36.016,302.6515 35.766,302.9015 35.716,303.2515 C35.266,306.6515 34.916,310.0015 34.616,313.3015 C34.616,313.6515 34.866,313.9515 35.216,313.9515 L35.266,313.9515 C35.566,313.9515 35.866,313.7015 35.866,313.3965 C36.166,310.1015 36.516,306.7515 36.966,303.4515 C37.016,303.1015 36.766,302.7465 36.416,302.7465 M480.666,295.3015 C480.366,295.2015 480.016,295.3015 479.816,295.6015 C478.366,298.4515 476.716,301.4015 474.966,304.3015 C474.766,304.5965 474.866,305.0015 475.166,305.2015 C475.266,305.2465 475.366,305.2465 475.466,305.2465 C475.716,305.2465 475.916,305.1515 476.016,304.9515 C477.816,302.0015 479.466,299.0515 480.966,296.1515 C481.116,295.8465 480.966,295.4465 480.666,295.3015 M40.016,282.9465 C39.666,282.9015 39.366,283.1015 39.266,283.4515 C38.566,286.7515 37.866,290.0465 37.266,293.3015 C37.216,293.6515 37.466,293.9515 37.766,294.0515 L37.916,294.0515 C38.216,294.0515 38.466,293.8515 38.516,293.5515 C39.116,290.3015 39.766,287.0015 40.516,283.7015 C40.566,283.3465 40.366,283.0515 40.016,282.9465 M488.566,276.8515 C488.216,276.7515 487.866,276.8965 487.766,277.2515 C486.716,280.3015 485.466,283.4515 484.116,286.5515 C483.966,286.8965 484.116,287.2515 484.466,287.4015 C484.516,287.4015 484.616,287.4515 484.716,287.4515 C484.916,287.4515 485.166,287.3015 485.266,287.0515 C486.616,283.9015 487.866,280.7515 488.916,277.6515 C489.066,277.3465 488.866,277.0015 488.566,276.8515 M45.216,263.5515 C44.916,263.4515 44.566,263.6515 44.466,263.9965 C43.466,267.2015 42.516,270.4465 41.666,273.6515 C41.616,273.9965 41.816,274.3515 42.116,274.3965 C42.166,274.4465 42.216,274.4465 42.316,274.4465 C42.566,274.4465 42.816,274.2515 42.916,273.9965 C43.716,270.8015 44.666,267.5465 45.666,264.3515 C45.766,263.9965 45.566,263.6515 45.216,263.5515 M493.866,257.5015 C493.516,257.4015 493.216,257.6515 493.116,257.9465 C492.416,261.1515 491.566,264.3965 490.666,267.7015 C490.616,268.0015 490.766,268.3465 491.116,268.4515 C491.166,268.4515 491.216,268.5015 491.266,268.5015 C491.566,268.5015 491.816,268.3015 491.866,268.0015 C492.766,264.7515 493.616,261.4515 494.366,258.2515 C494.416,257.9015 494.216,257.5465 493.866,257.5015 M51.766,244.5515 C51.416,244.4465 51.066,244.5965 50.966,244.9015 C49.766,248.0515 48.616,251.2515 47.566,254.3965 C47.416,254.7015 47.616,255.0465 47.916,255.2015 L48.116,255.2015 C48.416,255.2015 48.616,255.0465 48.716,254.8015 C49.816,251.6515 50.966,248.4515 52.116,245.3515 C52.216,245.0465 52.066,244.6465 51.766,244.5515 M497.466,237.7015 C497.166,237.6515 496.816,237.9015 496.766,238.2515 C496.316,241.5515 495.766,244.8465 495.166,248.1465 C495.116,248.5015 495.316,248.7965 495.666,248.9015 L495.766,248.9015 C496.066,248.9015 496.316,248.7015 496.416,248.3965 C497.016,245.0465 497.566,241.6965 498.016,238.4515 C498.016,238.1015 497.816,237.7465 497.466,237.7015 M59.366,225.9515 C59.066,225.8015 58.716,225.9515 58.566,226.2965 C57.216,229.3515 55.866,232.4515 54.616,235.5515 C54.516,235.8465 54.666,236.2515 54.966,236.3515 C55.066,236.4015 55.116,236.4015 55.216,236.4015 C55.466,236.4015 55.666,236.2515 55.766,236.0015 C57.016,232.9465 58.366,229.8465 59.716,226.8015 C59.866,226.4515 59.716,226.0965 59.366,225.9515 M499.216,217.7015 C498.916,217.7465 498.616,217.9465 498.566,218.3015 C498.416,221.6515 498.216,225.0015 497.916,228.3015 C497.866,228.6515 498.116,228.9515 498.466,228.9965 L498.516,228.9965 C498.816,228.9965 499.116,228.7515 499.116,228.3965 C499.466,225.1015 499.666,221.7515 499.816,218.3465 C499.866,218.0515 499.566,217.7465 499.216,217.7015 M68.016,207.8015 C67.716,207.6515 67.316,207.7465 67.166,208.0515 C65.666,211.0515 64.166,214.1015 62.766,217.0965 C62.616,217.4515 62.766,217.8015 63.066,217.9465 C63.166,218.0015 63.216,218.0015 63.316,218.0015 C63.566,218.0015 63.766,217.9015 63.866,217.6515 C65.316,214.6465 66.816,211.6015 68.316,208.6515 C68.466,208.3015 68.316,207.9465 68.016,207.8015 M499.816,198.2465 C499.816,197.9015 499.516,197.6515 499.166,197.6515 C498.816,197.6515 498.566,197.9515 498.566,198.3015 C498.716,201.6015 498.816,204.9515 498.816,208.3015 C498.816,208.6515 499.116,208.9515 499.416,208.9515 C499.766,208.9515 500.066,208.6515 500.066,208.3015 C500.066,204.9515 499.966,201.5515 499.816,198.2465 M77.516,190.0515 C77.216,189.9015 76.816,190.0015 76.666,190.3015 C74.966,193.2465 73.366,196.2515 71.816,199.1515 C71.666,199.4515 71.766,199.8015 72.066,199.9515 C72.166,200.0015 72.266,200.0515 72.366,200.0515 C72.566,200.0515 72.816,199.9515 72.916,199.7015 C74.466,196.8515 76.066,193.8515 77.766,190.9015 C77.916,190.6015 77.816,190.2515 77.516,190.0515 M497.916,178.1515 C497.866,177.8015 497.566,177.5515 497.216,177.6515 C496.866,177.7015 496.666,178.0015 496.716,178.3465 C497.166,181.6515 497.566,185.0015 497.866,188.3015 C497.916,188.6515 498.166,188.8515 498.516,188.8515 L498.566,188.8515 C498.916,188.8515 499.166,188.5515 499.116,188.2015 C498.816,184.8515 498.416,181.5015 497.916,178.1515 M87.766,172.8015 C87.516,172.6015 87.116,172.7015 86.916,173.0015 C85.166,175.8465 83.416,178.7015 81.716,181.6015 C81.516,181.9015 81.616,182.2515 81.916,182.4515 C82.016,182.5015 82.116,182.5515 82.216,182.5515 C82.466,182.5515 82.666,182.4515 82.766,182.2515 C84.466,179.3515 86.216,176.5015 87.966,173.6515 C88.166,173.3465 88.066,173.0015 87.766,172.8015 M496.216,167.8515 L496.166,167.8515 C495.616,164.7015 494.866,161.5515 494.116,158.3465 C494.066,158.0015 493.716,157.8015 493.366,157.9015 C493.066,157.9515 492.816,158.3015 492.916,158.6515 C493.666,161.7015 494.316,164.7515 494.916,167.8015 C494.966,168.0015 495.016,168.2465 495.066,168.4515 C495.116,168.7515 495.366,168.9515 495.666,168.9515 L495.766,168.9515 C496.116,168.8515 496.316,168.5515 496.266,168.2015 C496.266,168.1015 496.216,167.9515 496.216,167.8515 M99.016,155.6515 C98.766,155.4515 98.366,155.5015 98.166,155.8015 L97.916,156.1515 C96.066,158.9015 94.166,161.7015 92.366,164.4965 C92.166,164.8015 92.216,165.2015 92.516,165.4015 C92.616,165.4515 92.766,165.5015 92.866,165.5015 C93.066,165.5015 93.266,165.4015 93.366,165.2015 C95.216,162.4015 97.066,159.5965 98.966,156.8515 L99.216,156.5015 C99.366,156.2515 99.316,155.8465 99.016,155.6515 M490.816,146.3515 C490.066,143.8515 489.266,141.4015 488.466,139.0015 C488.366,138.6515 487.966,138.5015 487.666,138.6015 C487.316,138.7515 487.166,139.1015 487.266,139.4015 C488.216,142.1515 489.116,144.9515 489.966,147.8015 C490.066,148.2015 490.216,148.5515 490.316,148.9515 C490.416,149.2515 490.666,149.4015 490.916,149.4015 L491.116,149.4015 C491.416,149.3015 491.616,148.9515 491.516,148.6015 C491.316,147.8515 491.066,147.0965 490.816,146.3515 M110.566,139.2015 C110.266,139.0015 109.866,139.0515 109.666,139.3515 C107.766,142.0515 105.816,144.7515 103.866,147.5515 C103.666,147.8015 103.766,148.2015 104.016,148.4015 C104.166,148.5015 104.266,148.5015 104.416,148.5015 C104.566,148.5015 104.766,148.4515 104.916,148.2465 C106.816,145.5015 108.766,142.7515 110.716,140.0515 C110.916,139.7515 110.816,139.4015 110.566,139.2015 M122.466,123.0015 C122.166,122.8015 121.816,122.8515 121.566,123.1015 C119.566,125.7465 117.566,128.4515 115.566,131.2015 C115.366,131.4515 115.466,131.8515 115.716,132.0515 C115.816,132.1515 115.966,132.2015 116.066,132.2015 C116.266,132.2015 116.466,132.0965 116.616,131.9015 C118.566,129.2015 120.566,126.5015 122.566,123.8515 C122.766,123.6015 122.716,123.2015 122.466,123.0015 M484.916,129.5515 C484.616,128.8015 484.266,128.0015 483.916,127.2015 C483.766,126.8015 483.566,126.3515 483.366,125.9015 C482.616,124.0515 481.766,122.1515 480.916,120.3015 C480.766,120.0015 480.416,119.8515 480.066,120.0015 C479.766,120.1515 479.616,120.5015 479.766,120.8015 C480.366,122.0965 480.966,123.4015 481.516,124.7015 C481.916,125.5515 482.266,126.4015 482.566,127.2015 C482.966,128.0515 483.316,128.8515 483.616,129.7015 C483.666,129.8015 483.716,129.9015 483.766,130.0015 C483.866,130.2515 484.066,130.4015 484.316,130.4015 C484.416,130.4015 484.466,130.4015 484.566,130.3515 C484.816,130.2515 485.016,130.0015 484.966,129.7015 C484.966,129.6515 484.966,129.5965 484.916,129.5515 M134.816,107.0965 C134.516,106.9015 134.166,106.9515 133.916,107.2015 C131.866,109.7015 129.916,112.3015 127.916,114.8515 C127.866,114.9515 127.766,115.0015 127.716,115.1015 C127.466,115.4015 127.516,115.8015 127.816,116.0015 C127.916,116.1015 128.066,116.1515 128.166,116.1515 C128.316,116.1515 128.466,116.1015 128.566,116.0015 C128.616,115.9515 128.616,115.9515 128.666,115.9015 C130.766,113.2015 132.816,110.6015 134.916,108.0015 C135.116,107.7515 135.066,107.3515 134.816,107.0965 M476.516,111.2515 C475.866,110.0515 475.266,108.9015 474.616,107.7515 C473.666,105.9515 472.666,104.2015 471.616,102.4515 C471.466,102.1515 471.066,102.0515 470.766,102.2015 C470.466,102.4015 470.366,102.7515 470.566,103.0515 C471.616,104.8515 472.616,106.7015 473.666,108.6015 C474.216,109.6515 474.816,110.7465 475.366,111.8515 C475.516,112.0515 475.716,112.1515 475.916,112.1515 C476.016,112.1515 476.116,112.1515 476.216,112.0965 C476.516,111.9515 476.666,111.5515 476.516,111.2515 M147.666,91.6515 C147.366,91.4515 147.016,91.5015 146.766,91.7515 C144.616,94.2515 142.416,96.8015 140.266,99.4015 C140.066,99.7015 140.066,100.1015 140.366,100.3015 C140.466,100.4015 140.616,100.4515 140.766,100.4515 C140.916,100.4515 141.116,100.3515 141.216,100.2015 C143.366,97.6015 145.566,95.0515 147.716,92.5515 C147.916,92.3015 147.916,91.9015 147.666,91.6515 M466.316,93.8515 C464.516,91.0515 462.616,88.3015 460.666,85.5515 C460.466,85.2515 460.066,85.2015 459.766,85.4015 C459.516,85.6015 459.416,86.0015 459.616,86.3015 C461.566,89.0015 463.516,91.7515 465.316,94.5515 C465.416,94.7015 465.616,94.8015 465.816,94.8015 C465.916,94.8015 466.066,94.8015 466.166,94.7015 C466.466,94.5515 466.516,94.1515 466.316,93.8515 M161.066,76.7015 C160.816,76.5015 160.416,76.5015 160.216,76.7515 C157.916,79.1515 155.666,81.6515 153.416,84.1515 C153.166,84.4515 153.216,84.8015 153.466,85.0515 C153.566,85.1515 153.716,85.2015 153.866,85.2015 C154.016,85.2015 154.216,85.1515 154.316,85.0015 C156.566,82.5015 158.866,80.0015 161.116,77.6015 C161.366,77.3515 161.316,76.9515 161.066,76.7015 M454.566,77.5515 C452.466,74.9015 450.266,72.3015 448.066,69.8015 C447.866,69.5515 447.466,69.5515 447.216,69.7515 C446.916,70.0015 446.916,70.4015 447.166,70.6515 C449.316,73.1015 451.516,75.7015 453.566,78.3015 C453.716,78.4515 453.866,78.5515 454.066,78.5515 C454.216,78.5515 454.316,78.5015 454.466,78.4015 C454.716,78.2015 454.766,77.8015 454.566,77.5515 M175.166,62.4015 C174.916,62.1515 174.566,62.1515 174.316,62.4015 C171.966,64.6515 169.566,67.0515 167.166,69.4965 C166.916,69.7515 166.916,70.1515 167.166,70.3515 C167.266,70.5015 167.416,70.5515 167.616,70.5515 C167.766,70.5515 167.916,70.5015 168.066,70.3515 C170.416,67.9515 172.816,65.5515 175.166,63.3015 C175.416,63.0515 175.416,62.6515 175.166,62.4015 M441.266,62.4515 C438.916,60.0515 436.516,57.6515 434.066,55.4015 C433.816,55.1515 433.416,55.1515 433.166,55.4015 C432.966,55.6515 432.966,56.0515 433.216,56.3015 C435.666,58.5515 438.066,60.9515 440.366,63.3015 C440.466,63.4015 440.616,63.5015 440.816,63.5015 C440.966,63.5015 441.116,63.4515 441.216,63.3015 C441.466,63.0515 441.466,62.6515 441.266,62.4515 M190.066,48.9015 C189.816,48.6515 189.416,48.6015 189.166,48.8515 C187.366,50.4015 185.566,51.9515 183.816,53.5515 C183.366,53.9015 182.966,54.3015 182.566,54.7015 C182.266,54.9515 181.916,55.2015 181.616,55.5015 C181.366,55.7465 181.366,56.1515 181.566,56.4015 C181.716,56.5015 181.866,56.6015 182.066,56.6015 C182.216,56.6015 182.366,56.5515 182.466,56.4515 C183.016,55.9515 183.566,55.4515 184.116,54.9515 L185.916,53.3015 C187.266,52.0965 188.616,50.9515 189.966,49.8015 C190.216,49.5515 190.266,49.1515 190.066,48.9015 M426.566,48.7015 C424.016,46.5015 421.366,44.4015 418.766,42.3515 C418.466,42.1515 418.066,42.2015 417.866,42.4515 C417.666,42.7515 417.716,43.1515 417.966,43.3465 C420.616,45.3515 423.216,47.5015 425.766,49.6515 C425.866,49.7515 426.016,49.8015 426.166,49.8015 C426.316,49.8015 426.516,49.7015 426.616,49.5515 C426.866,49.3015 426.816,48.9015 426.566,48.7015 M205.766,36.4015 C205.566,36.1515 205.166,36.0515 204.916,36.3015 C202.266,38.2015 199.616,40.3015 196.916,42.4015 C196.666,42.6515 196.616,43.0015 196.816,43.3015 C196.966,43.4515 197.116,43.5515 197.316,43.5515 C197.466,43.5515 197.566,43.5015 197.716,43.4015 C200.366,41.2515 203.016,39.2015 205.666,37.3015 C205.916,37.0965 205.966,36.7015 205.766,36.4015 M410.616,36.4015 C407.866,34.4515 405.066,32.6015 402.216,30.8015 C401.966,30.6515 401.566,30.7015 401.366,31.0015 C401.166,31.3015 401.266,31.7015 401.566,31.8515 C404.366,33.6515 407.166,35.5015 409.916,37.4015 C410.016,37.5015 410.166,37.5015 410.266,37.5015 C410.466,37.5015 410.666,37.4515 410.766,37.2515 C410.966,36.9515 410.916,36.6015 410.616,36.4015 M222.466,25.2015 C222.266,24.9515 221.866,24.8515 221.616,25.0015 C218.766,26.7515 215.916,28.5515 213.116,30.4515 C212.816,30.6515 212.766,31.0515 212.966,31.3515 C213.066,31.5015 213.266,31.6015 213.466,31.6015 C213.616,31.6015 213.716,31.5515 213.816,31.5015 C216.616,29.5965 219.416,27.8015 222.266,26.1015 C222.566,25.9015 222.616,25.5015 222.466,25.2015 M393.616,25.6515 C390.666,24.0015 387.666,22.3515 384.716,20.8465 C384.416,20.7015 384.016,20.8465 383.866,21.1515 C383.716,21.4515 383.866,21.8015 384.166,21.9965 C387.116,23.5015 390.066,25.0515 392.966,26.7015 C393.066,26.8015 393.166,26.8015 393.266,26.8015 C393.516,26.8015 393.716,26.7015 393.816,26.5015 C394.016,26.2015 393.916,25.8015 393.616,25.6515 M240.116,15.7015 C239.966,15.3515 239.616,15.2515 239.266,15.4015 C236.316,16.8015 233.266,18.3465 230.316,19.9515 C230.016,20.1515 229.916,20.5015 230.066,20.8015 C230.166,21.0515 230.416,21.1515 230.616,21.1515 C230.716,21.1515 230.816,21.1015 230.916,21.0515 C233.866,19.4515 236.866,17.9515 239.816,16.5015 C240.116,16.3515 240.266,16.0015 240.116,15.7015 M375.616,16.5015 C372.566,15.1515 369.466,13.8015 366.366,12.5515 C366.066,12.4515 365.666,12.6015 365.566,12.9015 C365.416,13.2465 365.566,13.6015 365.916,13.7515 C369.016,14.9515 372.116,16.3015 375.116,17.6515 C375.216,17.7015 375.266,17.7015 375.366,17.7015 C375.616,17.7015 375.866,17.5515 375.966,17.3515 C376.116,16.9965 375.966,16.6515 375.616,16.5015 M257.966,7.8015 C254.816,8.8515 251.616,10.0515 248.516,11.3015 C248.166,11.4515 248.016,11.8015 248.166,12.0965 C248.266,12.3515 248.516,12.5015 248.716,12.5015 C248.816,12.5015 248.916,12.5015 248.966,12.4515 C252.066,11.2015 255.216,10.0015 258.366,8.9515 C258.666,8.8515 258.866,8.5015 258.716,8.2015 C258.616,7.8515 258.266,7.7015 257.966,7.8015 M356.916,9.0515 C353.716,7.9515 350.516,6.9515 347.316,6.0515 C346.966,5.9515 346.616,6.1515 346.516,6.5015 C346.416,6.8015 346.616,7.1515 346.966,7.2515 C350.116,8.1515 353.366,9.1515 356.516,10.2515 L356.716,10.2515 C356.966,10.2515 357.216,10.1015 357.316,9.8515 C357.416,9.4965 357.266,9.1515 356.916,9.0515 M277.416,2.6015 C274.116,3.2465 270.816,4.0015 267.616,4.9015 C267.266,4.9515 267.066,5.3015 267.166,5.6515 C267.216,5.9015 267.466,6.1015 267.766,6.1015 L267.916,6.1015 C271.116,5.2515 274.416,4.4965 277.666,3.8515 C277.966,3.8015 278.216,3.4515 278.166,3.1015 C278.066,2.8015 277.766,2.5515 277.416,2.6015 M337.516,3.6015 C334.216,2.9015 330.866,2.2515 327.616,1.7515 C327.266,1.7015 326.916,1.9515 326.866,2.2515 C326.816,2.6015 327.066,2.9515 327.416,3.0015 C330.666,3.5015 333.966,4.1015 337.266,4.8015 C337.316,4.8515 337.366,4.8515 337.366,4.8515 C337.666,4.8515 337.916,4.6515 338.016,4.3515 C338.066,4.0015 337.866,3.7015 337.516,3.6015 M297.466,0.1515 L297.416,0.1515 C294.066,0.3515 290.666,0.6515 287.366,1.0515 C287.016,1.1015 286.766,1.4015 286.816,1.7515 C286.866,2.0515 287.116,2.3015 287.466,2.3015 L287.516,2.3015 C290.816,1.9015 294.166,1.6015 297.516,1.4015 C297.816,1.4015 298.116,1.1015 298.066,0.7465 C298.066,0.4515 297.766,0.1515 297.466,0.1515 M317.566,0.5515 C314.266,0.2515 310.866,0.0515 307.516,0.0015 C307.166,0.0015 306.866,0.2515 306.866,0.6015 C306.866,0.9515 307.116,1.2515 307.466,1.2515 C310.816,1.3015 314.166,1.5015 317.466,1.8015 L317.516,1.8015 C317.866,1.8015 318.116,1.5515 318.166,1.2015 C318.166,0.8465 317.916,0.5515 317.566,0.5515" id="Fill-6" fill="#D8D5DB"></path>
                <path d="M497.317,135.051 L490.817,146.351 L489.967,147.801 L480.562,164.051 L478.517,167.651 L418.217,272.051 L408.217,289.351 L398.217,272.051 L362.467,210.151 L356.967,200.651 L344.712,179.401 L316.017,129.701 L500.417,129.701 L497.317,135.051 Z M311.717,127.201 L344.712,184.351 L354.112,200.651 L359.617,210.151 L395.362,272.051 L408.217,294.351 L421.117,272.051 L480.762,168.701 L482.862,165.101 L499.167,136.901 L503.667,129.051 L504.067,128.401 L504.767,127.201 L311.717,127.201 Z" id="Fill-8" fill="#FFFFFF"></path>
                <path d="M342.815,382.099 C342.965,382.649 342.715,383.454 342.165,384.449 C340.915,386.799 337.92,390.149 334.77,392.899 C334.115,393.454 333.465,393.999 332.815,394.449 C330.915,395.999 329.065,397.204 327.615,397.649 C322.515,399.349 300.465,396.449 295.115,393.549 C294.77,393.349 294.515,393.149 294.265,392.899 C292.07,393.049 288.815,393.099 284.865,392.899 C283.065,392.804 281.115,392.649 279.015,392.349 C274.065,391.799 268.415,390.649 262.315,388.699 C259.315,387.804 256.165,386.649 252.965,385.249 C249.965,383.899 246.865,382.349 243.765,380.549 C243.015,380.149 242.465,379.649 241.815,379.254 C242.415,383.854 243.015,388.399 243.665,392.899 C243.865,394.149 244.065,395.399 244.215,396.599 C244.765,400.149 245.315,403.654 245.915,407.099 C248.265,420.649 250.965,433.399 254.215,444.799 C254.515,445.999 254.865,447.204 255.215,448.349 C254.165,448.499 253.115,448.654 252.115,448.799 C252.365,449.949 252.565,451.154 252.765,452.349 C255.265,465.849 257.165,482.499 258.565,499.599 C199.865,522.849 145.215,528.299 107.515,505.249 C95.515,497.949 85.265,487.749 77.115,474.299 C75.815,472.149 74.515,469.999 73.215,467.849 C73.465,460.799 73.765,454.849 74.015,450.799 C73.065,450.699 72.565,450.699 72.565,450.699 C72.565,442.549 72.915,431.849 73.465,419.499 C73.515,418.999 73.515,418.499 73.515,417.949 C73.715,414.449 73.915,410.849 74.165,407.099 C74.365,402.499 74.665,397.804 74.965,392.899 C75.415,385.799 75.915,378.399 76.465,370.899 C64.265,367.649 54.065,364.149 48.315,360.649 C40.815,356.099 37.965,349.749 38.165,343.499 C38.065,342.249 38.065,340.899 38.365,339.499 C41.215,330.049 51.015,301.899 62.115,273.949 L49.815,269.749 C49.815,269.749 85.765,205.699 106.865,191.599 C106.965,191.549 107.015,191.499 107.115,191.449 C114.565,184.549 125.315,180.099 141.415,178.299 C141.515,164.949 140.465,142.399 139.365,125.149 C134.115,123.949 130.565,119.599 128.565,115.999 C128.315,115.599 128.065,115.199 127.915,114.849 C127.115,113.299 126.665,111.999 126.465,111.349 C125.365,106.949 126.415,103.299 128.565,100.949 C128.115,97.299 127.465,91.299 127.215,84.999 C126.715,73.399 127.365,60.699 132.615,59.549 C132.565,59.399 132.465,59.299 132.415,59.199 C131.065,55.049 133.515,50.449 133.615,50.299 L135.815,51.449 C135.815,51.499 133.815,55.299 134.765,58.399 C138.965,53.749 153.115,52.249 167.965,53.099 C168.815,53.099 169.715,53.199 170.565,53.249 C173.615,53.499 176.665,53.799 179.665,54.249 C180.665,54.349 181.615,54.499 182.565,54.699 C183.065,54.749 183.615,54.849 184.115,54.949 C187.365,55.499 190.465,56.199 193.315,56.999 C198.215,58.349 202.315,60.049 205.065,61.999 C205.965,62.599 206.665,63.249 207.265,63.899 C209.765,66.799 210.165,68.849 209.065,70.199 C208.415,70.949 207.365,71.499 205.965,71.899 C206.565,76.099 206.815,79.749 206.915,83.099 C207.215,83.899 207.515,84.749 207.815,85.599 C208.065,86.349 208.315,87.149 208.565,87.949 C208.615,87.999 208.665,87.999 208.715,88.049 C209.015,88.299 209.315,88.499 209.615,88.749 C210.715,89.749 211.715,90.999 212.465,92.649 L210.215,93.699 C210.165,93.599 210.115,93.549 210.065,93.449 C210.665,95.999 211.215,98.649 211.615,101.449 C212.215,105.599 212.865,109.749 213.515,113.799 C213.715,115.349 213.915,116.899 214.115,118.399 C214.565,121.499 214.965,124.549 215.215,127.449 C215.315,128.349 215.415,129.199 215.415,130.049 C216.465,143.249 215.215,154.199 207.315,159.699 C205.815,160.799 204.015,161.699 201.965,162.299 C199.365,163.149 196.265,163.599 192.665,163.649 C192.765,167.149 192.965,170.549 193.265,173.749 C193.415,174.999 193.565,176.249 193.765,177.399 C193.915,178.599 194.115,179.799 194.365,180.899 C207.715,184.099 217.765,189.499 224.115,196.849 C224.415,197.149 224.765,197.449 225.065,197.799 C228.615,201.249 232.065,206.554 235.315,212.899 C239.415,220.849 243.265,230.504 246.665,240.149 C246.915,240.899 247.165,241.699 247.465,242.449 C247.715,243.299 248.015,244.099 248.265,244.949 C249.665,249.099 250.965,253.249 252.165,257.204 C253.065,260.149 253.865,263.004 254.665,265.699 C258.515,279.254 260.765,289.254 260.765,289.254 L254.665,290.699 L252.165,291.299 L250.365,291.754 C250.965,294.149 251.565,296.499 252.165,298.899 C252.215,299.149 252.315,299.449 252.365,299.704 C253.165,302.804 253.915,305.954 254.665,308.999 C258.515,324.649 261.765,339.149 263.215,348.749 C267.515,352.299 270.665,357.849 275.315,363.004 C280.015,368.199 286.365,372.899 297.115,374.749 C297.165,374.749 297.165,374.799 297.215,374.799 C301.42,371.499 309.215,367.604 313.965,366.154 C314.615,365.999 315.17,365.849 315.665,365.749 C316.065,365.649 316.42,365.599 316.715,365.599 C318.72,365.199 319.015,365.349 320.215,366.099 C320.665,366.449 321.265,366.899 322.215,367.449 C326.115,369.749 330.215,371.899 333.765,373.999 C338.165,376.554 341.615,378.999 342.615,381.599 C342.715,381.754 342.765,381.949 342.815,382.099" id="Fill-10" fill="#D1CDD3"></path>
                <path d="M357.6685,367.4265 C354.1035,365.2915 355.1435,365.0215 351.1135,365.7615 C346.7635,366.5665 337.4035,371.0565 332.6685,374.7965 C332.6185,374.7915 332.5835,374.7665 332.5335,374.7565 C311.0935,371.0815 307.3235,355.9165 298.6535,348.7365 C293.8485,317.2565 269.6385,231.5865 269.6385,231.5865 L233.1585,245.1515 C238.4735,281.2465 259.8635,349.8965 265.4135,365.3865 C266.3235,367.2615 267.4985,368.7515 268.8135,369.9615 C270.6335,373.8065 273.9035,377.5165 279.1885,380.5715 C301.0585,393.2165 321.7585,393.3915 329.6785,392.8865 C329.9335,393.1415 330.2235,393.3615 330.5535,393.5465 C335.9185,396.4765 357.9285,399.3465 363.0685,397.6615 C368.2935,395.9465 378.9935,385.1165 378.2235,382.1165 C376.9735,377.2165 366.6035,372.7765 357.6685,367.4265" id="Fill-12" fill="#FFAD69"></path>
                <path d="M236.9045,208.447 C226.6045,231.597 230.3895,304.952 230.3895,304.952 L296.2145,289.262 C296.2145,289.262 264.0645,147.377 236.9045,208.447" id="Fill-14" fill="#377ADB"></path>
                <path d="M292.6145,484.399 C281.2195,490.104 269.8145,495.199 258.5645,499.599 C199.8645,522.849 145.2195,528.299 107.5145,505.249 C108.0645,483.599 108.8145,461.049 109.4145,450.799 C109.5145,449.599 109.6145,448.549 109.6645,447.699 L129.8645,447.299 L130.7645,447.299 L130.8145,447.249 L240.1145,445.104 L240.2195,445.104 L247.2145,444.949 L254.2145,444.799 L286.5145,444.149 C286.8695,445.649 287.2145,447.249 287.5145,448.854 C289.6145,459.054 291.2645,471.299 292.6145,484.399" id="Fill-16" fill="#232323"></path>
                <path d="M188.55,177.429 C149.28,178.724 136.005,191.979 129.235,214.904 C121.545,240.934 108.005,398.154 108.005,450.689 C108.005,450.689 225.53,459.019 290.635,448.344 C270.22,379.389 268.015,255.409 267.605,218.469 C267.3,190.759 238.33,175.784 188.55,177.429" id="Fill-18" fill="#4D8DFF"></path>
                <mask id="mask-saa48-5jp3-4" fill="white">
                    <use xlink:href="#path-saa48-5jp3-3"></use>
                </mask>
                <g id="Clip-21"></g>
                <path d="M194.965,314.3 L252.165,314.3 L252.165,244.95 L194.965,244.95 L194.965,314.3 Z M192.465,316.8 L254.665,316.8 L254.665,242.45 L192.465,242.45 L192.465,316.8 Z" id="Fill-20" fill="#FFFFFF" mask="url(#mask-saa48-5jp3-4)"></path>
                <path d="M223.1445,113.139 C227.0095,110.224 247.1895,112.869 241.3795,71.784 C239.2595,56.794 225.1845,66.799 215.2195,68.799 C205.2495,70.799 211.5895,113.879 211.5895,113.879 L223.1445,113.139 Z" id="Fill-22" fill="#232323" mask="url(#mask-saa48-5jp3-4)"></path>
                <path d="M172.9005,103.298 C174.5755,114.188 177.9255,173.103 176.5305,186.788 C175.1355,200.473 241.3155,204.378 232.6555,189.303 C224.0005,174.223 230.1455,124.238 230.1455,124.238 L172.9005,103.298 Z" id="Fill-23" fill="#FFAD69" mask="url(#mask-saa48-5jp3-4)"></path>
                <path d="M177.4805,104.963 L230.1355,124.243 C230.1355,124.243 226.5805,153.353 228.7255,173.853 C188.5755,170.748 178.2705,120.038 177.5955,110.273 C177.4805,108.433 177.4255,106.658 177.4805,104.963" id="Fill-24" fill="#D88344" mask="url(#mask-saa48-5jp3-4)"></path>
                <path d="M247.041,101.4425 C251.921,135.0775 260.206,168.6175 219.436,163.0925 C178.661,157.5725 172.331,105.2975 172.446,95.4425 C173.081,42.8275 237.446,35.3025 247.041,101.4425" id="Fill-25" fill="#FFAD69" mask="url(#mask-saa48-5jp3-4)"></path>
                <path d="M242.693,63.8865 C233.098,52.7415 179.153,48.5365 170.223,58.4065 C169.243,55.3065 171.243,51.4965 171.263,51.4615 L169.063,50.2765 C168.958,50.4665 166.523,55.0615 167.848,59.1915 C167.893,59.3215 168.003,59.4115 168.048,59.5415 C158.178,61.7165 164.478,104.5965 164.478,104.5965 L176.033,103.8565 C179.898,100.9465 193.313,80.4565 196.268,68.0915 C217.393,71.6665 254.888,78.0515 242.693,63.8865" id="Fill-26" fill="#232323" mask="url(#mask-saa48-5jp3-4)"></path>
                <path d="M236.9555,368.613 C232.8255,368.843 216.8005,371.628 211.1755,370.323 C192.2705,365.908 143.5505,344.053 117.3255,331.838 C133.4605,296.813 157.2105,234.823 157.2105,234.823 L119.8655,223.863 C102.5355,255.968 78.6005,323.773 73.7805,339.508 C73.5105,340.918 73.4905,342.243 73.5755,343.513 C73.4055,349.738 76.2555,356.093 83.7405,360.653 C104.5005,373.298 182.8155,385.568 204.5055,387.963 C204.9055,388.773 205.4355,389.508 206.2955,389.993 C211.6005,392.973 235.7405,395.203 240.7055,396.083 C246.9305,397.183 265.8255,398.783 265.0105,396.253 C263.6755,392.108 256.6705,367.508 236.9555,368.613" id="Fill-27" fill="#FFAD69" mask="url(#mask-saa48-5jp3-4)"></path>
                <path d="M142.2805,191.6185 C121.2155,205.6985 85.2555,269.7435 85.2555,269.7435 L149.2905,291.6185 C149.2905,291.6185 197.8505,154.4785 142.2805,191.6185" id="Fill-28" fill="#4D8DFF" mask="url(#mask-saa48-5jp3-4)"></path>
                <path d="M212.71,99.78 C212.58,101.42 213.465,102.825 214.69,102.925 C215.92,103.02 217.02,101.775 217.155,100.135 C217.29,98.5 216.4,97.09 215.17,96.99 C213.945,96.895 212.84,98.14 212.71,99.78" id="Fill-29" fill="#232323" mask="url(#mask-saa48-5jp3-4)"></path>
                <path d="M238.6815,100.4685 C238.5515,102.1085 239.4365,103.5135 240.6615,103.6135 C241.8915,103.7085 242.9915,102.4635 243.1265,100.8235 C243.2565,99.1885 242.3665,97.7785 241.1415,97.6785 C239.9165,97.5835 238.8115,98.8285 238.6815,100.4685" id="Fill-30" fill="#232323" mask="url(#mask-saa48-5jp3-4)"></path>
                <path d="M206.321,90.576 L204.226,89.211 C208.646,82.441 216.066,84.011 216.386,84.081 L215.841,86.521 C215.601,86.471 209.776,85.281 206.321,90.576" id="Fill-31" fill="#232323" mask="url(#mask-saa48-5jp3-4)"></path>
                <path d="M245.637,93.6935 C242.992,87.9385 237.052,88.2535 236.817,88.2785 L236.642,85.7835 C236.962,85.7635 244.532,85.2985 247.907,92.6485 L245.637,93.6935 Z" id="Fill-32" fill="#232323" mask="url(#mask-saa48-5jp3-4)"></path>
                <path d="M221.0545,130.7465 C216.8295,130.7465 208.7045,129.5465 203.6595,121.1565 L205.7995,119.8665 C211.9145,130.0365 222.8845,128.1815 223.3495,128.0965 L223.8045,130.5515 C223.7645,130.5615 222.7095,130.7465 221.0545,130.7465" id="Fill-33" fill="#232323" mask="url(#mask-saa48-5jp3-4)"></path>
                <polygon id="Fill-34" fill="#D88344" mask="url(#mask-saa48-5jp3-4)" points="240.2785 119.355 228.1385 119.19 228.1735 116.69 236.9285 116.81 231.5235 98.375 233.9185 97.67"></polygon>
                <path d="M182.788,107.5775 C186.468,115.8775 191.083,123.9075 179.518,125.3975 C167.953,126.8925 162.573,113.9075 161.918,111.3625 C158.418,97.7875 175.543,91.2575 182.788,107.5775" id="Fill-35" fill="#FFAD69" mask="url(#mask-saa48-5jp3-4)"></path>
                <path d="M495.891,407.0845 L17.451,407.0845 C13.546,407.0845 10.351,403.8895 10.351,399.9845 C10.351,396.0795 13.546,392.8845 17.451,392.8845 L495.891,392.8845 C499.796,392.8845 502.991,396.0795 502.991,399.9845 C502.991,403.8895 499.796,407.0845 495.891,407.0845" id="Fill-36" fill="#FFFFFF" mask="url(#mask-saa48-5jp3-4)"></path>
                <path d="M194.5115,407.0845 L13.9015,407.0845 C9.9965,407.0845 6.8015,403.8895 6.8015,399.9845 C6.8015,396.0795 9.9965,392.8845 13.9015,392.8845 L194.5115,392.8845 C198.4165,392.8845 201.6115,396.0795 201.6115,399.9845 C201.6115,403.8895 198.4165,407.0845 194.5115,407.0845" id="Fill-37" fill="#D8D5DB" mask="url(#mask-saa48-5jp3-4)"></path>
                <path d="M472.4635,381.611 L324.0535,381.611 C318.3885,381.611 314.6285,377.011 315.6585,371.341 L331.8435,282.336 C332.8785,276.661 338.3085,272.066 343.9835,272.066 L492.3885,272.066 C498.0585,272.066 501.8185,276.661 500.7885,282.336 L484.6035,371.341 C483.5685,377.011 478.1385,381.611 472.4635,381.611" id="Fill-38" fill="#2B2B2B" mask="url(#mask-saa48-5jp3-4)"></path>
                <path d="M476.0915,381.611 L327.6815,381.611 C322.0165,381.611 318.2565,377.011 319.2865,371.341 L335.4715,282.336 C336.5015,276.661 341.9365,272.066 347.6065,272.066 L496.0115,272.066 C501.6865,272.066 505.4465,276.661 504.4165,282.336 L488.2265,371.341 C487.1965,377.011 481.7615,381.611 476.0915,381.611" id="Fill-39" fill="#232323" mask="url(#mask-saa48-5jp3-4)"></path>
                <path d="M426.565,344.848 L390.62,344.848 L397.165,308.853 L433.12,308.853 L426.565,344.848 Z M395.065,306.353 L387.615,347.348 L428.615,347.348 L436.115,306.353 L395.065,306.353 Z" id="Fill-40" fill="#FFFFFF" mask="url(#mask-saa48-5jp3-4)"></path>
                <path d="M298.025,384.4575 C298.025,389.0925 301.82,392.8875 306.46,392.8875 L461.705,392.8875 C466.345,392.8875 470.14,389.0925 470.14,384.4575 L298.025,384.4575 Z" id="Fill-41" fill="#232323" mask="url(#mask-saa48-5jp3-4)"></path>
                <path d="M252.9225,384.4575 C252.9225,389.0925 256.7125,392.8875 261.3525,392.8875 L322.4025,392.8875 C327.0425,392.8875 330.8375,389.0925 330.8375,384.4575 L252.9225,384.4575 Z" id="Fill-42" fill="#2B2B2B" mask="url(#mask-saa48-5jp3-4)"></path>
                <path d="M423.4495,108.227 C418.1945,108.227 413.9345,112.492 413.9345,117.747 L432.9695,117.747 C432.9695,112.492 428.7095,108.227 423.4495,108.227" id="Fill-43" fill="#377ADB" mask="url(#mask-saa48-5jp3-4)"></path>
                <path d="M423.4595,108.2295 L423.4595,200.6595 C423.4595,205.9245 419.1895,210.1495 413.9245,210.1495 L344.7195,210.1495 L344.7195,117.7695 C344.7195,112.4995 348.9845,108.2295 354.2145,108.2295 L423.4595,108.2295 Z" id="Fill-44" fill="#4D8DFF" mask="url(#mask-saa48-5jp3-4)"></path>
                <path d="M404.431,200.659 L335.191,200.649 C335.191,205.904 339.456,210.164 344.716,210.164 L413.921,210.149 C408.661,210.149 404.431,205.924 404.431,200.659" id="Fill-45" fill="#6EA9FF" mask="url(#mask-saa48-5jp3-4)"></path>
                <polygon id="Fill-46" fill="#FFFFFF" mask="url(#mask-saa48-5jp3-4)" points="355.07 123.75 413.12 123.75 413.12 121.25 355.07 121.25"></polygon>
                <polygon id="Fill-47" fill="#FFFFFF" mask="url(#mask-saa48-5jp3-4)" points="355.07 133.22 413.12 133.22 413.12 130.72 355.07 130.72"></polygon>
                <polygon id="Fill-48" fill="#FFFFFF" mask="url(#mask-saa48-5jp3-4)" points="355.07 142.69 413.12 142.69 413.12 140.19 355.07 140.19"></polygon>
                <polygon id="Fill-49" fill="#FFFFFF" mask="url(#mask-saa48-5jp3-4)" points="355.07 152.16 413.12 152.16 413.12 149.66 355.07 149.66"></polygon>
                <polygon id="Fill-50" fill="#FFFFFF" mask="url(#mask-saa48-5jp3-4)" points="355.07 161.63 413.12 161.63 413.12 159.13 355.07 159.13"></polygon>
                <polygon id="Fill-51" fill="#FFFFFF" mask="url(#mask-saa48-5jp3-4)" points="355.07 171.1 413.12 171.1 413.12 168.6 355.07 168.6"></polygon>
                <polygon id="Fill-52" fill="#FFFFFF" mask="url(#mask-saa48-5jp3-4)" points="355.07 180.57 413.12 180.57 413.12 178.07 355.07 178.07"></polygon>
                <polygon id="Fill-53" fill="#FFFFFF" mask="url(#mask-saa48-5jp3-4)" points="355.07 190.04 413.12 190.04 413.12 187.54 355.07 187.54"></polygon>
                <path d="M520.183,157.8925 C506.933,171.1425 485.443,171.1425 472.188,157.8925 C458.938,144.6375 458.938,123.1525 472.188,109.8975 C485.443,96.6425 506.933,96.6425 520.183,109.8975 C533.433,123.1525 533.433,144.6375 520.183,157.8925" id="Fill-54" fill="#FFC84D" mask="url(#mask-saa48-5jp3-4)"></path>
                <path d="M496.189,133.896 L523.154,160.861 C508.364,175.656 484.009,175.656 469.219,160.861 C462.884,154.521 458.979,146.151 458.194,137.221 L496.189,133.896 Z" id="Fill-55" fill="#232323" mask="url(#mask-saa48-5jp3-4)"></path>
                <path d="M496.189,133.896 L458.309,138.311 C457.809,134.036 458.039,129.706 458.989,125.501 C459.934,121.301 461.584,117.291 463.874,113.641 L496.189,133.896 Z" id="Fill-56" fill="#FFFFFF" mask="url(#mask-saa48-5jp3-4)"></path>
                <path d="M330.071,84.7995 L301.321,84.7995 C297.611,84.7995 294.571,81.7645 294.571,78.0495 L294.571,49.3045 C294.571,45.5945 297.611,42.5545 301.321,42.5545 L330.071,42.5545 C333.781,42.5545 336.821,45.5945 336.821,49.3045 L336.821,78.0495 C336.821,81.7645 333.781,84.7995 330.071,84.7995" id="Fill-57" fill="#232323" mask="url(#mask-saa48-5jp3-4)"></path>
                <path d="M321.6675,93.2025 L292.9175,93.2025 C289.2075,93.2025 286.1675,90.1675 286.1675,86.4525 L286.1675,57.7075 C286.1675,53.9975 289.2075,50.9575 292.9175,50.9575 L321.6675,50.9575 C325.3775,50.9575 328.4175,53.9975 328.4175,57.7075 L328.4175,86.4525 C328.4175,90.1675 325.3775,93.2025 321.6675,93.2025" id="Fill-58" fill="#FF4E4A" mask="url(#mask-saa48-5jp3-4)"></path>
            </g>
        </g>
    </g>
</svg>